<svg width="1684" height="1281" viewBox="0 0 1684 1281" fill="none" xmlns="http://www.w3.org/2000/svg">
<rect x="395" y="6" width="360" height="360" rx="180" fill="#BF85FC"/>
<rect x="392" y="3" width="366" height="366" rx="183" stroke="#404040" stroke-opacity="0.352941" stroke-width="6"/>
<path d="M558.256 162.682L574.983 191.227L591.71 162.682H604.074L581.528 197.591L604.074 232.5H591.71L574.983 205.409L558.256 232.5H545.892L568.074 197.591L545.892 162.682H558.256Z" fill="#2B2A2B"/>
<path d="M171.411 240.636V168.636H179.183V176.955H180.138C180.729 176.045 181.547 174.886 182.592 173.477C183.661 172.045 185.183 170.773 187.161 169.659C189.161 168.523 191.865 167.955 195.274 167.955C199.683 167.955 203.57 169.057 206.933 171.261C210.297 173.466 212.922 176.591 214.808 180.636C216.695 184.682 217.638 189.455 217.638 194.955C217.638 200.5 216.695 205.307 214.808 209.375C212.922 213.42 210.308 216.557 206.967 218.784C203.626 220.989 199.774 222.091 195.411 222.091C192.047 222.091 189.354 221.534 187.331 220.42C185.308 219.284 183.751 218 182.661 216.568C181.57 215.114 180.729 213.909 180.138 212.955H179.456V240.636H171.411ZM179.32 194.818C179.32 198.773 179.899 202.261 181.058 205.284C182.217 208.284 183.911 210.636 186.138 212.341C188.365 214.023 191.092 214.864 194.32 214.864C197.683 214.864 200.49 213.977 202.74 212.205C205.013 210.409 206.717 208 207.854 204.977C209.013 201.932 209.592 198.545 209.592 194.818C209.592 191.136 209.024 187.818 207.888 184.864C206.774 181.886 205.081 179.534 202.808 177.807C200.558 176.057 197.729 175.182 194.32 175.182C191.047 175.182 188.297 176.011 186.07 177.67C183.842 179.307 182.161 181.602 181.024 184.557C179.888 187.489 179.32 190.909 179.32 194.818ZM232.774 191.545C232.774 182.955 233.888 175.057 236.115 167.852C238.365 160.625 241.57 153.977 245.729 147.909H252.82C251.183 150.159 249.649 152.932 248.217 156.227C246.808 159.5 245.57 163.102 244.501 167.034C243.433 170.943 242.592 174.989 241.979 179.17C241.388 183.352 241.092 187.477 241.092 191.545C241.092 196.955 241.615 202.443 242.661 208.011C243.706 213.58 245.115 218.75 246.888 223.523C248.661 228.295 250.638 232.182 252.82 235.182H245.729C241.57 229.114 238.365 222.477 236.115 215.273C233.888 208.045 232.774 200.136 232.774 191.545ZM270.692 168.636L283.237 190.045L295.783 168.636H305.055L288.146 194.818L305.055 221H295.783L283.237 200.682L270.692 221H261.419L278.055 194.818L261.419 168.636H270.692ZM333.717 191.545C333.717 200.136 332.592 208.045 330.342 215.273C328.115 222.477 324.922 229.114 320.763 235.182H313.672C315.308 232.932 316.831 230.159 318.24 226.864C319.672 223.591 320.922 220 321.99 216.091C323.058 212.159 323.888 208.102 324.479 203.92C325.092 199.716 325.399 195.591 325.399 191.545C325.399 186.136 324.876 180.648 323.831 175.08C322.786 169.511 321.376 164.341 319.604 159.568C317.831 154.795 315.854 150.909 313.672 147.909H320.763C324.922 153.977 328.115 160.625 330.342 167.852C332.592 175.057 333.717 182.955 333.717 191.545Z" fill="#2B2A2B"/>
<path d="M1511.41 420.636V348.636H1519.18V356.955H1520.14C1520.73 356.045 1521.55 354.886 1522.59 353.477C1523.66 352.045 1525.18 350.773 1527.16 349.659C1529.16 348.523 1531.87 347.955 1535.27 347.955C1539.68 347.955 1543.57 349.057 1546.93 351.261C1550.3 353.466 1552.92 356.591 1554.81 360.636C1556.69 364.682 1557.64 369.455 1557.64 374.955C1557.64 380.5 1556.69 385.307 1554.81 389.375C1552.92 393.42 1550.31 396.557 1546.97 398.784C1543.63 400.989 1539.77 402.091 1535.41 402.091C1532.05 402.091 1529.35 401.534 1527.33 400.42C1525.31 399.284 1523.75 398 1522.66 396.568C1521.57 395.114 1520.73 393.909 1520.14 392.955H1519.46V420.636H1511.41ZM1519.32 374.818C1519.32 378.773 1519.9 382.261 1521.06 385.284C1522.22 388.284 1523.91 390.636 1526.14 392.341C1528.37 394.023 1531.09 394.864 1534.32 394.864C1537.68 394.864 1540.49 393.977 1542.74 392.205C1545.01 390.409 1546.72 388 1547.85 384.977C1549.01 381.932 1549.59 378.545 1549.59 374.818C1549.59 371.136 1549.02 367.818 1547.89 364.864C1546.77 361.886 1545.08 359.534 1542.81 357.807C1540.56 356.057 1537.73 355.182 1534.32 355.182C1531.05 355.182 1528.3 356.011 1526.07 357.67C1523.84 359.307 1522.16 361.602 1521.02 364.557C1519.89 367.489 1519.32 370.909 1519.32 374.818ZM1572.77 371.545C1572.77 362.955 1573.89 355.057 1576.12 347.852C1578.37 340.625 1581.57 333.977 1585.73 327.909H1592.82C1591.18 330.159 1589.65 332.932 1588.22 336.227C1586.81 339.5 1585.57 343.102 1584.5 347.034C1583.43 350.943 1582.59 354.989 1581.98 359.17C1581.39 363.352 1581.09 367.477 1581.09 371.545C1581.09 376.955 1581.62 382.443 1582.66 388.011C1583.71 393.58 1585.12 398.75 1586.89 403.523C1588.66 408.295 1590.64 412.182 1592.82 415.182H1585.73C1581.57 409.114 1578.37 402.477 1576.12 395.273C1573.89 388.045 1572.77 380.136 1572.77 371.545ZM1640.01 363.227V370.727H1606.74V363.227H1640.01ZM1644.92 362.409V370.727C1644.92 377.864 1644.03 383.739 1642.26 388.352C1640.49 392.966 1637.99 396.386 1634.76 398.614C1631.53 400.841 1627.74 401.955 1623.37 401.955C1619.01 401.955 1615.19 400.841 1611.92 398.614C1608.65 396.386 1606.1 392.966 1604.28 388.352C1602.46 383.739 1601.56 377.864 1601.56 370.727V362.409C1601.56 355.318 1602.45 349.511 1604.25 344.989C1606.04 340.466 1608.57 337.125 1611.82 334.966C1615.07 332.807 1618.87 331.727 1623.24 331.727C1627.65 331.727 1631.48 332.807 1634.73 334.966C1637.98 337.125 1640.49 340.466 1642.26 344.989C1644.03 349.511 1644.92 355.318 1644.92 362.409ZM1636.74 372.227V360.909C1636.74 356.227 1636.17 352.25 1635.03 348.977C1633.9 345.705 1632.32 343.216 1630.29 341.511C1628.27 339.807 1625.92 338.955 1623.24 338.955C1619.28 338.955 1616.02 340.864 1613.45 344.682C1610.88 348.477 1609.6 353.886 1609.6 360.909V372.227C1609.6 379.25 1610.91 384.761 1613.52 388.761C1616.13 392.739 1619.42 394.727 1623.37 394.727C1626.06 394.727 1628.4 393.83 1630.4 392.034C1632.4 390.239 1633.95 387.659 1635.07 384.295C1636.18 380.932 1636.74 376.909 1636.74 372.227ZM1673.72 371.545C1673.72 380.136 1672.59 388.045 1670.34 395.273C1668.12 402.477 1664.92 409.114 1660.76 415.182H1653.67C1655.31 412.932 1656.83 410.159 1658.24 406.864C1659.67 403.591 1660.92 400 1661.99 396.091C1663.06 392.159 1663.89 388.102 1664.48 383.92C1665.09 379.716 1665.4 375.591 1665.4 371.545C1665.4 366.136 1664.88 360.648 1663.83 355.08C1662.79 349.511 1661.38 344.341 1659.6 339.568C1657.83 334.795 1655.85 330.909 1653.67 327.909H1660.76C1664.92 333.977 1668.12 340.625 1670.34 347.852C1672.59 355.057 1673.72 362.955 1673.72 371.545Z" fill="#2B2A2B"/>
<path d="M575 886L603.868 836H546.132L575 886ZM575 395H570V841H575H580V395H575Z" fill="#2B2A2B"/>
<path d="M725 952L780.454 935.93L738.81 895.941L725 952ZM1136 524L1132.39 520.537L752.562 916.079L756.169 919.542L759.775 923.005L1139.61 527.463L1136 524Z" fill="#2B2A2B"/>
<rect x="395" y="915" width="360" height="360" rx="180" fill="#D97192"/>
<rect x="392" y="912" width="366" height="366" rx="183" stroke="#404040" stroke-opacity="0.352941" stroke-width="6"/>
<path d="M556.102 1167.68C554.284 1167.68 552.663 1167.53 551.239 1167.23C549.814 1166.95 548.83 1166.68 548.284 1166.41L551.011 1156.95C553.617 1157.62 555.92 1157.86 557.92 1157.68C559.92 1157.5 561.693 1156.61 563.239 1155C564.814 1153.42 566.254 1150.86 567.557 1147.32L569.557 1141.86L543.739 1071.68H555.375L574.648 1127.32H575.375L594.648 1071.68H606.284L576.648 1151.68C575.314 1155.29 573.663 1158.27 571.693 1160.64C569.723 1163.03 567.436 1164.8 564.83 1165.95C562.254 1167.11 559.345 1167.68 556.102 1167.68Z" fill="#2B2A2B"/>
<path d="M7.61364 1149.64V1077.64H15.3864V1085.95H16.3409C16.9318 1085.05 17.75 1083.89 18.7955 1082.48C19.8636 1081.05 21.3864 1079.77 23.3636 1078.66C25.3636 1077.52 28.0682 1076.95 31.4773 1076.95C35.8864 1076.95 39.7727 1078.06 43.1364 1080.26C46.5 1082.47 49.125 1085.59 51.0114 1089.64C52.8977 1093.68 53.8409 1098.45 53.8409 1103.95C53.8409 1109.5 52.8977 1114.31 51.0114 1118.38C49.125 1122.42 46.5114 1125.56 43.1705 1127.78C39.8295 1129.99 35.9773 1131.09 31.6136 1131.09C28.25 1131.09 25.5568 1130.53 23.5341 1129.42C21.5114 1128.28 19.9545 1127 18.8636 1125.57C17.7727 1124.11 16.9318 1122.91 16.3409 1121.95H15.6591V1149.64H7.61364ZM15.5227 1103.82C15.5227 1107.77 16.1023 1111.26 17.2614 1114.28C18.4205 1117.28 20.1136 1119.64 22.3409 1121.34C24.5682 1123.02 27.2955 1123.86 30.5227 1123.86C33.8864 1123.86 36.6932 1122.98 38.9432 1121.2C41.2159 1119.41 42.9205 1117 44.0568 1113.98C45.2159 1110.93 45.7955 1107.55 45.7955 1103.82C45.7955 1100.14 45.2273 1096.82 44.0909 1093.86C42.9773 1090.89 41.2841 1088.53 39.0114 1086.81C36.7614 1085.06 33.9318 1084.18 30.5227 1084.18C27.25 1084.18 24.5 1085.01 22.2727 1086.67C20.0455 1088.31 18.3636 1090.6 17.2273 1093.56C16.0909 1096.49 15.5227 1099.91 15.5227 1103.82ZM68.9773 1100.55C68.9773 1091.95 70.0909 1084.06 72.3182 1076.85C74.5682 1069.62 77.7727 1062.98 81.9318 1056.91H89.0227C87.3864 1059.16 85.8523 1061.93 84.4205 1065.23C83.0114 1068.5 81.7727 1072.1 80.7045 1076.03C79.6364 1079.94 78.7955 1083.99 78.1818 1088.17C77.5909 1092.35 77.2955 1096.48 77.2955 1100.55C77.2955 1105.95 77.8182 1111.44 78.8636 1117.01C79.9091 1122.58 81.3182 1127.75 83.0909 1132.52C84.8636 1137.3 86.8409 1141.18 89.0227 1144.18H81.9318C77.7727 1138.11 74.5682 1131.48 72.3182 1124.27C70.0909 1117.05 68.9773 1109.14 68.9773 1100.55ZM106.077 1149.64C104.713 1149.64 103.497 1149.52 102.429 1149.3C101.361 1149.09 100.622 1148.89 100.213 1148.68L102.259 1141.59C104.213 1142.09 105.94 1142.27 107.44 1142.14C108.94 1142 110.27 1141.33 111.429 1140.12C112.611 1138.94 113.69 1137.02 114.668 1134.36L116.168 1130.27L96.804 1077.64H105.531L119.986 1119.36H120.531L134.986 1077.64H143.713L121.486 1137.64C120.486 1140.34 119.247 1142.58 117.77 1144.35C116.293 1146.15 114.577 1147.48 112.622 1148.34C110.69 1149.2 108.509 1149.64 106.077 1149.64ZM166.06 1037.68V1152.5H159.241V1037.68H166.06ZM191.739 1077.64L204.284 1099.05L216.83 1077.64H226.102L209.193 1103.82L226.102 1130H216.83L204.284 1109.68L191.739 1130H182.466L199.102 1103.82L182.466 1077.64H191.739ZM249.582 1120.45L249.037 1124.14C248.651 1126.73 248.06 1129.5 247.264 1132.45C246.491 1135.41 245.685 1138.19 244.844 1140.81C244.003 1143.42 243.31 1145.5 242.764 1147.05H236.628C236.923 1145.59 237.31 1143.67 237.787 1141.28C238.264 1138.9 238.741 1136.23 239.219 1133.27C239.719 1130.34 240.128 1127.34 240.446 1124.27L240.855 1120.45H249.582ZM299.807 1092.23V1099.73H266.534V1092.23H299.807ZM304.716 1091.41V1099.73C304.716 1106.86 303.83 1112.74 302.057 1117.35C300.284 1121.97 297.784 1125.39 294.557 1127.61C291.33 1129.84 287.534 1130.95 283.17 1130.95C278.807 1130.95 274.989 1129.84 271.716 1127.61C268.443 1125.39 265.898 1121.97 264.08 1117.35C262.261 1112.74 261.352 1106.86 261.352 1099.73V1091.41C261.352 1084.32 262.25 1078.51 264.045 1073.99C265.841 1069.47 268.364 1066.12 271.614 1063.97C274.864 1061.81 278.67 1060.73 283.034 1060.73C287.443 1060.73 291.273 1061.81 294.523 1063.97C297.773 1066.12 300.284 1069.47 302.057 1073.99C303.83 1078.51 304.716 1084.32 304.716 1091.41ZM296.534 1101.23V1089.91C296.534 1085.23 295.966 1081.25 294.83 1077.98C293.693 1074.7 292.114 1072.22 290.091 1070.51C288.068 1068.81 285.716 1067.95 283.034 1067.95C279.08 1067.95 275.818 1069.86 273.25 1073.68C270.682 1077.48 269.398 1082.89 269.398 1089.91V1101.23C269.398 1108.25 270.705 1113.76 273.318 1117.76C275.932 1121.74 279.216 1123.73 283.17 1123.73C285.852 1123.73 288.193 1122.83 290.193 1121.03C292.193 1119.24 293.75 1116.66 294.864 1113.3C295.977 1109.93 296.534 1105.91 296.534 1101.23ZM333.514 1100.55C333.514 1109.14 332.389 1117.05 330.139 1124.27C327.912 1131.48 324.719 1138.11 320.56 1144.18H313.469C315.105 1141.93 316.628 1139.16 318.037 1135.86C319.469 1132.59 320.719 1129 321.787 1125.09C322.855 1121.16 323.685 1117.1 324.276 1112.92C324.889 1108.72 325.196 1104.59 325.196 1100.55C325.196 1095.14 324.673 1089.65 323.628 1084.08C322.582 1078.51 321.173 1073.34 319.401 1068.57C317.628 1063.8 315.651 1059.91 313.469 1056.91H320.56C324.719 1062.98 327.912 1069.62 330.139 1076.85C332.389 1084.06 333.514 1091.95 333.514 1100.55Z" fill="#2B2A2B"/>
<rect x="1102" y="198" width="360" height="360" rx="180" fill="#D9D9D9"/>
<rect x="1099" y="195" width="366" height="366" rx="183" stroke="#404040" stroke-opacity="0.352941" stroke-width="6"/>
<path d="M1304.35 374.136V384.136H1259.98V374.136H1304.35ZM1310.89 373.045V384.136C1310.89 393.652 1309.71 401.485 1307.35 407.636C1304.98 413.788 1301.65 418.348 1297.35 421.318C1293.04 424.288 1287.98 425.773 1282.16 425.773C1276.35 425.773 1271.26 424.288 1266.89 421.318C1262.53 418.348 1259.13 413.788 1256.71 407.636C1254.29 401.485 1253.07 393.652 1253.07 384.136V373.045C1253.07 363.591 1254.27 355.848 1256.66 349.818C1259.06 343.788 1262.42 339.333 1266.76 336.455C1271.09 333.576 1276.16 332.136 1281.98 332.136C1287.86 332.136 1292.97 333.576 1297.3 336.455C1301.63 339.333 1304.98 343.788 1307.35 349.818C1309.71 355.848 1310.89 363.591 1310.89 373.045ZM1299.98 386.136V371.045C1299.98 364.803 1299.23 359.5 1297.71 355.136C1296.2 350.773 1294.09 347.455 1291.39 345.182C1288.7 342.909 1285.56 341.773 1281.98 341.773C1276.71 341.773 1272.36 344.318 1268.94 349.409C1265.51 354.47 1263.8 361.682 1263.8 371.045V386.136C1263.8 395.5 1265.54 402.848 1269.03 408.182C1272.51 413.485 1276.89 416.136 1282.16 416.136C1285.74 416.136 1288.86 414.939 1291.53 412.545C1294.2 410.152 1296.27 406.712 1297.76 402.227C1299.24 397.742 1299.98 392.379 1299.98 386.136Z" fill="#2B2A2B"/>
</svg>
