<svg width="1683" height="1606" viewBox="0 0 1683 1606" fill="none" xmlns="http://www.w3.org/2000/svg">
<rect x="394" y="331" width="360" height="360" rx="180" fill="#55A49F"/>
<rect x="391" y="328" width="366" height="366" rx="183" stroke="#404040" stroke-opacity="0.352941" stroke-width="6"/>
<path d="M547.193 557.5V549.318L586.83 498.409V497.682H548.466V487.682H600.648V496.227L562.102 546.773V547.5H601.92V557.5H547.193Z" fill="#2B2A2B"/>
<path d="M1510.41 745.636V673.636H1518.18V681.955H1519.14C1519.73 681.045 1520.55 679.886 1521.59 678.477C1522.66 677.045 1524.18 675.773 1526.16 674.659C1528.16 673.523 1530.87 672.955 1534.27 672.955C1538.68 672.955 1542.57 674.057 1545.93 676.261C1549.3 678.466 1551.92 681.591 1553.81 685.636C1555.69 689.682 1556.64 694.455 1556.64 699.955C1556.64 705.5 1555.69 710.307 1553.81 714.375C1551.92 718.42 1549.31 721.557 1545.97 723.784C1542.63 725.989 1538.77 727.091 1534.41 727.091C1531.05 727.091 1528.35 726.534 1526.33 725.42C1524.31 724.284 1522.75 723 1521.66 721.568C1520.57 720.114 1519.73 718.909 1519.14 717.955H1518.46V745.636H1510.41ZM1518.32 699.818C1518.32 703.773 1518.9 707.261 1520.06 710.284C1521.22 713.284 1522.91 715.636 1525.14 717.341C1527.37 719.023 1530.09 719.864 1533.32 719.864C1536.68 719.864 1539.49 718.977 1541.74 717.205C1544.01 715.409 1545.72 713 1546.85 709.977C1548.01 706.932 1548.59 703.545 1548.59 699.818C1548.59 696.136 1548.02 692.818 1546.89 689.864C1545.77 686.886 1544.08 684.534 1541.81 682.807C1539.56 681.057 1536.73 680.182 1533.32 680.182C1530.05 680.182 1527.3 681.011 1525.07 682.67C1522.84 684.307 1521.16 686.602 1520.02 689.557C1518.89 692.489 1518.32 695.909 1518.32 699.818ZM1571.77 696.545C1571.77 687.955 1572.89 680.057 1575.12 672.852C1577.37 665.625 1580.57 658.977 1584.73 652.909H1591.82C1590.18 655.159 1588.65 657.932 1587.22 661.227C1585.81 664.5 1584.57 668.102 1583.5 672.034C1582.43 675.943 1581.59 679.989 1580.98 684.17C1580.39 688.352 1580.09 692.477 1580.09 696.545C1580.09 701.955 1580.62 707.443 1581.66 713.011C1582.71 718.58 1584.12 723.75 1585.89 728.523C1587.66 733.295 1589.64 737.182 1591.82 740.182H1584.73C1580.57 734.114 1577.37 727.477 1575.12 720.273C1572.89 713.045 1571.77 705.136 1571.77 696.545ZM1639.01 688.227V695.727H1605.74V688.227H1639.01ZM1643.92 687.409V695.727C1643.92 702.864 1643.03 708.739 1641.26 713.352C1639.49 717.966 1636.99 721.386 1633.76 723.614C1630.53 725.841 1626.74 726.955 1622.37 726.955C1618.01 726.955 1614.19 725.841 1610.92 723.614C1607.65 721.386 1605.1 717.966 1603.28 713.352C1601.46 708.739 1600.56 702.864 1600.56 695.727V687.409C1600.56 680.318 1601.45 674.511 1603.25 669.989C1605.04 665.466 1607.57 662.125 1610.82 659.966C1614.07 657.807 1617.87 656.727 1622.24 656.727C1626.65 656.727 1630.48 657.807 1633.73 659.966C1636.98 662.125 1639.49 665.466 1641.26 669.989C1643.03 674.511 1643.92 680.318 1643.92 687.409ZM1635.74 697.227V685.909C1635.74 681.227 1635.17 677.25 1634.03 673.977C1632.9 670.705 1631.32 668.216 1629.29 666.511C1627.27 664.807 1624.92 663.955 1622.24 663.955C1618.28 663.955 1615.02 665.864 1612.45 669.682C1609.88 673.477 1608.6 678.886 1608.6 685.909V697.227C1608.6 704.25 1609.91 709.761 1612.52 713.761C1615.13 717.739 1618.42 719.727 1622.37 719.727C1625.06 719.727 1627.4 718.83 1629.4 717.034C1631.4 715.239 1632.95 712.659 1634.07 709.295C1635.18 705.932 1635.74 701.909 1635.74 697.227ZM1672.72 696.545C1672.72 705.136 1671.59 713.045 1669.34 720.273C1667.12 727.477 1663.92 734.114 1659.76 740.182H1652.67C1654.31 737.932 1655.83 735.159 1657.24 731.864C1658.67 728.591 1659.92 725 1660.99 721.091C1662.06 717.159 1662.89 713.102 1663.48 708.92C1664.09 704.716 1664.4 700.591 1664.4 696.545C1664.4 691.136 1663.88 685.648 1662.83 680.08C1661.79 674.511 1660.38 669.341 1658.6 664.568C1656.83 659.795 1654.85 655.909 1652.67 652.909H1659.76C1663.92 658.977 1667.12 665.625 1669.34 672.852C1671.59 680.057 1672.72 687.955 1672.72 696.545Z" fill="#2B2A2B"/>
<path d="M574 1211L602.868 1161H545.132L574 1211ZM574 720H569V1166H574H579V720H574Z" fill="#2B2A2B"/>
<path d="M724 1277L779.454 1260.93L737.81 1220.94L724 1277ZM1135 849L1131.39 845.537L751.562 1241.08L755.169 1244.54L758.775 1248.01L1138.61 852.463L1135 849Z" fill="#2B2A2B"/>
<path d="M403 656L374.132 706L431.867 706L403 656ZM403 1277L408 1277L408 1267.3L403 1267.3L398 1267.3L398 1277L403 1277ZM403 1247.89L408 1247.89L408 1228.48L403 1228.48L398 1228.48L398 1247.89L403 1247.89ZM403 1209.08L408 1209.08L408 1189.67L403 1189.67L398 1189.67L398 1209.08L403 1209.08ZM403 1170.27L408 1170.27L408 1150.86L403 1150.86L398 1150.86L398 1170.27L403 1170.27ZM403 1131.45L408 1131.45L408 1112.05L403 1112.05L398 1112.05L398 1131.45L403 1131.45ZM403 1092.64L408 1092.64L408 1073.23L403 1073.23L398 1073.23L398 1092.64L403 1092.64ZM403 1053.83L408 1053.83L408 1034.42L403 1034.42L398 1034.42L398 1053.83L403 1053.83ZM403 1015.02L408 1015.02L408 995.609L403 995.609L398 995.609L398 1015.02L403 1015.02ZM403 976.203L408 976.203L408 956.797L403 956.797L398 956.797L398 976.203L403 976.203ZM403 937.391L408 937.391L408 917.984L403 917.984L398 917.984L398 937.391L403 937.391ZM403 898.578L408 898.578L408 879.172L403 879.172L398 879.172L398 898.578L403 898.578ZM403 859.766L408 859.766L408 840.359L403 840.359L398 840.359L398 859.766L403 859.766ZM403 820.953L408 820.953L408 801.547L403 801.547L398 801.547L398 820.953L403 820.953ZM403 782.141L408 782.141L408 762.734L403 762.734L398 762.734L398 782.141L403 782.141ZM403 743.328L408 743.328L408 723.922L403 723.922L398 723.922L398 743.328L403 743.328ZM403 704.516L408 704.516L408 685.109L403 685.109L398 685.109L398 704.516L403 704.516ZM403 656L374.132 706L431.867 706L403 656ZM403 1277L408 1277L408 1267.3L403 1267.3L398 1267.3L398 1277L403 1277ZM403 1247.89L408 1247.89L408 1228.48L403 1228.48L398 1228.48L398 1247.89L403 1247.89ZM403 1209.08L408 1209.08L408 1189.67L403 1189.67L398 1189.67L398 1209.08L403 1209.08ZM403 1170.27L408 1170.27L408 1150.86L403 1150.86L398 1150.86L398 1170.27L403 1170.27ZM403 1131.45L408 1131.45L408 1112.05L403 1112.05L398 1112.05L398 1131.45L403 1131.45ZM403 1092.64L408 1092.64L408 1073.23L403 1073.23L398 1073.23L398 1092.64L403 1092.64ZM403 1053.83L408 1053.83L408 1034.42L403 1034.42L398 1034.42L398 1053.83L403 1053.83ZM403 1015.02L408 1015.02L408 995.609L403 995.609L398 995.609L398 1015.02L403 1015.02ZM403 976.203L408 976.203L408 956.797L403 956.797L398 956.797L398 976.203L403 976.203ZM403 937.391L408 937.391L408 917.984L403 917.984L398 917.984L398 937.391L403 937.391ZM403 898.578L408 898.578L408 879.172L403 879.172L398 879.172L398 898.578L403 898.578ZM403 859.766L408 859.766L408 840.359L403 840.359L398 840.359L398 859.766L403 859.766ZM403 820.953L408 820.953L408 801.547L403 801.547L398 801.547L398 820.953L403 820.953ZM403 782.141L408 782.141L408 762.734L403 762.734L398 762.734L398 782.141L403 782.141ZM403 743.328L408 743.328L408 723.922L403 723.922L398 723.922L398 743.328L403 743.328ZM403 704.516L408 704.516L408 685.109L403 685.109L398 685.109L398 704.516L403 704.516Z" fill="#2B2A2B"/>
<path d="M779 558L820.972 597.645L834.319 541.474L779 558ZM1082 630L1083.16 625.135L1073.69 622.885L1072.53 627.75L1071.38 632.615L1080.84 634.865L1082 630ZM1053.59 623.25L1054.75 618.385L1035.81 613.885L1034.66 618.75L1033.5 623.615L1052.44 628.115L1053.59 623.25ZM1015.72 614.25L1016.87 609.385L997.937 604.885L996.781 609.75L995.625 614.615L1014.56 619.115L1015.72 614.25ZM977.844 605.25L979 600.385L960.062 595.885L958.906 600.75L957.75 605.615L976.688 610.115L977.844 605.25ZM939.969 596.25L941.125 591.385L922.187 586.885L921.031 591.75L919.875 596.615L938.813 601.115L939.969 596.25ZM902.094 587.25L903.25 582.385L884.312 577.885L883.156 582.75L882 587.615L900.938 592.115L902.094 587.25ZM864.219 578.25L865.375 573.385L846.437 568.885L845.281 573.75L844.125 578.615L863.063 583.115L864.219 578.25ZM826.344 569.25L827.5 564.385L808.562 559.885L807.406 564.75L806.25 569.615L825.188 574.115L826.344 569.25ZM779 558L820.972 597.645L834.319 541.474L779 558ZM1082 630L1083.16 625.135L1073.69 622.885L1072.53 627.75L1071.38 632.615L1080.84 634.865L1082 630ZM1053.59 623.25L1054.75 618.385L1035.81 613.885L1034.66 618.75L1033.5 623.615L1052.44 628.115L1053.59 623.25ZM1015.72 614.25L1016.87 609.385L997.937 604.885L996.781 609.75L995.625 614.615L1014.56 619.115L1015.72 614.25ZM977.844 605.25L979 600.385L960.062 595.885L958.906 600.75L957.75 605.615L976.688 610.115L977.844 605.25ZM939.969 596.25L941.125 591.385L922.187 586.885L921.031 591.75L919.875 596.615L938.813 601.115L939.969 596.25ZM902.094 587.25L903.25 582.385L884.312 577.885L883.156 582.75L882 587.615L900.938 592.115L902.094 587.25ZM864.219 578.25L865.375 573.385L846.437 568.885L845.281 573.75L844.125 578.615L863.063 583.115L864.219 578.25ZM826.344 569.25L827.5 564.385L808.562 559.885L807.406 564.75L806.25 569.615L825.188 574.115L826.344 569.25Z" fill="#2B2A2B"/>
<rect x="394" y="1240" width="360" height="360" rx="180" fill="#D97192"/>
<rect x="391" y="1237" width="366" height="366" rx="183" stroke="#404040" stroke-opacity="0.352941" stroke-width="6"/>
<path d="M557.256 1396.68L573.983 1425.23L590.71 1396.68H603.074L580.528 1431.59L603.074 1466.5H590.71L573.983 1439.41L557.256 1466.5H544.892L567.074 1431.59L544.892 1396.68H557.256Z" fill="#2B2A2B"/>
<path d="M7.36364 1474.64V1402.64H15.1364V1410.95H16.0909C16.6818 1410.05 17.5 1408.89 18.5455 1407.48C19.6136 1406.05 21.1364 1404.77 23.1136 1403.66C25.1136 1402.52 27.8182 1401.95 31.2273 1401.95C35.6364 1401.95 39.5227 1403.06 42.8864 1405.26C46.25 1407.47 48.875 1410.59 50.7614 1414.64C52.6477 1418.68 53.5909 1423.45 53.5909 1428.95C53.5909 1434.5 52.6477 1439.31 50.7614 1443.38C48.875 1447.42 46.2614 1450.56 42.9205 1452.78C39.5795 1454.99 35.7273 1456.09 31.3636 1456.09C28 1456.09 25.3068 1455.53 23.2841 1454.42C21.2614 1453.28 19.7045 1452 18.6136 1450.57C17.5227 1449.11 16.6818 1447.91 16.0909 1446.95H15.4091V1474.64H7.36364ZM15.2727 1428.82C15.2727 1432.77 15.8523 1436.26 17.0114 1439.28C18.1705 1442.28 19.8636 1444.64 22.0909 1446.34C24.3182 1448.02 27.0455 1448.86 30.2727 1448.86C33.6364 1448.86 36.4432 1447.98 38.6932 1446.2C40.9659 1444.41 42.6705 1442 43.8068 1438.98C44.9659 1435.93 45.5455 1432.55 45.5455 1428.82C45.5455 1425.14 44.9773 1421.82 43.8409 1418.86C42.7273 1415.89 41.0341 1413.53 38.7614 1411.81C36.5114 1410.06 33.6818 1409.18 30.2727 1409.18C27 1409.18 24.25 1410.01 22.0227 1411.67C19.7955 1413.31 18.1136 1415.6 16.9773 1418.56C15.8409 1421.49 15.2727 1424.91 15.2727 1428.82ZM68.7273 1425.55C68.7273 1416.95 69.8409 1409.06 72.0682 1401.85C74.3182 1394.62 77.5227 1387.98 81.6818 1381.91H88.7727C87.1364 1384.16 85.6023 1386.93 84.1705 1390.23C82.7614 1393.5 81.5227 1397.1 80.4545 1401.03C79.3864 1404.94 78.5455 1408.99 77.9318 1413.17C77.3409 1417.35 77.0455 1421.48 77.0455 1425.55C77.0455 1430.95 77.5682 1436.44 78.6136 1442.01C79.6591 1447.58 81.0682 1452.75 82.8409 1457.52C84.6136 1462.3 86.5909 1466.18 88.7727 1469.18H81.6818C77.5227 1463.11 74.3182 1456.48 72.0682 1449.27C69.8409 1442.05 68.7273 1434.14 68.7273 1425.55ZM106.645 1402.64L119.19 1424.05L131.736 1402.64H141.009L124.099 1428.82L141.009 1455H131.736L119.19 1434.68L106.645 1455H97.3722L114.009 1428.82L97.3722 1402.64H106.645ZM164.216 1362.68V1477.5H157.398V1362.68H164.216ZM182.395 1455V1448.86L212.122 1410.68V1410.14H183.349V1402.64H222.486V1409.05L193.577 1446.95V1447.5H223.44V1455H182.395ZM247.832 1445.45L247.287 1449.14C246.901 1451.73 246.31 1454.5 245.514 1457.45C244.741 1460.41 243.935 1463.19 243.094 1465.81C242.253 1468.42 241.56 1470.5 241.014 1472.05H234.878C235.173 1470.59 235.56 1468.67 236.037 1466.28C236.514 1463.9 236.991 1461.23 237.469 1458.27C237.969 1455.34 238.378 1452.34 238.696 1449.27L239.105 1445.45H247.832ZM298.057 1417.23V1424.73H264.784V1417.23H298.057ZM302.966 1416.41V1424.73C302.966 1431.86 302.08 1437.74 300.307 1442.35C298.534 1446.97 296.034 1450.39 292.807 1452.61C289.58 1454.84 285.784 1455.95 281.42 1455.95C277.057 1455.95 273.239 1454.84 269.966 1452.61C266.693 1450.39 264.148 1446.97 262.33 1442.35C260.511 1437.74 259.602 1431.86 259.602 1424.73V1416.41C259.602 1409.32 260.5 1403.51 262.295 1398.99C264.091 1394.47 266.614 1391.12 269.864 1388.97C273.114 1386.81 276.92 1385.73 281.284 1385.73C285.693 1385.73 289.523 1386.81 292.773 1388.97C296.023 1391.12 298.534 1394.47 300.307 1398.99C302.08 1403.51 302.966 1409.32 302.966 1416.41ZM294.784 1426.23V1414.91C294.784 1410.23 294.216 1406.25 293.08 1402.98C291.943 1399.7 290.364 1397.22 288.341 1395.51C286.318 1393.81 283.966 1392.95 281.284 1392.95C277.33 1392.95 274.068 1394.86 271.5 1398.68C268.932 1402.48 267.648 1407.89 267.648 1414.91V1426.23C267.648 1433.25 268.955 1438.76 271.568 1442.76C274.182 1446.74 277.466 1448.73 281.42 1448.73C284.102 1448.73 286.443 1447.83 288.443 1446.03C290.443 1444.24 292 1441.66 293.114 1438.3C294.227 1434.93 294.784 1430.91 294.784 1426.23ZM331.764 1425.55C331.764 1434.14 330.639 1442.05 328.389 1449.27C326.162 1456.48 322.969 1463.11 318.81 1469.18H311.719C313.355 1466.93 314.878 1464.16 316.287 1460.86C317.719 1457.59 318.969 1454 320.037 1450.09C321.105 1446.16 321.935 1442.1 322.526 1437.92C323.139 1433.72 323.446 1429.59 323.446 1425.55C323.446 1420.14 322.923 1414.65 321.878 1409.08C320.832 1403.51 319.423 1398.34 317.651 1393.57C315.878 1388.8 313.901 1384.91 311.719 1381.91H318.81C322.969 1387.98 326.162 1394.62 328.389 1401.85C330.639 1409.06 331.764 1416.95 331.764 1425.55Z" fill="#2B2A2B"/>
<rect x="1101" y="523" width="360" height="360" rx="180" fill="#D9D9D9"/>
<rect x="1098" y="520" width="366" height="366" rx="183" stroke="#404040" stroke-opacity="0.352941" stroke-width="6"/>
<path d="M1303.35 699.136V709.136H1258.98V699.136H1303.35ZM1309.89 698.045V709.136C1309.89 718.652 1308.71 726.485 1306.35 732.636C1303.98 738.788 1300.65 743.348 1296.35 746.318C1292.04 749.288 1286.98 750.773 1281.16 750.773C1275.35 750.773 1270.26 749.288 1265.89 746.318C1261.53 743.348 1258.13 738.788 1255.71 732.636C1253.29 726.485 1252.07 718.652 1252.07 709.136V698.045C1252.07 688.591 1253.27 680.848 1255.66 674.818C1258.06 668.788 1261.42 664.333 1265.76 661.455C1270.09 658.576 1275.16 657.136 1280.98 657.136C1286.86 657.136 1291.97 658.576 1296.3 661.455C1300.63 664.333 1303.98 668.788 1306.35 674.818C1308.71 680.848 1309.89 688.591 1309.89 698.045ZM1298.98 711.136V696.045C1298.98 689.803 1298.23 684.5 1296.71 680.136C1295.2 675.773 1293.09 672.455 1290.39 670.182C1287.7 667.909 1284.56 666.773 1280.98 666.773C1275.71 666.773 1271.36 669.318 1267.94 674.409C1264.51 679.47 1262.8 686.682 1262.8 696.045V711.136C1262.8 720.5 1264.54 727.848 1268.03 733.182C1271.51 738.485 1275.89 741.136 1281.16 741.136C1284.74 741.136 1287.86 739.939 1290.53 737.545C1293.2 735.152 1295.27 731.712 1296.76 727.227C1298.24 722.742 1298.98 717.379 1298.98 711.136Z" fill="#2B2A2B"/>
<path d="M423.364 133.636V61.6364H431.136V69.9545H432.091C432.682 69.0455 433.5 67.8864 434.545 66.4773C435.614 65.0455 437.136 63.7727 439.114 62.6591C441.114 61.5227 443.818 60.9545 447.227 60.9545C451.636 60.9545 455.523 62.0568 458.886 64.2614C462.25 66.4659 464.875 69.5909 466.761 73.6364C468.648 77.6818 469.591 82.4545 469.591 87.9545C469.591 93.5 468.648 98.3068 466.761 102.375C464.875 106.42 462.261 109.557 458.92 111.784C455.58 113.989 451.727 115.091 447.364 115.091C444 115.091 441.307 114.534 439.284 113.42C437.261 112.284 435.705 111 434.614 109.568C433.523 108.114 432.682 106.909 432.091 105.955H431.409V133.636H423.364ZM431.273 87.8182C431.273 91.7727 431.852 95.2614 433.011 98.2841C434.17 101.284 435.864 103.636 438.091 105.341C440.318 107.023 443.045 107.864 446.273 107.864C449.636 107.864 452.443 106.977 454.693 105.205C456.966 103.409 458.67 101 459.807 97.9773C460.966 94.9318 461.545 91.5455 461.545 87.8182C461.545 84.1364 460.977 80.8182 459.841 77.8636C458.727 74.8864 457.034 72.5341 454.761 70.8068C452.511 69.0568 449.682 68.1818 446.273 68.1818C443 68.1818 440.25 69.0114 438.023 70.6705C435.795 72.3068 434.114 74.6023 432.977 77.5568C431.841 80.4886 431.273 83.9091 431.273 87.8182ZM484.727 84.5455C484.727 75.9545 485.841 68.0568 488.068 60.8523C490.318 53.625 493.523 46.9773 497.682 40.9091H504.773C503.136 43.1591 501.602 45.9318 500.17 49.2273C498.761 52.5 497.523 56.1023 496.455 60.0341C495.386 63.9432 494.545 67.9886 493.932 72.1705C493.341 76.3523 493.045 80.4773 493.045 84.5455C493.045 89.9545 493.568 95.4432 494.614 101.011C495.659 106.58 497.068 111.75 498.841 116.523C500.614 121.295 502.591 125.182 504.773 128.182H497.682C493.523 122.114 490.318 115.477 488.068 108.273C485.841 101.045 484.727 93.1364 484.727 84.5455ZM515.145 114V107.864L544.872 69.6818V69.1364H516.099V61.6364H555.236V68.0455L526.327 105.955V106.5H556.19V114H515.145ZM580.31 21.6818V136.5H573.491V21.6818H580.31ZM605.989 61.6364L618.534 83.0455L631.08 61.6364H640.352L623.443 87.8182L640.352 114H631.08L618.534 93.6818L605.989 114H596.716L613.352 87.8182L596.716 61.6364H605.989ZM663.832 104.455L663.287 108.136C662.901 110.727 662.31 113.5 661.514 116.455C660.741 119.409 659.935 122.193 659.094 124.807C658.253 127.42 657.56 129.5 657.014 131.045H650.878C651.173 129.591 651.56 127.67 652.037 125.284C652.514 122.898 652.991 120.227 653.469 117.273C653.969 114.341 654.378 111.341 654.696 108.273L655.105 104.455H663.832ZM714.057 76.2273V83.7273H680.784V76.2273H714.057ZM718.966 75.4091V83.7273C718.966 90.8636 718.08 96.7386 716.307 101.352C714.534 105.966 712.034 109.386 708.807 111.614C705.58 113.841 701.784 114.955 697.42 114.955C693.057 114.955 689.239 113.841 685.966 111.614C682.693 109.386 680.148 105.966 678.33 101.352C676.511 96.7386 675.602 90.8636 675.602 83.7273V75.4091C675.602 68.3182 676.5 62.5114 678.295 57.9886C680.091 53.4659 682.614 50.125 685.864 47.9659C689.114 45.8068 692.92 44.7273 697.284 44.7273C701.693 44.7273 705.523 45.8068 708.773 47.9659C712.023 50.125 714.534 53.4659 716.307 57.9886C718.08 62.5114 718.966 68.3182 718.966 75.4091ZM710.784 85.2273V73.9091C710.784 69.2273 710.216 65.25 709.08 61.9773C707.943 58.7045 706.364 56.2159 704.341 54.5114C702.318 52.8068 699.966 51.9545 697.284 51.9545C693.33 51.9545 690.068 53.8636 687.5 57.6818C684.932 61.4773 683.648 66.8864 683.648 73.9091V85.2273C683.648 92.25 684.955 97.7614 687.568 101.761C690.182 105.739 693.466 107.727 697.42 107.727C700.102 107.727 702.443 106.83 704.443 105.034C706.443 103.239 708 100.659 709.114 97.2955C710.227 93.9318 710.784 89.9091 710.784 85.2273ZM747.764 84.5455C747.764 93.1364 746.639 101.045 744.389 108.273C742.162 115.477 738.969 122.114 734.81 128.182H727.719C729.355 125.932 730.878 123.159 732.287 119.864C733.719 116.591 734.969 113 736.037 109.091C737.105 105.159 737.935 101.102 738.526 96.9205C739.139 92.7159 739.446 88.5909 739.446 84.5455C739.446 79.1364 738.923 73.6477 737.878 68.0795C736.832 62.5114 735.423 57.3409 733.651 52.5682C731.878 47.7955 729.901 43.9091 727.719 40.9091H734.81C738.969 46.9773 742.162 53.625 744.389 60.8523C746.639 68.0568 747.764 75.9545 747.764 84.5455Z" fill="#2B2A2B"/>
<path d="M504.364 297.636V225.636H512.136V233.955H513.091C513.682 233.045 514.5 231.886 515.545 230.477C516.614 229.045 518.136 227.773 520.114 226.659C522.114 225.523 524.818 224.955 528.227 224.955C532.636 224.955 536.523 226.057 539.886 228.261C543.25 230.466 545.875 233.591 547.761 237.636C549.648 241.682 550.591 246.455 550.591 251.955C550.591 257.5 549.648 262.307 547.761 266.375C545.875 270.42 543.261 273.557 539.92 275.784C536.58 277.989 532.727 279.091 528.364 279.091C525 279.091 522.307 278.534 520.284 277.42C518.261 276.284 516.705 275 515.614 273.568C514.523 272.114 513.682 270.909 513.091 269.955H512.409V297.636H504.364ZM512.273 251.818C512.273 255.773 512.852 259.261 514.011 262.284C515.17 265.284 516.864 267.636 519.091 269.341C521.318 271.023 524.045 271.864 527.273 271.864C530.636 271.864 533.443 270.977 535.693 269.205C537.966 267.409 539.67 265 540.807 261.977C541.966 258.932 542.545 255.545 542.545 251.818C542.545 248.136 541.977 244.818 540.841 241.864C539.727 238.886 538.034 236.534 535.761 234.807C533.511 233.057 530.682 232.182 527.273 232.182C524 232.182 521.25 233.011 519.023 234.67C516.795 236.307 515.114 238.602 513.977 241.557C512.841 244.489 512.273 247.909 512.273 251.818ZM565.727 248.545C565.727 239.955 566.841 232.057 569.068 224.852C571.318 217.625 574.523 210.977 578.682 204.909H585.773C584.136 207.159 582.602 209.932 581.17 213.227C579.761 216.5 578.523 220.102 577.455 224.034C576.386 227.943 575.545 231.989 574.932 236.17C574.341 240.352 574.045 244.477 574.045 248.545C574.045 253.955 574.568 259.443 575.614 265.011C576.659 270.58 578.068 275.75 579.841 280.523C581.614 285.295 583.591 289.182 585.773 292.182H578.682C574.523 286.114 571.318 279.477 569.068 272.273C566.841 265.045 565.727 257.136 565.727 248.545ZM596.145 278V271.864L625.872 233.682V233.136H597.099V225.636H636.236V232.045L607.327 269.955V270.5H637.19V278H596.145ZM666.764 248.545C666.764 257.136 665.639 265.045 663.389 272.273C661.162 279.477 657.969 286.114 653.81 292.182H646.719C648.355 289.932 649.878 287.159 651.287 283.864C652.719 280.591 653.969 277 655.037 273.091C656.105 269.159 656.935 265.102 657.526 260.92C658.139 256.716 658.446 252.591 658.446 248.545C658.446 243.136 657.923 237.648 656.878 232.08C655.832 226.511 654.423 221.341 652.651 216.568C650.878 211.795 648.901 207.909 646.719 204.909H653.81C657.969 210.977 661.162 217.625 663.389 224.852C665.639 232.057 666.764 239.955 666.764 248.545Z" fill="#2B2A2B"/>
<rect x="349" y="5" width="477" height="148" stroke="#2B2A2B" stroke-width="10" stroke-miterlimit="1.57213" stroke-dasharray="20 20"/>
</svg>
