<svg width="721" height="1402" viewBox="0 0 721 1402" fill="none" xmlns="http://www.w3.org/2000/svg">
<rect x="355" y="126.091" width="360" height="360" rx="180" fill="#D9D9D9"/>
<rect x="352" y="123.091" width="366" height="366" rx="183" stroke="#404040" stroke-opacity="0.352941" stroke-width="6"/>
<path d="M557.347 302.227V312.227H512.983V302.227H557.347ZM563.892 301.136V312.227C563.892 321.742 562.71 329.576 560.347 335.727C557.983 341.879 554.65 346.439 550.347 349.409C546.044 352.379 540.983 353.864 535.165 353.864C529.347 353.864 524.256 352.379 519.892 349.409C515.528 346.439 512.134 341.879 509.71 335.727C507.286 329.576 506.074 321.742 506.074 312.227V301.136C506.074 291.682 507.271 283.939 509.665 277.909C512.059 271.879 515.422 267.424 519.756 264.545C524.089 261.667 529.165 260.227 534.983 260.227C540.862 260.227 545.968 261.667 550.301 264.545C554.634 267.424 557.983 271.879 560.347 277.909C562.71 283.939 563.892 291.682 563.892 301.136ZM552.983 314.227V299.136C552.983 292.894 552.225 287.591 550.71 283.227C549.195 278.864 547.089 275.545 544.392 273.273C541.695 271 538.559 269.864 534.983 269.864C529.71 269.864 525.362 272.409 521.938 277.5C518.513 282.561 516.801 289.773 516.801 299.136V314.227C516.801 323.591 518.544 330.939 522.028 336.273C525.513 341.576 529.892 344.227 535.165 344.227C538.741 344.227 541.862 343.03 544.528 340.636C547.195 338.242 549.271 334.803 550.756 330.318C552.241 325.833 552.983 320.47 552.983 314.227Z" fill="#2B2A2B"/>
<path d="M535 1006.09L563.868 956.091H506.132L535 1006.09ZM535 515.091H530V961.091H535H540V515.091H535Z" fill="#2B2A2B"/>
<rect x="355" y="1035.09" width="360" height="360" rx="180" fill="#D97192"/>
<rect x="352" y="1032.09" width="366" height="366" rx="183" stroke="#404040" stroke-opacity="0.352941" stroke-width="6"/>
<path d="M518.256 1191.77L534.983 1220.32L551.71 1191.77H564.074L541.528 1226.68L564.074 1261.59H551.71L534.983 1234.5L518.256 1261.59H505.892L528.074 1226.68L505.892 1191.77H518.256Z" fill="#2B2A2B"/>
<path d="M7.78551 1269.73V1197.73H15.5582V1206.05H16.5128C17.1037 1205.14 17.9219 1203.98 18.9673 1202.57C20.0355 1201.14 21.5582 1199.86 23.5355 1198.75C25.5355 1197.61 28.2401 1197.05 31.6491 1197.05C36.0582 1197.05 39.9446 1198.15 43.3082 1200.35C46.6719 1202.56 49.2969 1205.68 51.1832 1209.73C53.0696 1213.77 54.0128 1218.55 54.0128 1224.05C54.0128 1229.59 53.0696 1234.4 51.1832 1238.47C49.2969 1242.51 46.6832 1245.65 43.3423 1247.87C40.0014 1250.08 36.1491 1251.18 31.7855 1251.18C28.4219 1251.18 25.7287 1250.62 23.706 1249.51C21.6832 1248.37 20.1264 1247.09 19.0355 1245.66C17.9446 1244.2 17.1037 1243 16.5128 1242.05H15.831V1269.73H7.78551ZM15.6946 1223.91C15.6946 1227.86 16.2741 1231.35 17.4332 1234.37C18.5923 1237.37 20.2855 1239.73 22.5128 1241.43C24.7401 1243.11 27.4673 1243.95 30.6946 1243.95C34.0582 1243.95 36.8651 1243.07 39.1151 1241.3C41.3878 1239.5 43.0923 1237.09 44.2287 1234.07C45.3878 1231.02 45.9673 1227.64 45.9673 1223.91C45.9673 1220.23 45.3991 1216.91 44.2628 1213.95C43.1491 1210.98 41.456 1208.62 39.1832 1206.9C36.9332 1205.15 34.1037 1204.27 30.6946 1204.27C27.4219 1204.27 24.6719 1205.1 22.4446 1206.76C20.2173 1208.4 18.5355 1210.69 17.3991 1213.65C16.2628 1216.58 15.6946 1220 15.6946 1223.91ZM69.1491 1220.64C69.1491 1212.05 70.2628 1204.15 72.4901 1196.94C74.7401 1189.72 77.9446 1183.07 82.1037 1177H89.1946C87.5582 1179.25 86.0241 1182.02 84.5923 1185.32C83.1832 1188.59 81.9446 1192.19 80.8764 1196.12C79.8082 1200.03 78.9673 1204.08 78.3537 1208.26C77.7628 1212.44 77.4673 1216.57 77.4673 1220.64C77.4673 1226.05 77.9901 1231.53 79.0355 1237.1C80.081 1242.67 81.4901 1247.84 83.2628 1252.61C85.0355 1257.39 87.0128 1261.27 89.1946 1264.27H82.1037C77.9446 1258.2 74.7401 1251.57 72.4901 1244.36C70.2628 1237.14 69.1491 1229.23 69.1491 1220.64ZM107.067 1197.73L119.612 1219.14L132.158 1197.73H141.43L124.521 1223.91L141.43 1250.09H132.158L119.612 1229.77L107.067 1250.09H97.794L114.43 1223.91L97.794 1197.73H107.067ZM164.638 1157.77V1272.59H157.82V1157.77H164.638ZM219.635 1212.32V1219.82H186.362V1212.32H219.635ZM224.544 1211.5V1219.82C224.544 1226.95 223.658 1232.83 221.885 1237.44C220.112 1242.06 217.612 1245.48 214.385 1247.7C211.158 1249.93 207.362 1251.05 202.999 1251.05C198.635 1251.05 194.817 1249.93 191.544 1247.7C188.271 1245.48 185.726 1242.06 183.908 1237.44C182.089 1232.83 181.18 1226.95 181.18 1219.82V1211.5C181.18 1204.41 182.078 1198.6 183.874 1194.08C185.669 1189.56 188.192 1186.22 191.442 1184.06C194.692 1181.9 198.499 1180.82 202.862 1180.82C207.271 1180.82 211.101 1181.9 214.351 1184.06C217.601 1186.22 220.112 1189.56 221.885 1194.08C223.658 1198.6 224.544 1204.41 224.544 1211.5ZM216.362 1221.32V1210C216.362 1205.32 215.794 1201.34 214.658 1198.07C213.521 1194.8 211.942 1192.31 209.919 1190.6C207.896 1188.9 205.544 1188.05 202.862 1188.05C198.908 1188.05 195.646 1189.95 193.078 1193.77C190.51 1197.57 189.226 1202.98 189.226 1210V1221.32C189.226 1228.34 190.533 1233.85 193.146 1237.85C195.76 1241.83 199.044 1243.82 202.999 1243.82C205.68 1243.82 208.021 1242.92 210.021 1241.12C212.021 1239.33 213.578 1236.75 214.692 1233.39C215.805 1230.02 216.362 1226 216.362 1221.32ZM253.342 1220.64C253.342 1229.23 252.217 1237.14 249.967 1244.36C247.74 1251.57 244.547 1258.2 240.388 1264.27H233.297C234.933 1262.02 236.456 1259.25 237.865 1255.95C239.297 1252.68 240.547 1249.09 241.615 1245.18C242.683 1241.25 243.513 1237.19 244.104 1233.01C244.717 1228.81 245.024 1224.68 245.024 1220.64C245.024 1215.23 244.501 1209.74 243.456 1204.17C242.411 1198.6 241.001 1193.43 239.229 1188.66C237.456 1183.89 235.479 1180 233.297 1177H240.388C244.547 1183.07 247.74 1189.72 249.967 1196.94C252.217 1204.15 253.342 1212.05 253.342 1220.64Z" fill="#2B2A2B"/>
<path d="M465.411 92.7272V20.7272H473.183V29.0454H474.138C474.729 28.1363 475.547 26.9772 476.592 25.5681C477.661 24.1363 479.183 22.8635 481.161 21.7499C483.161 20.6135 485.865 20.0454 489.274 20.0454C493.683 20.0454 497.57 21.1476 500.933 23.3522C504.297 25.5567 506.922 28.6817 508.808 32.7272C510.695 36.7726 511.638 41.5454 511.638 47.0454C511.638 52.5908 510.695 57.3976 508.808 61.4658C506.922 65.5113 504.308 68.6476 500.967 70.8749C497.626 73.0795 493.774 74.1817 489.411 74.1817C486.047 74.1817 483.354 73.6249 481.331 72.5113C479.308 71.3749 477.751 70.0908 476.661 68.659C475.57 67.2045 474.729 65.9999 474.138 65.0454H473.456V92.7272H465.411ZM473.32 46.909C473.32 50.8635 473.899 54.3522 475.058 57.3749C476.217 60.3749 477.911 62.7272 480.138 64.4317C482.365 66.1135 485.092 66.9545 488.32 66.9545C491.683 66.9545 494.49 66.0681 496.74 64.2954C499.013 62.4999 500.717 60.0908 501.854 57.0681C503.013 54.0226 503.592 50.6363 503.592 46.909C503.592 43.2272 503.024 39.909 501.888 36.9545C500.774 33.9772 499.081 31.6249 496.808 29.8976C494.558 28.1476 491.729 27.2726 488.32 27.2726C485.047 27.2726 482.297 28.1022 480.07 29.7613C477.842 31.3976 476.161 33.6931 475.024 36.6476C473.888 39.5795 473.32 42.9999 473.32 46.909ZM526.774 43.6363C526.774 35.0454 527.888 27.1476 530.115 19.9431C532.365 12.7158 535.57 6.06809 539.729 -9.34601e-05H546.82C545.183 2.24991 543.649 5.02263 542.217 8.31809C540.808 11.5908 539.57 15.1931 538.501 19.1249C537.433 23.034 536.592 27.0795 535.979 31.2613C535.388 35.4431 535.092 39.5681 535.092 43.6363C535.092 49.0454 535.615 54.534 536.661 60.1022C537.706 65.6704 539.115 70.8408 540.888 75.6135C542.661 80.3863 544.638 84.2726 546.82 87.2726H539.729C535.57 81.2045 532.365 74.5681 530.115 67.3635C527.888 60.1363 526.774 52.2272 526.774 43.6363ZM594.01 35.3181V42.8181H560.737V35.3181H594.01ZM598.919 34.4999V42.8181C598.919 49.9545 598.033 55.8295 596.26 60.4431C594.487 65.0567 591.987 68.4772 588.76 70.7045C585.533 72.9317 581.737 74.0454 577.374 74.0454C573.01 74.0454 569.192 72.9317 565.919 70.7045C562.646 68.4772 560.101 65.0567 558.283 60.4431C556.464 55.8295 555.555 49.9545 555.555 42.8181V34.4999C555.555 27.409 556.453 21.6022 558.249 17.0795C560.044 12.5567 562.567 9.21582 565.817 7.05673C569.067 4.89764 572.874 3.81809 577.237 3.81809C581.646 3.81809 585.476 4.89764 588.726 7.05673C591.976 9.21582 594.487 12.5567 596.26 17.0795C598.033 21.6022 598.919 27.409 598.919 34.4999ZM590.737 44.3181V32.9999C590.737 28.3181 590.169 24.3408 589.033 21.0681C587.896 17.7954 586.317 15.3067 584.294 13.6022C582.271 11.8976 579.919 11.0454 577.237 11.0454C573.283 11.0454 570.021 12.9545 567.453 16.7726C564.885 20.5681 563.601 25.9772 563.601 32.9999V44.3181C563.601 51.3408 564.908 56.8522 567.521 60.8522C570.135 64.8295 573.419 66.8181 577.374 66.8181C580.055 66.8181 582.396 65.9204 584.396 64.1249C586.396 62.3295 587.953 59.7499 589.067 56.3863C590.18 53.0226 590.737 48.9999 590.737 44.3181ZM627.717 43.6363C627.717 52.2272 626.592 60.1363 624.342 67.3635C622.115 74.5681 618.922 81.2045 614.763 87.2726H607.672C609.308 85.0226 610.831 82.2499 612.24 78.9545C613.672 75.6817 614.922 72.0908 615.99 68.1817C617.058 64.2499 617.888 60.1931 618.479 56.0113C619.092 51.8067 619.399 47.6817 619.399 43.6363C619.399 38.2272 618.876 32.7385 617.831 27.1704C616.786 21.6022 615.376 16.4317 613.604 11.659C611.831 6.88627 609.854 2.99991 607.672 -9.34601e-05H614.763C618.922 6.06809 622.115 12.7158 624.342 19.9431C626.592 27.1476 627.717 35.0454 627.717 43.6363Z" fill="#2B2A2B"/>
</svg>
