<svg width="2252" height="1620" viewBox="0 0 2252 1620" fill="none" xmlns="http://www.w3.org/2000/svg">
<rect x="963" y="331" width="360" height="360" rx="180" fill="#55A49F"/>
<rect x="960" y="328" width="366" height="366" rx="183" stroke="#404040" stroke-opacity="0.352941" stroke-width="6"/>
<path d="M1116.19 557.5V549.318L1155.83 498.409V497.682H1117.47V487.682H1169.65V496.227L1131.1 546.773V547.5H1170.92V557.5H1116.19Z" fill="#2B2A2B"/>
<path d="M2079.41 745.635V673.635H2087.18V681.954H2088.14C2088.73 681.044 2089.55 679.885 2090.59 678.476C2091.66 677.044 2093.18 675.772 2095.16 674.658C2097.16 673.522 2099.87 672.954 2103.27 672.954C2107.68 672.954 2111.57 674.056 2114.93 676.26C2118.3 678.465 2120.92 681.59 2122.81 685.635C2124.69 689.681 2125.64 694.454 2125.64 699.954C2125.64 705.499 2124.69 710.306 2122.81 714.374C2120.92 718.419 2118.31 721.556 2114.97 723.783C2111.63 725.988 2107.77 727.09 2103.41 727.09C2100.05 727.09 2097.35 726.533 2095.33 725.419C2093.31 724.283 2091.75 722.999 2090.66 721.567C2089.57 720.113 2088.73 718.908 2088.14 717.954H2087.46V745.635H2079.41ZM2087.32 699.817C2087.32 703.772 2087.9 707.26 2089.06 710.283C2090.22 713.283 2091.91 715.635 2094.14 717.34C2096.37 719.022 2099.09 719.863 2102.32 719.863C2105.68 719.863 2108.49 718.976 2110.74 717.204C2113.01 715.408 2114.72 712.999 2115.85 709.976C2117.01 706.931 2117.59 703.544 2117.59 699.817C2117.59 696.135 2117.02 692.817 2115.89 689.863C2114.77 686.885 2113.08 684.533 2110.81 682.806C2108.56 681.056 2105.73 680.181 2102.32 680.181C2099.05 680.181 2096.3 681.01 2094.07 682.669C2091.84 684.306 2090.16 686.601 2089.02 689.556C2087.89 692.488 2087.32 695.908 2087.32 699.817ZM2140.77 696.544C2140.77 687.954 2141.89 680.056 2144.12 672.851C2146.37 665.624 2149.57 658.976 2153.73 652.908H2160.82C2159.18 655.158 2157.65 657.931 2156.22 661.226C2154.81 664.499 2153.57 668.101 2152.5 672.033C2151.43 675.942 2150.59 679.988 2149.98 684.169C2149.39 688.351 2149.09 692.476 2149.09 696.544C2149.09 701.954 2149.62 707.442 2150.66 713.01C2151.71 718.579 2153.12 723.749 2154.89 728.522C2156.66 733.294 2158.64 737.181 2160.82 740.181H2153.73C2149.57 734.113 2146.37 727.476 2144.12 720.272C2141.89 713.044 2140.77 705.135 2140.77 696.544ZM2208.01 688.226V695.726H2174.74V688.226H2208.01ZM2212.92 687.408V695.726C2212.92 702.863 2212.03 708.738 2210.26 713.351C2208.49 717.965 2205.99 721.385 2202.76 723.613C2199.53 725.84 2195.74 726.954 2191.37 726.954C2187.01 726.954 2183.19 725.84 2179.92 723.613C2176.65 721.385 2174.1 717.965 2172.28 713.351C2170.46 708.738 2169.56 702.863 2169.56 695.726V687.408C2169.56 680.317 2170.45 674.51 2172.25 669.988C2174.04 665.465 2176.57 662.124 2179.82 659.965C2183.07 657.806 2186.87 656.726 2191.24 656.726C2195.65 656.726 2199.48 657.806 2202.73 659.965C2205.98 662.124 2208.49 665.465 2210.26 669.988C2212.03 674.51 2212.92 680.317 2212.92 687.408ZM2204.74 697.226V685.908C2204.74 681.226 2204.17 677.249 2203.03 673.976C2201.9 670.704 2200.32 668.215 2198.29 666.51C2196.27 664.806 2193.92 663.954 2191.24 663.954C2187.28 663.954 2184.02 665.863 2181.45 669.681C2178.88 673.476 2177.6 678.885 2177.6 685.908V697.226C2177.6 704.249 2178.91 709.76 2181.52 713.76C2184.13 717.738 2187.42 719.726 2191.37 719.726C2194.06 719.726 2196.4 718.829 2198.4 717.033C2200.4 715.238 2201.95 712.658 2203.07 709.294C2204.18 705.931 2204.74 701.908 2204.74 697.226ZM2241.72 696.544C2241.72 705.135 2240.59 713.044 2238.34 720.272C2236.12 727.476 2232.92 734.113 2228.76 740.181H2221.67C2223.31 737.931 2224.83 735.158 2226.24 731.863C2227.67 728.59 2228.92 724.999 2229.99 721.09C2231.06 717.158 2231.89 713.101 2232.48 708.919C2233.09 704.715 2233.4 700.59 2233.4 696.544C2233.4 691.135 2232.88 685.647 2231.83 680.079C2230.79 674.51 2229.38 669.34 2227.6 664.567C2225.83 659.794 2223.85 655.908 2221.67 652.908H2228.76C2232.92 658.976 2236.12 665.624 2238.34 672.851C2240.59 680.056 2241.72 687.954 2241.72 696.544Z" fill="#2B2A2B"/>
<path d="M96.8324 1619.64V1547.64H104.605V1555.96H105.56C106.151 1555.05 106.969 1553.89 108.014 1552.48C109.082 1551.05 110.605 1549.78 112.582 1548.66C114.582 1547.53 117.287 1546.96 120.696 1546.96C125.105 1546.96 128.991 1548.06 132.355 1550.26C135.719 1552.47 138.344 1555.59 140.23 1559.64C142.116 1563.68 143.06 1568.46 143.06 1573.96C143.06 1579.5 142.116 1584.31 140.23 1588.38C138.344 1592.42 135.73 1595.56 132.389 1597.79C129.048 1599.99 125.196 1601.09 120.832 1601.09C117.469 1601.09 114.776 1600.54 112.753 1599.42C110.73 1598.29 109.173 1597 108.082 1595.57C106.991 1594.12 106.151 1592.91 105.56 1591.96H104.878V1619.64H96.8324ZM104.741 1573.82C104.741 1577.78 105.321 1581.26 106.48 1584.29C107.639 1587.29 109.332 1589.64 111.56 1591.34C113.787 1593.03 116.514 1593.87 119.741 1593.87C123.105 1593.87 125.912 1592.98 128.162 1591.21C130.435 1589.41 132.139 1587 133.276 1583.98C134.435 1580.93 135.014 1577.55 135.014 1573.82C135.014 1570.14 134.446 1566.82 133.31 1563.87C132.196 1560.89 130.503 1558.54 128.23 1556.81C125.98 1555.06 123.151 1554.18 119.741 1554.18C116.469 1554.18 113.719 1555.01 111.491 1556.67C109.264 1558.31 107.582 1560.61 106.446 1563.56C105.31 1566.49 104.741 1569.91 104.741 1573.82ZM158.196 1570.55C158.196 1561.96 159.31 1554.06 161.537 1546.86C163.787 1539.63 166.991 1532.98 171.151 1526.91H178.241C176.605 1529.16 175.071 1531.93 173.639 1535.23C172.23 1538.5 170.991 1542.11 169.923 1546.04C168.855 1549.95 168.014 1553.99 167.401 1558.17C166.81 1562.36 166.514 1566.48 166.514 1570.55C166.514 1575.96 167.037 1581.45 168.082 1587.01C169.128 1592.58 170.537 1597.75 172.31 1602.53C174.082 1607.3 176.06 1611.18 178.241 1614.18H171.151C166.991 1608.12 163.787 1601.48 161.537 1594.28C159.31 1587.05 158.196 1579.14 158.196 1570.55ZM212.886 1600.82C207.705 1600.37 203.227 1598.97 199.455 1596.63C195.682 1594.26 192.773 1591.14 190.727 1587.25C188.682 1583.34 187.659 1578.87 187.659 1573.82C187.659 1568.82 188.682 1564.4 190.727 1560.56C192.795 1556.7 195.727 1553.59 199.523 1551.25C203.318 1548.89 207.818 1547.5 213.023 1547.09H219.568C224.795 1547.5 229.295 1548.89 233.068 1551.25C236.864 1553.59 239.784 1556.7 241.83 1560.56C243.898 1564.4 244.932 1568.82 244.932 1573.82C244.932 1578.89 243.898 1583.38 241.83 1587.29C239.784 1591.2 236.864 1594.32 233.068 1596.66C229.295 1599 224.795 1600.39 219.568 1600.82H212.886ZM212.341 1619.64V1529.09H220.25V1619.64H212.341ZM219.159 1593.87C222.841 1593.48 226 1592.36 228.636 1590.49C231.295 1588.61 233.33 1586.21 234.739 1583.3C236.17 1580.39 236.886 1577.23 236.886 1573.82C236.886 1570.39 236.17 1567.25 234.739 1564.41C233.33 1561.55 231.295 1559.2 228.636 1557.36C226 1555.51 222.841 1554.41 219.159 1554.05H213.432C209.75 1554.41 206.58 1555.51 203.92 1557.36C201.284 1559.2 199.25 1561.55 197.818 1564.41C196.409 1567.25 195.705 1570.39 195.705 1573.82C195.705 1577.23 196.409 1580.39 197.818 1583.3C199.25 1586.21 201.284 1588.61 203.92 1590.49C206.58 1592.36 209.75 1593.48 213.432 1593.87H219.159ZM273.295 1570.55C273.295 1579.14 272.17 1587.05 269.92 1594.28C267.693 1601.48 264.5 1608.12 260.341 1614.18H253.25C254.886 1611.93 256.409 1609.16 257.818 1605.87C259.25 1602.59 260.5 1599 261.568 1595.09C262.636 1591.16 263.466 1587.11 264.057 1582.92C264.67 1578.72 264.977 1574.59 264.977 1570.55C264.977 1565.14 264.455 1559.65 263.409 1554.08C262.364 1548.51 260.955 1543.34 259.182 1538.57C257.409 1533.8 255.432 1529.91 253.25 1526.91H260.341C264.5 1532.98 267.693 1539.63 269.92 1546.86C272.17 1554.06 273.295 1561.96 273.295 1570.55Z" fill="#2B2A2B"/>
<path d="M1143 1211L1171.87 1161H1114.13L1143 1211ZM1143 719.999H1138V1166H1143H1148V719.999H1143Z" fill="#2B2A2B"/>
<path d="M1293 1277L1348.45 1260.93L1306.81 1220.94L1293 1277ZM1704 848.999L1700.39 845.536L1320.56 1241.08L1324.17 1244.54L1327.78 1248L1707.61 852.462L1704 848.999Z" fill="#2B2A2B"/>
<path d="M972 655.999L943.132 705.999L1000.87 705.999L972 655.999ZM972 1277L977 1277L977 1267.3L972 1267.3L967 1267.3L967 1277L972 1277ZM972 1247.89L977 1247.89L977 1228.48L972 1228.48L967 1228.48L967 1247.89L972 1247.89ZM972 1209.08L977 1209.08L977 1189.67L972 1189.67L967 1189.67L967 1209.08L972 1209.08ZM972 1170.26L977 1170.26L977 1150.86L972 1150.86L967 1150.86L967 1170.26L972 1170.26ZM972 1131.45L977 1131.45L977 1112.05L972 1112.05L967 1112.05L967 1131.45L972 1131.45ZM972 1092.64L977 1092.64L977 1073.23L972 1073.23L967 1073.23L967 1092.64L972 1092.64ZM972 1053.83L977 1053.83L977 1034.42L972 1034.42L967 1034.42L967 1053.83L972 1053.83ZM972 1015.01L977 1015.01L977 995.608L972 995.608L967 995.608L967 1015.01L972 1015.01ZM972 976.202L977 976.202L977 956.796L972 956.796L967 956.796L967 976.202L972 976.202ZM972 937.39L977 937.39L977 917.983L972 917.983L967 917.983L967 937.39L972 937.39ZM972 898.577L977 898.577L977 879.171L972 879.171L967 879.171L967 898.577L972 898.577ZM972 859.765L977 859.765L977 840.358L972 840.358L967 840.358L967 859.765L972 859.765ZM972 820.952L977 820.952L977 801.546L972 801.546L967 801.546L967 820.952L972 820.952ZM972 782.14L977 782.14L977 762.733L972 762.733L967 762.733L967 782.14L972 782.14ZM972 743.327L977 743.327L977 723.921L972 723.921L967 723.921L967 743.327L972 743.327ZM972 704.515L977 704.515L977 685.108L972 685.108L967 685.108L967 704.515L972 704.515ZM972 655.999L943.132 705.999L1000.87 705.999L972 655.999ZM972 1277L977 1277L977 1267.3L972 1267.3L967 1267.3L967 1277L972 1277ZM972 1247.89L977 1247.89L977 1228.48L972 1228.48L967 1228.48L967 1247.89L972 1247.89ZM972 1209.08L977 1209.08L977 1189.67L972 1189.67L967 1189.67L967 1209.08L972 1209.08ZM972 1170.26L977 1170.26L977 1150.86L972 1150.86L967 1150.86L967 1170.26L972 1170.26ZM972 1131.45L977 1131.45L977 1112.05L972 1112.05L967 1112.05L967 1131.45L972 1131.45ZM972 1092.64L977 1092.64L977 1073.23L972 1073.23L967 1073.23L967 1092.64L972 1092.64ZM972 1053.83L977 1053.83L977 1034.42L972 1034.42L967 1034.42L967 1053.83L972 1053.83ZM972 1015.01L977 1015.01L977 995.608L972 995.608L967 995.608L967 1015.01L972 1015.01ZM972 976.202L977 976.202L977 956.796L972 956.796L967 956.796L967 976.202L972 976.202ZM972 937.39L977 937.39L977 917.983L972 917.983L967 917.983L967 937.39L972 937.39ZM972 898.577L977 898.577L977 879.171L972 879.171L967 879.171L967 898.577L972 898.577ZM972 859.765L977 859.765L977 840.358L972 840.358L967 840.358L967 859.765L972 859.765ZM972 820.952L977 820.952L977 801.546L972 801.546L967 801.546L967 820.952L972 820.952ZM972 782.14L977 782.14L977 762.733L972 762.733L967 762.733L967 782.14L972 782.14ZM972 743.327L977 743.327L977 723.921L972 723.921L967 723.921L967 743.327L972 743.327ZM972 704.515L977 704.515L977 685.108L972 685.108L967 685.108L967 704.515L972 704.515Z" fill="#2B2A2B"/>
<rect x="963" y="1240" width="360" height="360" rx="180" fill="#D97192"/>
<rect x="960" y="1237" width="366" height="366" rx="183" stroke="#404040" stroke-opacity="0.352941" stroke-width="6"/>
<path d="M1126.26 1396.68L1142.98 1425.23L1159.71 1396.68H1172.07L1149.53 1431.59L1172.07 1466.5H1159.71L1142.98 1439.41L1126.26 1466.5H1113.89L1136.07 1431.59L1113.89 1396.68H1126.26Z" fill="#2B2A2B"/>
<path d="M576.364 1474.64V1402.64H584.136V1410.95H585.091C585.682 1410.04 586.5 1408.89 587.545 1407.48C588.614 1406.04 590.136 1404.77 592.114 1403.66C594.114 1402.52 596.818 1401.95 600.227 1401.95C604.636 1401.95 608.523 1403.06 611.886 1405.26C615.25 1407.46 617.875 1410.59 619.761 1414.64C621.648 1418.68 622.591 1423.45 622.591 1428.95C622.591 1434.5 621.648 1439.31 619.761 1443.37C617.875 1447.42 615.261 1450.56 611.92 1452.78C608.58 1454.99 604.727 1456.09 600.364 1456.09C597 1456.09 594.307 1455.53 592.284 1454.42C590.261 1453.28 588.705 1452 587.614 1450.57C586.523 1449.11 585.682 1447.91 585.091 1446.95H584.409V1474.64H576.364ZM584.273 1428.82C584.273 1432.77 584.852 1436.26 586.011 1439.28C587.17 1442.28 588.864 1444.64 591.091 1446.34C593.318 1448.02 596.045 1448.86 599.273 1448.86C602.636 1448.86 605.443 1447.98 607.693 1446.2C609.966 1444.41 611.67 1442 612.807 1438.98C613.966 1435.93 614.545 1432.54 614.545 1428.82C614.545 1425.14 613.977 1421.82 612.841 1418.86C611.727 1415.89 610.034 1413.53 607.761 1411.81C605.511 1410.06 602.682 1409.18 599.273 1409.18C596 1409.18 593.25 1410.01 591.023 1411.67C588.795 1413.31 587.114 1415.6 585.977 1418.56C584.841 1421.49 584.273 1424.91 584.273 1428.82ZM637.727 1425.54C637.727 1416.95 638.841 1409.06 641.068 1401.85C643.318 1394.62 646.523 1387.98 650.682 1381.91H657.773C656.136 1384.16 654.602 1386.93 653.17 1390.23C651.761 1393.5 650.523 1397.1 649.455 1401.03C648.386 1404.94 647.545 1408.99 646.932 1413.17C646.341 1417.35 646.045 1421.48 646.045 1425.54C646.045 1430.95 646.568 1436.44 647.614 1442.01C648.659 1447.58 650.068 1452.75 651.841 1457.52C653.614 1462.29 655.591 1466.18 657.773 1469.18H650.682C646.523 1463.11 643.318 1456.48 641.068 1449.27C638.841 1442.04 637.727 1434.14 637.727 1425.54ZM675.645 1402.64L688.19 1424.04L700.736 1402.64H710.009L693.099 1428.82L710.009 1455H700.736L688.19 1434.68L675.645 1455H666.372L683.009 1428.82L666.372 1402.64H675.645ZM733.216 1362.68V1477.5H726.398V1362.68H733.216ZM751.395 1455V1448.86L781.122 1410.68V1410.14H752.349V1402.64H791.486V1409.04L762.577 1446.95V1447.5H792.44V1455H751.395ZM816.832 1445.45L816.287 1449.14C815.901 1451.73 815.31 1454.5 814.514 1457.45C813.741 1460.41 812.935 1463.19 812.094 1465.81C811.253 1468.42 810.56 1470.5 810.014 1472.04H803.878C804.173 1470.59 804.56 1468.67 805.037 1466.28C805.514 1463.9 805.991 1461.23 806.469 1458.27C806.969 1455.34 807.378 1452.34 807.696 1449.27L808.105 1445.45H816.832ZM867.057 1417.23V1424.73H833.784V1417.23H867.057ZM871.966 1416.41V1424.73C871.966 1431.86 871.08 1437.74 869.307 1442.35C867.534 1446.96 865.034 1450.39 861.807 1452.61C858.58 1454.84 854.784 1455.95 850.42 1455.95C846.057 1455.95 842.239 1454.84 838.966 1452.61C835.693 1450.39 833.148 1446.96 831.33 1442.35C829.511 1437.74 828.602 1431.86 828.602 1424.73V1416.41C828.602 1409.32 829.5 1403.51 831.295 1398.99C833.091 1394.46 835.614 1391.12 838.864 1388.96C842.114 1386.81 845.92 1385.73 850.284 1385.73C854.693 1385.73 858.523 1386.81 861.773 1388.96C865.023 1391.12 867.534 1394.46 869.307 1398.99C871.08 1403.51 871.966 1409.32 871.966 1416.41ZM863.784 1426.23V1414.91C863.784 1410.23 863.216 1406.25 862.08 1402.98C860.943 1399.7 859.364 1397.21 857.341 1395.51C855.318 1393.81 852.966 1392.95 850.284 1392.95C846.33 1392.95 843.068 1394.86 840.5 1398.68C837.932 1402.48 836.648 1407.89 836.648 1414.91V1426.23C836.648 1433.25 837.955 1438.76 840.568 1442.76C843.182 1446.74 846.466 1448.73 850.42 1448.73C853.102 1448.73 855.443 1447.83 857.443 1446.03C859.443 1444.24 861 1441.66 862.114 1438.29C863.227 1434.93 863.784 1430.91 863.784 1426.23ZM900.764 1425.54C900.764 1434.14 899.639 1442.04 897.389 1449.27C895.162 1456.48 891.969 1463.11 887.81 1469.18H880.719C882.355 1466.93 883.878 1464.16 885.287 1460.86C886.719 1457.59 887.969 1454 889.037 1450.09C890.105 1446.16 890.935 1442.1 891.526 1437.92C892.139 1433.71 892.446 1429.59 892.446 1425.54C892.446 1420.14 891.923 1414.65 890.878 1409.08C889.832 1403.51 888.423 1398.34 886.651 1393.57C884.878 1388.79 882.901 1384.91 880.719 1381.91H887.81C891.969 1387.98 895.162 1394.62 897.389 1401.85C899.639 1409.06 900.764 1416.95 900.764 1425.54Z" fill="#2B2A2B"/>
<rect x="1670" y="522.999" width="360" height="360" rx="180" fill="#D9D9D9"/>
<rect x="1667" y="519.999" width="366" height="366" rx="183" stroke="#404040" stroke-opacity="0.352941" stroke-width="6"/>
<path d="M1872.35 699.135V709.135H1827.98V699.135H1872.35ZM1878.89 698.044V709.135C1878.89 718.651 1877.71 726.484 1875.35 732.635C1872.98 738.787 1869.65 743.348 1865.35 746.317C1861.04 749.287 1855.98 750.772 1850.16 750.772C1844.35 750.772 1839.26 749.287 1834.89 746.317C1830.53 743.348 1827.13 738.787 1824.71 732.635C1822.29 726.484 1821.07 718.651 1821.07 709.135V698.044C1821.07 688.59 1822.27 680.848 1824.66 674.817C1827.06 668.787 1830.42 664.332 1834.76 661.454C1839.09 658.575 1844.16 657.135 1849.98 657.135C1855.86 657.135 1860.97 658.575 1865.3 661.454C1869.63 664.332 1872.98 668.787 1875.35 674.817C1877.71 680.848 1878.89 688.59 1878.89 698.044ZM1867.98 711.135V696.044C1867.98 689.802 1867.23 684.499 1865.71 680.135C1864.2 675.772 1862.09 672.454 1859.39 670.181C1856.7 667.908 1853.56 666.772 1849.98 666.772C1844.71 666.772 1840.36 669.317 1836.94 674.408C1833.51 679.469 1831.8 686.681 1831.8 696.044V711.135C1831.8 720.499 1833.54 727.848 1837.03 733.181C1840.51 738.484 1844.89 741.135 1850.16 741.135C1853.74 741.135 1856.86 739.938 1859.53 737.544C1862.2 735.151 1864.27 731.711 1865.76 727.226C1867.24 722.741 1867.98 717.378 1867.98 711.135Z" fill="#2B2A2B"/>
<path d="M1021.51 133.636V105.955H1020.83C1020.24 106.909 1019.4 108.114 1018.31 109.568C1017.22 111 1015.66 112.284 1013.64 113.42C1011.62 114.534 1008.92 115.091 1005.56 115.091C1001.19 115.091 997.342 113.989 994.001 111.784C990.661 109.557 988.047 106.42 986.161 102.375C984.274 98.3068 983.331 93.5 983.331 87.9545C983.331 82.4545 984.274 77.6818 986.161 73.6364C988.047 69.5909 990.672 66.4659 994.036 64.2614C997.399 62.0568 1001.29 60.9545 1005.69 60.9545C1009.1 60.9545 1011.8 61.5227 1013.77 62.6591C1015.77 63.7727 1017.3 65.0455 1018.34 66.4773C1019.41 67.8864 1020.24 69.0455 1020.83 69.9545H1021.79V61.6364H1029.56V133.636H1021.51ZM1006.65 107.864C1009.88 107.864 1012.6 107.023 1014.83 105.341C1017.06 103.636 1018.75 101.284 1019.91 98.2841C1021.07 95.2614 1021.65 91.7727 1021.65 87.8182C1021.65 83.9091 1021.08 80.4886 1019.94 77.5568C1018.81 74.6023 1017.13 72.3068 1014.9 70.6705C1012.67 69.0114 1009.92 68.1818 1006.65 68.1818C1003.24 68.1818 1000.4 69.0568 998.126 70.8068C995.876 72.5341 994.183 74.8864 993.047 77.8636C991.933 80.8182 991.376 84.1364 991.376 87.8182C991.376 91.5455 991.945 94.9318 993.081 97.9773C994.24 101 995.945 103.409 998.195 105.205C1000.47 106.977 1003.29 107.864 1006.65 107.864ZM1047.15 84.5455C1047.15 75.9545 1048.26 68.0568 1050.49 60.8523C1052.74 53.625 1055.94 46.9773 1060.1 40.9091H1067.19C1065.56 43.1591 1064.02 45.9318 1062.59 49.2273C1061.18 52.5 1059.94 56.1023 1058.88 60.0341C1057.81 63.9432 1056.97 67.9886 1056.35 72.1705C1055.76 76.3523 1055.47 80.4773 1055.47 84.5455C1055.47 89.9545 1055.99 95.4432 1057.04 101.011C1058.08 106.58 1059.49 111.75 1061.26 116.523C1063.04 121.295 1065.01 125.182 1067.19 128.182H1060.1C1055.94 122.114 1052.74 115.477 1050.49 108.273C1048.26 101.045 1047.15 93.1364 1047.15 84.5455ZM1077.57 114V107.864L1107.29 69.6818V69.1364H1078.52V61.6364H1117.66V68.0455L1088.75 105.955V106.5H1118.61V114H1077.57ZM1142.73 21.6818V136.5H1135.91V21.6818H1142.73ZM1168.41 61.6364L1180.96 83.0455L1193.5 61.6364H1202.77L1185.87 87.8182L1202.77 114H1193.5L1180.96 93.6818L1168.41 114H1159.14L1175.77 87.8182L1159.14 61.6364H1168.41ZM1226.25 104.455L1225.71 108.136C1225.32 110.727 1224.73 113.5 1223.94 116.455C1223.16 119.409 1222.36 122.193 1221.52 124.807C1220.67 127.42 1219.98 129.5 1219.44 131.045H1213.3C1213.6 129.591 1213.98 127.67 1214.46 125.284C1214.94 122.898 1215.41 120.227 1215.89 117.273C1216.39 114.341 1216.8 111.341 1217.12 108.273L1217.53 104.455H1226.25ZM1263.93 114.818C1258.75 114.364 1254.27 112.966 1250.5 110.625C1246.73 108.261 1243.82 105.136 1241.77 101.25C1239.73 97.3409 1238.71 92.8636 1238.71 87.8182C1238.71 82.8182 1239.73 78.3977 1241.77 74.5568C1243.84 70.6932 1246.77 67.5909 1250.57 65.25C1254.37 62.8864 1258.87 61.5 1264.07 61.0909H1270.62C1275.84 61.5 1280.34 62.8864 1284.12 65.25C1287.91 67.5909 1290.83 70.6932 1292.88 74.5568C1294.94 78.3977 1295.98 82.8182 1295.98 87.8182C1295.98 92.8864 1294.94 97.375 1292.88 101.284C1290.83 105.193 1287.91 108.318 1284.12 110.659C1280.34 113 1275.84 114.386 1270.62 114.818H1263.93ZM1263.39 133.636V43.0909H1271.3V133.636H1263.39ZM1270.21 107.864C1273.89 107.477 1277.05 106.352 1279.68 104.489C1282.34 102.602 1284.38 100.205 1285.79 97.2955C1287.22 94.3864 1287.93 91.2273 1287.93 87.8182C1287.93 84.3864 1287.22 81.25 1285.79 78.4091C1284.38 75.5455 1282.34 73.1932 1279.68 71.3523C1277.05 69.5114 1273.89 68.4091 1270.21 68.0455H1264.48C1260.8 68.4091 1257.63 69.5114 1254.97 71.3523C1252.33 73.1932 1250.3 75.5455 1248.87 78.4091C1247.46 81.25 1246.75 84.3864 1246.75 87.8182C1246.75 91.2273 1247.46 94.3864 1248.87 97.2955C1250.3 100.205 1252.33 102.602 1254.97 104.489C1257.63 106.352 1260.8 107.477 1264.48 107.864H1270.21ZM1324.34 84.5455C1324.34 93.1364 1323.22 101.045 1320.97 108.273C1318.74 115.477 1315.55 122.114 1311.39 128.182H1304.3C1305.93 125.932 1307.46 123.159 1308.87 119.864C1310.3 116.591 1311.55 113 1312.62 109.091C1313.68 105.159 1314.51 101.102 1315.1 96.9205C1315.72 92.7159 1316.02 88.5909 1316.02 84.5455C1316.02 79.1364 1315.5 73.6477 1314.46 68.0795C1313.41 62.5114 1312 57.3409 1310.23 52.5682C1308.46 47.7955 1306.48 43.9091 1304.3 40.9091H1311.39C1315.55 46.9773 1318.74 53.625 1320.97 60.8523C1323.22 68.0568 1324.34 75.9545 1324.34 84.5455Z" fill="#2B2A2B"/>
<path d="M1073.36 297.636V225.636H1081.14V233.955H1082.09C1082.68 233.045 1083.5 231.886 1084.55 230.477C1085.61 229.045 1087.14 227.773 1089.11 226.659C1091.11 225.523 1093.82 224.955 1097.23 224.955C1101.64 224.955 1105.52 226.057 1108.89 228.261C1112.25 230.466 1114.88 233.591 1116.76 237.636C1118.65 241.682 1119.59 246.455 1119.59 251.955C1119.59 257.5 1118.65 262.307 1116.76 266.375C1114.88 270.42 1112.26 273.557 1108.92 275.784C1105.58 277.989 1101.73 279.091 1097.36 279.091C1094 279.091 1091.31 278.534 1089.28 277.42C1087.26 276.284 1085.7 275 1084.61 273.568C1083.52 272.114 1082.68 270.909 1082.09 269.955H1081.41V297.636H1073.36ZM1081.27 251.818C1081.27 255.773 1081.85 259.261 1083.01 262.284C1084.17 265.284 1085.86 267.636 1088.09 269.341C1090.32 271.023 1093.05 271.864 1096.27 271.864C1099.64 271.864 1102.44 270.977 1104.69 269.205C1106.97 267.409 1108.67 265 1109.81 261.977C1110.97 258.932 1111.55 255.545 1111.55 251.818C1111.55 248.136 1110.98 244.818 1109.84 241.864C1108.73 238.886 1107.03 236.534 1104.76 234.807C1102.51 233.057 1099.68 232.182 1096.27 232.182C1093 232.182 1090.25 233.011 1088.02 234.67C1085.8 236.307 1084.11 238.602 1082.98 241.557C1081.84 244.489 1081.27 247.909 1081.27 251.818ZM1134.73 248.545C1134.73 239.955 1135.84 232.057 1138.07 224.852C1140.32 217.625 1143.52 210.977 1147.68 204.909H1154.77C1153.14 207.159 1151.6 209.932 1150.17 213.227C1148.76 216.5 1147.52 220.102 1146.45 224.034C1145.39 227.943 1144.55 231.989 1143.93 236.17C1143.34 240.352 1143.05 244.477 1143.05 248.545C1143.05 253.955 1143.57 259.443 1144.61 265.011C1145.66 270.58 1147.07 275.75 1148.84 280.523C1150.61 285.295 1152.59 289.182 1154.77 292.182H1147.68C1143.52 286.114 1140.32 279.477 1138.07 272.273C1135.84 265.045 1134.73 257.136 1134.73 248.545ZM1165.14 278V271.864L1194.87 233.682V233.136H1166.1V225.636H1205.24V232.045L1176.33 269.955V270.5H1206.19V278H1165.14ZM1235.76 248.545C1235.76 257.136 1234.64 265.045 1232.39 272.273C1230.16 279.477 1226.97 286.114 1222.81 292.182H1215.72C1217.36 289.932 1218.88 287.159 1220.29 283.864C1221.72 280.591 1222.97 277 1224.04 273.091C1225.11 269.159 1225.93 265.102 1226.53 260.92C1227.14 256.716 1227.45 252.591 1227.45 248.545C1227.45 243.136 1226.92 237.648 1225.88 232.08C1224.83 226.511 1223.42 221.341 1221.65 216.568C1219.88 211.795 1217.9 207.909 1215.72 204.909H1222.81C1226.97 210.977 1230.16 217.625 1232.39 224.852C1234.64 232.057 1235.76 239.955 1235.76 248.545Z" fill="#2B2A2B"/>
<rect x="918" y="5" width="477" height="148" stroke="#2B2A2B" stroke-width="10" stroke-miterlimit="1.57213" stroke-dasharray="20 20"/>
<rect x="6" y="1117.07" width="360" height="360" rx="180" fill="#D9D9D9"/>
<rect x="3" y="1114.07" width="366" height="366" rx="183" stroke="#404040" stroke-opacity="0.352941" stroke-width="6"/>
<path d="M181.432 1344.66C174.523 1344.06 168.553 1342.19 163.523 1339.07C158.492 1335.92 154.614 1331.76 151.886 1326.57C149.159 1321.36 147.795 1315.39 147.795 1308.66C147.795 1302 149.159 1296.1 151.886 1290.98C154.644 1285.83 158.553 1281.69 163.614 1278.57C168.674 1275.42 174.674 1273.57 181.614 1273.03H190.341C197.311 1273.57 203.311 1275.42 208.341 1278.57C213.402 1281.69 217.295 1285.83 220.023 1290.98C222.78 1296.1 224.159 1302 224.159 1308.66C224.159 1315.42 222.78 1321.41 220.023 1326.62C217.295 1331.83 213.402 1336 208.341 1339.12C203.311 1342.24 197.311 1344.09 190.341 1344.66H181.432ZM180.705 1369.76V1249.03H191.25V1369.76H180.705ZM189.795 1335.39C194.705 1334.88 198.917 1333.38 202.432 1330.89C205.977 1328.38 208.689 1325.18 210.568 1321.3C212.477 1317.42 213.432 1313.21 213.432 1308.66C213.432 1304.09 212.477 1299.91 210.568 1296.12C208.689 1292.3 205.977 1289.16 202.432 1286.71C198.917 1284.26 194.705 1282.79 189.795 1282.3H182.159C177.25 1282.79 173.023 1284.26 169.477 1286.71C165.962 1289.16 163.25 1292.3 161.341 1296.12C159.462 1299.91 158.523 1304.09 158.523 1308.66C158.523 1313.21 159.462 1317.42 161.341 1321.3C163.25 1325.18 165.962 1328.38 169.477 1330.89C173.023 1333.38 177.25 1334.88 182.159 1335.39H189.795Z" fill="#2B2A2B"/>
<path d="M937.946 608.003L881.078 617.971L918.144 662.236L937.946 608.003ZM330 1117.07L333.21 1120.91L340.809 1114.54L337.599 1110.71L334.389 1106.88L326.79 1113.24L330 1117.07ZM352.798 1097.98L356.008 1101.82L371.207 1089.09L367.997 1085.26L364.787 1081.42L349.588 1094.15L352.798 1097.98ZM383.195 1072.53L386.405 1076.36L401.604 1063.64L398.394 1059.8L395.184 1055.97L379.985 1068.7L383.195 1072.53ZM413.593 1047.08L416.803 1050.91L432.001 1038.18L428.791 1034.35L425.581 1030.52L410.383 1043.24L413.593 1047.08ZM443.99 1021.62L447.2 1025.46L462.398 1012.73L459.188 1008.9L455.978 1005.06L440.78 1017.79L443.99 1021.62ZM474.387 996.169L477.597 1000L492.796 987.276L489.586 983.442L486.376 979.609L471.177 992.336L474.387 996.169ZM504.784 970.716L507.994 974.549L523.193 961.822L519.983 957.989L516.773 954.155L501.574 966.882L504.784 970.716ZM535.182 945.262L538.392 949.096L553.59 936.369L550.38 932.535L547.17 928.702L531.972 941.429L535.182 945.262ZM565.579 919.809L568.789 923.642L583.988 910.915L580.778 907.082L577.568 903.248L562.369 915.975L565.579 919.809ZM595.976 894.355L599.186 898.189L614.385 885.462L611.175 881.628L607.965 877.795L592.766 890.522L595.976 894.355ZM626.373 868.902L629.584 872.735L644.782 860.009L641.572 856.175L638.362 852.342L623.163 865.068L626.373 868.902ZM656.771 843.448L659.981 847.282L675.179 834.555L671.969 830.722L668.759 826.888L653.561 839.615L656.771 843.448ZM687.168 817.995L690.378 821.828L705.577 809.102L702.367 805.268L699.157 801.435L683.958 814.161L687.168 817.995ZM717.565 792.541L720.775 796.375L735.974 783.648L732.764 779.815L729.554 775.981L714.355 788.708L717.565 792.541ZM747.963 767.088L751.173 770.921L766.371 758.195L763.161 754.361L759.951 750.528L744.753 763.254L747.963 767.088ZM778.36 741.634L781.57 745.468L796.768 732.741L793.558 728.908L790.348 725.074L775.15 737.801L778.36 741.634ZM808.757 716.181L811.967 720.014L827.166 707.288L823.956 703.454L820.746 699.621L805.547 712.347L808.757 716.181ZM839.154 690.727L842.364 694.561L857.563 681.834L854.353 678.001L851.143 674.167L835.944 686.894L839.154 690.727ZM869.552 665.274L872.762 669.107L887.96 656.381L884.75 652.547L881.54 648.714L866.342 661.44L869.552 665.274ZM899.949 639.82L903.159 643.654L918.358 630.927L915.148 627.094L911.937 623.26L896.739 635.987L899.949 639.82ZM937.946 608.003L881.078 617.971L918.144 662.236L937.946 608.003ZM330 1117.07L333.21 1120.91L340.809 1114.54L337.599 1110.71L334.389 1106.88L326.79 1113.24L330 1117.07ZM352.798 1097.98L356.008 1101.82L371.207 1089.09L367.997 1085.26L364.787 1081.42L349.588 1094.15L352.798 1097.98ZM383.195 1072.53L386.405 1076.36L401.604 1063.64L398.394 1059.8L395.184 1055.97L379.985 1068.7L383.195 1072.53ZM413.593 1047.08L416.803 1050.91L432.001 1038.18L428.791 1034.35L425.581 1030.52L410.383 1043.24L413.593 1047.08ZM443.99 1021.62L447.2 1025.46L462.398 1012.73L459.188 1008.9L455.978 1005.06L440.78 1017.79L443.99 1021.62ZM474.387 996.169L477.597 1000L492.796 987.276L489.586 983.442L486.376 979.609L471.177 992.336L474.387 996.169ZM504.784 970.716L507.994 974.549L523.193 961.822L519.983 957.989L516.773 954.155L501.574 966.882L504.784 970.716ZM535.182 945.262L538.392 949.096L553.59 936.369L550.38 932.535L547.17 928.702L531.972 941.429L535.182 945.262ZM565.579 919.809L568.789 923.642L583.988 910.915L580.778 907.082L577.568 903.248L562.369 915.975L565.579 919.809ZM595.976 894.355L599.186 898.189L614.385 885.462L611.175 881.628L607.965 877.795L592.766 890.522L595.976 894.355ZM626.373 868.902L629.584 872.735L644.782 860.009L641.572 856.175L638.362 852.342L623.163 865.068L626.373 868.902ZM656.771 843.448L659.981 847.282L675.179 834.555L671.969 830.722L668.759 826.888L653.561 839.615L656.771 843.448ZM687.168 817.995L690.378 821.828L705.577 809.102L702.367 805.268L699.157 801.435L683.958 814.161L687.168 817.995ZM717.565 792.541L720.775 796.375L735.974 783.648L732.764 779.815L729.554 775.981L714.355 788.708L717.565 792.541ZM747.963 767.088L751.173 770.921L766.371 758.195L763.161 754.361L759.951 750.528L744.753 763.254L747.963 767.088ZM778.36 741.634L781.57 745.468L796.768 732.741L793.558 728.908L790.348 725.074L775.15 737.801L778.36 741.634ZM808.757 716.181L811.967 720.014L827.166 707.288L823.956 703.454L820.746 699.621L805.547 712.347L808.757 716.181ZM839.154 690.727L842.364 694.561L857.563 681.834L854.353 678.001L851.143 674.167L835.944 686.894L839.154 690.727ZM869.552 665.274L872.762 669.107L887.96 656.381L884.75 652.547L881.54 648.714L866.342 661.44L869.552 665.274ZM899.949 639.82L903.159 643.654L918.358 630.927L915.148 627.094L911.937 623.26L896.739 635.987L899.949 639.82Z" fill="#2B2A2B"/>
</svg>
