<svg width="351" height="241" viewBox="0 0 351 241" fill="none" xmlns="http://www.w3.org/2000/svg">
<path d="M175.5 16.5L334.5 68.5" stroke="#505050" stroke-opacity="0.764732" stroke-width="1.52946"/>
<path d="M175.5 16.5L334.5 120.5" stroke="#505050" stroke-opacity="0.502431" stroke-width="1.00486"/>
<path d="M175.5 16.5L334.5 172.5" stroke="#505050" stroke-opacity="0.407214" stroke-width="0.814428"/>
<path d="M16.5 42.5L175.5 68.5" stroke="#505050" stroke-opacity="0.32548" stroke-width="0.650961"/>
<path d="M16.5 42.5L175.5 120.5" stroke="#505050" stroke-opacity="0.0189737" stroke-width="0.0379473"/>
<path d="M16.5 42.5L175.5 172.5" stroke="#505050" stroke-opacity="0.0400786" stroke-width="0.0801572"/>
<path d="M16.5 42.5L175.5 224.5" stroke="#505050" stroke-opacity="0.164564" stroke-width="0.329128"/>
<path d="M16.5 94.5L175.5 68.5" stroke="#505050" stroke-opacity="0.50011" stroke-width="1.00022"/>
<path d="M16.5 94.5L175.5 120.5" stroke="#505050" stroke-opacity="0.545727" stroke-width="1.09145"/>
<path d="M16.5 94.5L175.5 172.5" stroke="#505050" stroke-opacity="0.280882" stroke-width="0.561764"/>
<path d="M16.5 94.5L175.5 224.5" stroke="#505050" stroke-opacity="0.0293889" stroke-width="0.0587777"/>
<path d="M16.5 146.5L175.5 68.5" stroke="#505050" stroke-opacity="0.222547" stroke-width="0.445095"/>
<path d="M16.5 146.5L175.5 120.5" stroke="#505050" stroke-opacity="0.88706" stroke-width="1.77412"/>
<path d="M16.5 146.5L175.5 172.5" stroke="#505050" stroke-opacity="0.575454" stroke-width="1.15091"/>
<path d="M16.5 146.5L175.5 224.5" stroke="#505050" stroke-opacity="0.0365847" stroke-width="0.0731694"/>
<path d="M16.5 198.5L175.5 68.5" stroke="#505050" stroke-opacity="0.100495" stroke-width="0.200989"/>
<path d="M16.5 198.5L175.5 120.5" stroke="#505050" stroke-opacity="0.744397" stroke-width="1.48879"/>
<path d="M16.5 198.5L175.5 172.5" stroke="#505050" stroke-opacity="0.341861" stroke-width="0.683722"/>
<path d="M16.5 198.5L175.5 224.5" stroke="#505050" stroke-opacity="0.599932" stroke-width="1.19986"/>
<path d="M175.5 68.5H334.5" stroke="#505050" stroke-opacity="0.990929" stroke-width="1.98186"/>
<path d="M175.5 68.5L334.5 120.5" stroke="#505050" stroke-opacity="0.871696" stroke-width="1.74339"/>
<path d="M175.5 68.5L334.5 172.5" stroke="#505050" stroke-opacity="0.39431" stroke-width="0.788621"/>
<path d="M175.5 120.5L334.5 68.5" stroke="#505050" stroke-opacity="0.845995" stroke-width="1.69199"/>
<path d="M175.5 120.5H334.5" stroke="#505050" stroke-opacity="0.359854" stroke-width="0.719707"/>
<path d="M175.5 120.5L334.5 172.5" stroke="#505050" stroke-opacity="0.299273" stroke-width="0.598546"/>
<path d="M175.5 172.5L334.5 68.5" stroke="#505050" stroke-opacity="0.0823954" stroke-width="0.164791"/>
<path d="M175.5 172.5L334.5 120.5" stroke="#505050" stroke-opacity="0.167494" stroke-width="0.334988"/>
<path d="M175.5 172.5H334.5" stroke="#505050" stroke-opacity="0.191989" stroke-width="0.383977"/>
<path d="M175.5 224.5L334.5 68.5" stroke="#505050" stroke-opacity="0.172083" stroke-width="0.344167"/>
<path d="M175.5 224.5L334.5 120.5" stroke="#505050" stroke-opacity="0.20021" stroke-width="0.40042"/>
<path d="M175.5 224.5L334.5 172.5" stroke="#505050" stroke-opacity="0.462105" stroke-width="0.924211"/>
<path d="M16.5 58.5C25.3366 58.5 32.5 51.3366 32.5 42.5C32.5 33.6634 25.3366 26.5 16.5 26.5C7.66344 26.5 0.5 33.6634 0.5 42.5C0.5 51.3366 7.66344 58.5 16.5 58.5Z" fill="#D9D9D9" stroke="#333333"/>
<path d="M16.5 110.5C25.3366 110.5 32.5 103.337 32.5 94.5C32.5 85.6634 25.3366 78.5 16.5 78.5C7.66344 78.5 0.5 85.6634 0.5 94.5C0.5 103.337 7.66344 110.5 16.5 110.5Z" fill="#D9D9D9" stroke="#333333"/>
<path d="M16.5 162.5C25.3366 162.5 32.5 155.337 32.5 146.5C32.5 137.663 25.3366 130.5 16.5 130.5C7.66344 130.5 0.5 137.663 0.5 146.5C0.5 155.337 7.66344 162.5 16.5 162.5Z" fill="#D9D9D9" stroke="#333333"/>
<path d="M16.5 214.5C25.3366 214.5 32.5 207.337 32.5 198.5C32.5 189.663 25.3366 182.5 16.5 182.5C7.66344 182.5 0.5 189.663 0.5 198.5C0.5 207.337 7.66344 214.5 16.5 214.5Z" fill="#55A49F" stroke="#333333"/>
<path d="M175.5 32.5C184.337 32.5 191.5 25.3366 191.5 16.5C191.5 7.66344 184.337 0.5 175.5 0.5C166.663 0.5 159.5 7.66344 159.5 16.5C159.5 25.3366 166.663 32.5 175.5 32.5Z" fill="#BF85FC" stroke="#333333"/>
<path d="M175.5 84.5C184.337 84.5 191.5 77.3366 191.5 68.5C191.5 59.6634 184.337 52.5 175.5 52.5C166.663 52.5 159.5 59.6634 159.5 68.5C159.5 77.3366 166.663 84.5 175.5 84.5Z" fill="#BF85FC" stroke="#333333"/>
<path d="M175.5 136.5C184.337 136.5 191.5 129.337 191.5 120.5C191.5 111.663 184.337 104.5 175.5 104.5C166.663 104.5 159.5 111.663 159.5 120.5C159.5 129.337 166.663 136.5 175.5 136.5Z" fill="#BF85FC" stroke="#333333"/>
<path d="M175.5 188.5C184.337 188.5 191.5 181.337 191.5 172.5C191.5 163.663 184.337 156.5 175.5 156.5C166.663 156.5 159.5 163.663 159.5 172.5C159.5 181.337 166.663 188.5 175.5 188.5Z" fill="#BF85FC" stroke="#333333"/>
<path d="M175.5 240.5C184.337 240.5 191.5 233.337 191.5 224.5C191.5 215.663 184.337 208.5 175.5 208.5C166.663 208.5 159.5 215.663 159.5 224.5C159.5 233.337 166.663 240.5 175.5 240.5Z" fill="#BF85FC" stroke="#333333"/>
<path d="M334.5 84.5C343.337 84.5 350.5 77.3366 350.5 68.5C350.5 59.6634 343.337 52.5 334.5 52.5C325.663 52.5 318.5 59.6634 318.5 68.5C318.5 77.3366 325.663 84.5 334.5 84.5Z" fill="#D97192" stroke="#333333"/>
<path d="M334.5 136.5C343.337 136.5 350.5 129.337 350.5 120.5C350.5 111.663 343.337 104.5 334.5 104.5C325.663 104.5 318.5 111.663 318.5 120.5C318.5 129.337 325.663 136.5 334.5 136.5Z" fill="#D97192" stroke="#333333"/>
<path d="M334.5 188.5C343.337 188.5 350.5 181.337 350.5 172.5C350.5 163.663 343.337 156.5 334.5 156.5C325.663 156.5 318.5 163.663 318.5 172.5C318.5 181.337 325.663 188.5 334.5 188.5Z" fill="#D97192" stroke="#333333"/>
</svg>
