<svg width="2910" height="1330" viewBox="0 0 2910 1330" fill="none" xmlns="http://www.w3.org/2000/svg">
<rect x="6" y="6" width="268" height="268" rx="134" fill="#D9D9D9"/>
<rect x="3" y="3" width="274" height="274" rx="137" stroke="#404040" stroke-opacity="0.352941" stroke-width="6"/>
<path d="M106.301 122.636L118.847 144.045L131.392 122.636H140.665L123.756 148.818L140.665 175H131.392L118.847 154.682L106.301 175H97.0284L113.665 148.818L97.0284 122.636H106.301ZM165.918 187.818C160.463 187.818 156.19 185.886 153.099 182.023C150.009 178.182 148.463 172.886 148.463 166.136C148.463 159.386 150.009 154.114 153.099 150.318C156.19 146.5 160.463 144.591 165.918 144.591C171.304 144.591 175.554 146.477 178.668 150.25C181.804 154.023 183.372 159.318 183.372 166.136C183.372 172.955 181.804 178.273 178.668 182.091C175.554 185.909 171.304 187.818 165.918 187.818ZM165.918 181.682C168.918 181.682 171.327 180.364 173.145 177.727C174.963 175.114 175.872 171.25 175.872 166.136C175.872 161.023 174.963 157.159 173.145 154.545C171.327 151.909 168.918 150.591 165.918 150.591C162.918 150.591 160.509 151.909 158.69 154.545C156.872 157.159 155.963 161.023 155.963 166.136C155.963 171.182 156.849 175.034 158.622 177.693C160.418 180.352 162.849 181.682 165.918 181.682Z" fill="#2B2A2B"/>
<rect x="6" y="414" width="268" height="268" rx="134" fill="#D9D9D9"/>
<rect x="3" y="411" width="274" height="274" rx="137" stroke="#404040" stroke-opacity="0.352941" stroke-width="6"/>
<path d="M112.395 530.636L124.94 552.045L137.486 530.636H146.759L129.849 556.818L146.759 583H137.486L124.94 562.682L112.395 583H103.122L119.759 556.818L103.122 530.636H112.395ZM165.807 595V560.568H165.466L154.693 567.727V560.5L165.807 553.136H172.898V595H165.807Z" fill="#2B2A2B"/>
<rect x="6" y="822" width="268" height="268" rx="134" fill="#D9D9D9"/>
<rect x="3" y="819" width="274" height="274" rx="137" stroke="#404040" stroke-opacity="0.352941" stroke-width="6"/>
<path d="M107.239 938.636L119.784 960.045L132.33 938.636H141.602L124.693 964.818L141.602 991H132.33L119.784 970.682L107.239 991H97.9659L114.602 964.818L97.9659 938.636H107.239ZM150.491 1003V997.682L166.446 983.5C168.037 982.091 169.366 980.83 170.435 979.716C171.503 978.602 172.31 977.523 172.855 976.477C173.401 975.432 173.673 974.318 173.673 973.136C173.673 971.091 172.889 969.466 171.321 968.261C169.753 967.057 167.81 966.455 165.491 966.455C163.037 966.455 161.06 967.114 159.56 968.432C158.06 969.727 157.31 971.432 157.31 973.545H150.219C150.219 969.659 151.662 966.534 154.548 964.17C157.435 961.784 161.128 960.591 165.628 960.591C168.628 960.591 171.264 961.136 173.537 962.227C175.81 963.295 177.582 964.773 178.855 966.659C180.128 968.523 180.764 970.636 180.764 973C180.764 974.864 180.389 976.591 179.639 978.182C178.889 979.773 177.719 981.42 176.128 983.125C174.537 984.83 172.491 986.773 169.991 988.955L161.128 996.727V997H181.991V1003H150.491Z" fill="#2B2A2B"/>
<mask id="path-10-outside-1_18_50" maskUnits="userSpaceOnUse" x="494.205" y="200.408" width="224.544" height="139.481" fill="black">
<rect fill="white" x="494.205" y="200.408" width="224.544" height="139.481"/>
<path d="M522.278 248.496C519.681 247.594 517.529 246.136 515.822 244.124C514.123 242.09 513.002 239.776 512.46 237.181C511.939 234.594 512.13 232.002 513.032 229.404C513.942 226.785 515.4 224.633 517.405 222.948C519.439 221.248 521.75 220.138 524.337 219.618C526.931 219.075 529.527 219.256 532.125 220.158C534.744 221.068 536.892 222.537 538.57 224.563C540.277 226.576 541.391 228.875 541.911 231.462C542.461 234.035 542.281 236.631 541.371 239.25C540.468 241.848 539 243.997 536.966 245.696C534.953 247.403 532.65 248.527 530.055 249.069C527.49 249.597 524.898 249.406 522.278 248.496ZM604.245 290.546L606.361 235.847L614.347 238.621L611.88 280.206L612.395 280.385L636.116 246.185L644.231 249.005L641.551 290.371L642.066 290.55L665.871 256.524L673.857 259.299L641.6 303.525L634.129 300.929L636.512 259.171L635.739 258.902L611.716 293.142L604.245 290.546ZM675.521 328.881C670.368 327.091 666.966 323.864 665.315 319.199C663.656 314.557 663.934 309.047 666.149 302.671C668.365 296.295 671.555 291.822 675.72 289.251C679.893 286.659 684.556 286.258 689.708 288.048C694.796 289.816 698.192 292.993 699.895 297.578C701.619 302.172 701.362 307.688 699.125 314.129C696.887 320.569 693.66 325.078 689.444 327.656C685.25 330.24 680.609 330.649 675.521 328.881ZM677.535 323.084C680.369 324.069 683.077 323.615 685.66 321.721C688.235 319.849 690.362 316.498 692.04 311.667C693.718 306.837 694.128 302.889 693.268 299.823C692.416 296.736 690.573 294.7 687.739 293.716C684.905 292.731 682.197 293.186 679.614 295.079C677.039 296.951 674.912 300.303 673.234 305.133C671.578 309.899 671.151 313.829 671.953 316.922C672.776 320.023 674.637 322.077 677.535 323.084Z"/>
</mask>
<path d="M522.278 248.496C519.681 247.594 517.529 246.136 515.822 244.124C514.123 242.09 513.002 239.776 512.46 237.181C511.939 234.594 512.13 232.002 513.032 229.404C513.942 226.785 515.4 224.633 517.405 222.948C519.439 221.248 521.75 220.138 524.337 219.618C526.931 219.075 529.527 219.256 532.125 220.158C534.744 221.068 536.892 222.537 538.57 224.563C540.277 226.576 541.391 228.875 541.911 231.462C542.461 234.035 542.281 236.631 541.371 239.25C540.468 241.848 539 243.997 536.966 245.696C534.953 247.403 532.65 248.527 530.055 249.069C527.49 249.597 524.898 249.406 522.278 248.496ZM604.245 290.546L606.361 235.847L614.347 238.621L611.88 280.206L612.395 280.385L636.116 246.185L644.231 249.005L641.551 290.371L642.066 290.55L665.871 256.524L673.857 259.299L641.6 303.525L634.129 300.929L636.512 259.171L635.739 258.902L611.716 293.142L604.245 290.546ZM675.521 328.881C670.368 327.091 666.966 323.864 665.315 319.199C663.656 314.557 663.934 309.047 666.149 302.671C668.365 296.295 671.555 291.822 675.72 289.251C679.893 286.659 684.556 286.258 689.708 288.048C694.796 289.816 698.192 292.993 699.895 297.578C701.619 302.172 701.362 307.688 699.125 314.129C696.887 320.569 693.66 325.078 689.444 327.656C685.25 330.24 680.609 330.649 675.521 328.881ZM677.535 323.084C680.369 324.069 683.077 323.615 685.66 321.721C688.235 319.849 690.362 316.498 692.04 311.667C693.718 306.837 694.128 302.889 693.268 299.823C692.416 296.736 690.573 294.7 687.739 293.716C684.905 292.731 682.197 293.186 679.614 295.079C677.039 296.951 674.912 300.303 673.234 305.133C671.578 309.899 671.151 313.829 671.953 316.922C672.776 320.023 674.637 322.077 677.535 323.084Z" fill="#FEBC2F"/>
<path d="M515.822 244.124L512.752 246.688L512.762 246.7L512.771 246.711L515.822 244.124ZM512.46 237.181L508.538 237.97L508.541 237.985L508.544 237.999L512.46 237.181ZM517.405 222.948L514.841 219.878L514.831 219.886L517.405 222.948ZM524.337 219.618L525.126 223.539L525.14 223.536L525.155 223.533L524.337 219.618ZM538.57 224.563L535.489 227.114L535.504 227.132L535.519 227.15L538.57 224.563ZM541.911 231.462L537.99 232.252L537.995 232.275L537.999 232.298L541.911 231.462ZM536.966 245.696L534.401 242.626L534.39 242.636L534.379 242.645L536.966 245.696ZM530.055 249.069L530.862 252.987L530.874 252.985L530.055 249.069ZM522.278 248.496L523.591 244.718C521.639 244.04 520.097 242.98 518.873 241.537L515.822 244.124L512.771 246.711C514.96 249.292 517.722 251.148 520.966 252.275L522.278 248.496ZM515.822 244.124L518.892 241.559C517.613 240.029 516.783 238.315 516.375 236.363L512.46 237.181L508.544 237.999C509.221 241.236 510.632 244.15 512.752 246.688L515.822 244.124ZM512.46 237.181L516.381 236.392C516.007 234.536 516.133 232.669 516.811 230.717L513.032 229.404L509.254 228.091C508.127 231.335 507.87 234.652 508.538 237.97L512.46 237.181ZM513.032 229.404L516.811 230.717C517.499 228.737 518.558 227.204 519.979 226.01L517.405 222.948L514.831 219.886C512.242 222.062 510.386 224.833 509.254 228.091L513.032 229.404ZM517.405 222.948L519.97 226.017C521.494 224.743 523.195 223.928 525.126 223.539L524.337 219.618L523.547 215.696C520.304 216.349 517.384 217.753 514.841 219.878L517.405 222.948ZM524.337 219.618L525.155 223.533C527.012 223.145 528.872 223.263 530.812 223.937L532.125 220.158L533.437 216.38C530.182 215.249 526.85 215.006 523.518 215.702L524.337 219.618ZM532.125 220.158L530.812 223.937C532.779 224.62 534.303 225.681 535.489 227.114L538.57 224.563L541.651 222.012C539.482 219.392 536.708 217.516 533.437 216.38L532.125 220.158ZM538.57 224.563L535.519 227.15C536.788 228.647 537.603 230.328 537.99 232.252L541.911 231.462L545.833 230.673C545.178 227.423 543.765 224.505 541.621 221.976L538.57 224.563ZM541.911 231.462L537.999 232.298C538.388 234.117 538.276 235.97 537.592 237.938L541.371 239.25L545.149 240.563C546.285 237.292 546.534 233.954 545.823 230.627L541.911 231.462ZM541.371 239.25L537.592 237.938C536.918 239.877 535.857 241.41 534.401 242.626L536.966 245.696L539.53 248.766C542.142 246.584 544.018 243.819 545.149 240.563L541.371 239.25ZM536.966 245.696L534.379 242.645C532.877 243.919 531.182 244.747 529.237 245.154L530.055 249.069L530.874 252.985C534.117 252.307 537.03 250.886 539.553 248.747L536.966 245.696ZM530.055 249.069L529.249 245.151C527.431 245.526 525.571 245.406 523.591 244.718L522.278 248.496L520.966 252.275C524.224 253.407 527.548 253.669 530.862 252.987L530.055 249.069ZM604.245 290.546L600.248 290.391L600.134 293.352L602.932 294.324L604.245 290.546ZM606.361 235.847L607.673 232.068L602.572 230.296L602.364 235.692L606.361 235.847ZM614.347 238.621L618.34 238.858L618.519 235.837L615.66 234.843L614.347 238.621ZM611.88 280.206L607.887 279.969L607.708 282.991L610.567 283.985L611.88 280.206ZM612.395 280.385L611.082 284.164L613.951 285.16L615.682 282.665L612.395 280.385ZM636.116 246.185L637.428 242.407L634.56 241.41L632.829 243.905L636.116 246.185ZM644.231 249.005L648.222 249.263L648.419 246.225L645.544 245.226L644.231 249.005ZM641.551 290.371L637.559 290.113L637.362 293.151L640.238 294.15L641.551 290.371ZM642.066 290.55L640.753 294.329L643.61 295.321L645.344 292.843L642.066 290.55ZM665.871 256.524L667.184 252.745L664.327 251.753L662.593 254.231L665.871 256.524ZM673.857 259.299L677.089 261.656L680.271 257.293L675.17 255.52L673.857 259.299ZM641.6 303.525L640.287 307.304L643.086 308.276L644.832 305.882L641.6 303.525ZM634.129 300.929L630.136 300.701L629.964 303.717L632.816 304.708L634.129 300.929ZM636.512 259.171L640.505 259.399L640.677 256.384L637.825 255.392L636.512 259.171ZM635.739 258.902L637.052 255.124L634.199 254.133L632.465 256.605L635.739 258.902ZM611.716 293.142L610.403 296.92L613.256 297.911L614.991 295.439L611.716 293.142ZM604.245 290.546L608.242 290.701L610.358 236.001L606.361 235.847L602.364 235.692L600.248 290.391L604.245 290.546ZM606.361 235.847L605.048 239.625L613.034 242.4L614.347 238.621L615.66 234.843L607.673 232.068L606.361 235.847ZM614.347 238.621L610.354 238.385L607.887 279.969L611.88 280.206L615.873 280.443L618.34 238.858L614.347 238.621ZM611.88 280.206L610.567 283.985L611.082 284.164L612.395 280.385L613.708 276.607L613.193 276.428L611.88 280.206ZM612.395 280.385L615.682 282.665L639.402 248.465L636.116 246.185L632.829 243.905L609.108 278.106L612.395 280.385ZM636.116 246.185L634.803 249.964L642.918 252.783L644.231 249.005L645.544 245.226L637.428 242.407L636.116 246.185ZM644.231 249.005L640.239 248.746L637.559 290.113L641.551 290.371L645.543 290.63L648.222 249.263L644.231 249.005ZM641.551 290.371L640.238 294.15L640.753 294.329L642.066 290.55L643.379 286.772L642.864 286.593L641.551 290.371ZM642.066 290.55L645.344 292.843L669.148 258.817L665.871 256.524L662.593 254.231L638.789 288.257L642.066 290.55ZM665.871 256.524L664.558 260.302L672.544 263.077L673.857 259.299L675.17 255.52L667.184 252.745L665.871 256.524ZM673.857 259.299L670.625 256.941L638.368 301.168L641.6 303.525L644.832 305.882L677.089 261.656L673.857 259.299ZM641.6 303.525L642.913 299.747L635.442 297.151L634.129 300.929L632.816 304.708L640.287 307.304L641.6 303.525ZM634.129 300.929L638.123 301.157L640.505 259.399L636.512 259.171L632.518 258.943L630.136 300.701L634.129 300.929ZM636.512 259.171L637.825 255.392L637.052 255.124L635.739 258.902L634.426 262.681L635.199 262.949L636.512 259.171ZM635.739 258.902L632.465 256.605L608.442 290.844L611.716 293.142L614.991 295.439L639.014 261.2L635.739 258.902ZM611.716 293.142L613.029 289.363L605.558 286.768L604.245 290.546L602.932 294.324L610.403 296.92L611.716 293.142ZM665.315 319.199L669.085 317.864L669.081 317.853L665.315 319.199ZM675.72 289.251L677.821 292.655L677.831 292.649L675.72 289.251ZM699.895 297.578L696.145 298.971L696.147 298.978L696.15 298.984L699.895 297.578ZM689.444 327.656L687.358 324.243L687.352 324.246L687.346 324.25L689.444 327.656ZM685.66 321.721L683.308 318.486L683.301 318.49L683.294 318.495L685.66 321.721ZM693.268 299.823L689.412 300.888L689.414 300.896L689.417 300.903L693.268 299.823ZM679.614 295.079L681.966 298.315L681.973 298.31L681.979 298.305L679.614 295.079ZM671.953 316.922L668.08 317.926L668.083 317.937L668.086 317.949L671.953 316.922ZM675.521 328.881L676.834 325.102C672.695 323.664 670.286 321.255 669.085 317.864L665.315 319.199L661.544 320.535C663.647 326.472 668.042 330.517 674.208 332.659L675.521 328.881ZM665.315 319.199L669.081 317.853C667.826 314.339 667.902 309.814 669.928 303.984L666.149 302.671L662.371 301.359C659.966 308.281 659.486 314.775 661.548 320.545L665.315 319.199ZM666.149 302.671L669.928 303.984C671.954 298.151 674.69 294.588 677.821 292.655L675.72 289.251L673.62 285.847C668.42 289.056 664.775 294.44 662.371 301.359L666.149 302.671ZM675.72 289.251L677.831 292.649C680.857 290.769 684.24 290.383 688.395 291.827L689.708 288.048L691.021 284.27C684.871 282.133 678.93 282.548 673.61 285.853L675.72 289.251ZM689.708 288.048L688.395 291.827C692.485 293.248 694.903 295.627 696.145 298.971L699.895 297.578L703.644 296.186C701.48 290.359 697.107 286.384 691.021 284.27L689.708 288.048ZM699.895 297.578L696.15 298.984C697.438 302.416 697.396 306.917 695.346 312.816L699.125 314.129L702.903 315.442C705.329 308.46 705.8 301.927 703.639 296.172L699.895 297.578ZM699.125 314.129L695.346 312.816C693.298 318.711 690.53 322.304 687.358 324.243L689.444 327.656L691.531 331.068C696.79 327.853 700.476 322.427 702.903 315.442L699.125 314.129ZM689.444 327.656L687.346 324.25C684.279 326.14 680.907 326.518 676.834 325.102L675.521 328.881L674.208 332.659C680.311 334.78 686.221 334.34 691.543 331.061L689.444 327.656ZM677.535 323.084L676.222 326.863C680.394 328.312 684.466 327.556 688.025 324.947L685.66 321.721L683.294 318.495C681.688 319.673 680.343 319.826 678.848 319.306L677.535 323.084ZM685.66 321.721L688.012 324.956C691.538 322.393 694.021 318.153 695.818 312.98L692.04 311.667L688.262 310.354C686.702 314.842 684.932 317.305 683.308 318.486L685.66 321.721ZM692.04 311.667L695.818 312.98C697.616 307.807 698.297 302.941 697.119 298.743L693.268 299.823L689.417 300.903C689.959 302.837 689.821 305.867 688.262 310.354L692.04 311.667ZM693.268 299.823L697.124 298.759C695.95 294.505 693.224 291.387 689.052 289.937L687.739 293.716L686.426 297.494C687.922 298.014 688.882 298.967 689.412 300.888L693.268 299.823ZM687.739 293.716L689.052 289.937C684.88 288.488 680.808 289.244 677.249 291.853L679.614 295.079L681.979 298.305C683.586 297.127 684.931 296.975 686.426 297.494L687.739 293.716ZM679.614 295.079L677.262 291.844C673.736 294.407 671.253 298.647 669.455 303.82L673.234 305.133L677.012 306.446C678.571 301.958 680.342 299.495 681.966 298.315L679.614 295.079ZM673.234 305.133L669.455 303.82C667.678 308.935 666.996 313.743 668.08 317.926L671.953 316.922L675.825 315.919C675.305 313.914 675.478 310.863 677.012 306.446L673.234 305.133ZM671.953 316.922L668.086 317.949C669.232 322.264 672.001 325.396 676.222 326.863L677.535 323.084L678.848 319.306C677.272 318.758 676.319 317.783 675.819 315.896L671.953 316.922Z" fill="#FEBC2F" mask="url(#path-10-outside-1_18_50)"/>
<mask id="path-12-outside-2_18_50" maskUnits="userSpaceOnUse" x="504.331" y="647.28" width="224.544" height="139.481" fill="black">
<rect fill="white" x="504.331" y="647.28" width="224.544" height="139.481"/>
<path d="M537.119 752.24C534.521 753.143 531.929 753.334 529.342 752.813C526.747 752.271 524.433 751.15 522.399 749.451C520.387 747.744 518.929 745.592 518.026 742.994C517.116 740.375 516.925 737.783 517.454 735.217C517.996 732.623 519.12 730.32 520.827 728.307C522.526 726.273 524.675 724.805 527.272 723.902C529.891 722.992 532.488 722.812 535.06 723.362C537.647 723.882 539.947 724.996 541.96 726.703C543.986 728.381 545.455 730.529 546.365 733.148C547.267 735.746 547.447 738.342 546.905 740.936C546.384 743.523 545.274 745.834 543.575 747.868C541.89 749.873 539.738 751.33 537.119 752.24ZM627.499 734.407L595.243 690.18L603.229 687.406L627.078 721.561L627.593 721.382L624.998 679.842L633.113 677.022L656.66 711.138L657.175 710.959L654.753 669.503L662.739 666.728L664.854 721.428L657.383 724.024L633.36 689.784L632.588 690.053L634.97 731.811L627.499 734.407ZM707.189 720.288C702.037 722.079 697.367 721.656 693.179 719.021C688.998 716.407 685.801 711.912 683.585 705.536C681.37 699.16 681.099 693.672 682.773 689.073C684.44 684.452 687.849 681.246 693.001 679.456C698.089 677.688 702.723 678.075 706.903 680.617C711.103 683.151 714.323 687.638 716.561 694.079C718.798 700.519 719.062 706.058 717.353 710.694C715.665 715.322 712.277 718.521 707.189 720.288ZM705.175 714.492C708.009 713.507 709.852 711.471 710.704 708.384C711.564 705.319 711.154 701.371 709.476 696.54C707.798 691.71 705.671 688.359 703.096 686.487C700.513 684.593 697.805 684.139 694.971 685.123C692.137 686.108 690.294 688.144 689.442 691.231C688.582 694.296 688.991 698.244 690.67 703.075C692.326 707.841 694.427 711.189 696.975 713.119C699.543 715.041 702.277 715.499 705.175 714.492Z"/>
</mask>
<path d="M537.119 752.24C534.521 753.143 531.929 753.334 529.342 752.813C526.747 752.271 524.433 751.15 522.399 749.451C520.387 747.744 518.929 745.592 518.026 742.994C517.116 740.375 516.925 737.783 517.454 735.217C517.996 732.623 519.12 730.32 520.827 728.307C522.526 726.273 524.675 724.805 527.272 723.902C529.891 722.992 532.488 722.812 535.06 723.362C537.647 723.882 539.947 724.996 541.96 726.703C543.986 728.381 545.455 730.529 546.365 733.148C547.267 735.746 547.447 738.342 546.905 740.936C546.384 743.523 545.274 745.834 543.575 747.868C541.89 749.873 539.738 751.33 537.119 752.24ZM627.499 734.407L595.243 690.18L603.229 687.406L627.078 721.561L627.593 721.382L624.998 679.842L633.113 677.022L656.66 711.138L657.175 710.959L654.753 669.503L662.739 666.728L664.854 721.428L657.383 724.024L633.36 689.784L632.588 690.053L634.97 731.811L627.499 734.407ZM707.189 720.288C702.037 722.079 697.367 721.656 693.179 719.021C688.998 716.407 685.801 711.912 683.585 705.536C681.37 699.16 681.099 693.672 682.773 689.073C684.44 684.452 687.849 681.246 693.001 679.456C698.089 677.688 702.723 678.075 706.903 680.617C711.103 683.151 714.323 687.638 716.561 694.079C718.798 700.519 719.062 706.058 717.353 710.694C715.665 715.322 712.277 718.521 707.189 720.288ZM705.175 714.492C708.009 713.507 709.852 711.471 710.704 708.384C711.564 705.319 711.154 701.371 709.476 696.54C707.798 691.71 705.671 688.359 703.096 686.487C700.513 684.593 697.805 684.139 694.971 685.123C692.137 686.108 690.294 688.144 689.442 691.231C688.582 694.296 688.991 698.244 690.67 703.075C692.326 707.841 694.427 711.189 696.975 713.119C699.543 715.041 702.277 715.499 705.175 714.492Z" fill="#FEBC2F"/>
<path d="M529.342 752.813L528.523 756.729L528.538 756.732L528.552 756.734L529.342 752.813ZM522.399 749.451L519.812 752.502L519.823 752.511L519.835 752.521L522.399 749.451ZM517.454 735.217L513.538 734.399L513.536 734.411L517.454 735.217ZM520.827 728.307L523.878 730.894L523.887 730.883L523.897 730.872L520.827 728.307ZM535.06 723.362L534.225 727.273L534.248 727.278L534.271 727.283L535.06 723.362ZM541.96 726.703L539.373 729.753L539.391 729.769L539.409 729.784L541.96 726.703ZM546.905 740.936L542.99 740.118L542.987 740.132L542.984 740.147L546.905 740.936ZM543.575 747.868L546.637 750.441L546.645 750.432L543.575 747.868ZM537.119 752.24L535.806 748.462C533.854 749.14 531.987 749.265 530.131 748.892L529.342 752.813L528.552 756.734C531.87 757.402 535.188 757.146 538.431 756.019L537.119 752.24ZM529.342 752.813L530.16 748.898C528.208 748.49 526.494 747.66 524.964 746.381L522.399 749.451L519.835 752.521C522.372 754.641 525.286 756.052 528.523 756.729L529.342 752.813ZM522.399 749.451L524.986 746.4C523.542 745.176 522.483 743.634 521.805 741.682L518.026 742.994L514.248 744.307C515.375 747.55 517.231 750.313 519.812 752.502L522.399 749.451ZM518.026 742.994L521.805 741.682C521.117 739.702 520.997 737.842 521.371 736.024L517.454 735.217L513.536 734.411C512.854 737.724 513.116 741.049 514.248 744.307L518.026 742.994ZM517.454 735.217L521.369 736.036C521.775 734.091 522.604 732.396 523.878 730.894L520.827 728.307L517.776 725.72C515.636 728.243 514.216 731.155 513.538 734.399L517.454 735.217ZM520.827 728.307L523.897 730.872C525.113 729.415 526.645 728.355 528.585 727.681L527.272 723.902L525.96 720.124C522.704 721.255 519.939 723.131 517.757 725.743L520.827 728.307ZM527.272 723.902L528.585 727.681C530.553 726.997 532.406 726.885 534.225 727.273L535.06 723.362L535.896 719.45C532.569 718.739 529.23 718.987 525.96 720.124L527.272 723.902ZM535.06 723.362L534.271 727.283C536.195 727.67 537.876 728.484 539.373 729.753L541.96 726.703L544.547 723.652C542.018 721.508 539.1 720.094 535.85 719.44L535.06 723.362ZM541.96 726.703L539.409 729.784C540.841 730.97 541.903 732.493 542.586 734.461L546.365 733.148L550.143 731.835C549.007 728.564 547.131 725.791 544.511 723.622L541.96 726.703ZM546.365 733.148L542.586 734.461C543.26 736.401 543.378 738.261 542.99 740.118L546.905 740.936L550.821 741.754C551.517 738.423 551.274 735.091 550.143 731.835L546.365 733.148ZM546.905 740.936L542.984 740.147C542.595 742.077 541.779 743.778 540.505 745.303L543.575 747.868L546.645 750.432C548.77 747.889 550.174 744.969 550.826 741.725L546.905 740.936ZM543.575 747.868L540.513 745.294C539.319 746.714 537.785 747.774 535.806 748.462L537.119 752.24L538.431 756.019C541.69 754.887 544.461 753.031 546.637 750.441L543.575 747.868ZM627.499 734.407L624.268 736.764L626.014 739.158L628.812 738.185L627.499 734.407ZM595.243 690.18L593.93 686.402L588.829 688.174L592.011 692.537L595.243 690.18ZM603.229 687.406L606.508 685.116L604.775 682.634L601.916 683.627L603.229 687.406ZM627.078 721.561L623.798 723.851L625.531 726.333L628.391 725.339L627.078 721.561ZM627.593 721.382L628.906 725.16L631.775 724.164L631.586 721.132L627.593 721.382ZM624.998 679.842L623.685 676.063L620.816 677.06L621.005 680.091L624.998 679.842ZM633.113 677.022L636.405 674.75L634.675 672.245L631.8 673.244L633.113 677.022ZM656.66 711.138L653.368 713.411L655.097 715.916L657.972 714.917L656.66 711.138ZM657.175 710.959L658.488 714.738L661.344 713.745L661.168 710.726L657.175 710.959ZM654.753 669.503L653.44 665.725L650.583 666.718L650.759 669.737L654.753 669.503ZM662.739 666.728L666.736 666.574L666.527 661.178L661.426 662.95L662.739 666.728ZM664.854 721.428L666.167 725.206L668.966 724.234L668.851 721.273L664.854 721.428ZM657.383 724.024L654.109 726.321L655.843 728.793L658.696 727.802L657.383 724.024ZM633.36 689.784L636.635 687.487L634.9 685.015L632.048 686.006L633.36 689.784ZM632.588 690.053L631.275 686.274L628.422 687.266L628.594 690.281L632.588 690.053ZM634.97 731.811L636.283 735.59L639.136 734.598L638.964 731.583L634.97 731.811ZM627.499 734.407L630.731 732.05L598.474 687.823L595.243 690.18L592.011 692.537L624.268 736.764L627.499 734.407ZM595.243 690.18L596.555 693.959L604.542 691.184L603.229 687.406L601.916 683.627L593.93 686.402L595.243 690.18ZM603.229 687.406L599.949 689.696L623.798 723.851L627.078 721.561L630.358 719.271L606.508 685.116L603.229 687.406ZM627.078 721.561L628.391 725.339L628.906 725.16L627.593 721.382L626.28 717.604L625.765 717.783L627.078 721.561ZM627.593 721.382L631.586 721.132L628.99 679.592L624.998 679.842L621.005 680.091L623.601 721.631L627.593 721.382ZM624.998 679.842L626.31 683.62L634.425 680.801L633.113 677.022L631.8 673.244L623.685 676.063L624.998 679.842ZM633.113 677.022L629.821 679.294L653.368 713.411L656.66 711.138L659.952 708.866L636.405 674.75L633.113 677.022ZM656.66 711.138L657.972 714.917L658.488 714.738L657.175 710.959L655.862 707.181L655.347 707.36L656.66 711.138ZM657.175 710.959L661.168 710.726L658.746 669.27L654.753 669.503L650.759 669.737L653.182 711.193L657.175 710.959ZM654.753 669.503L656.065 673.282L664.052 670.507L662.739 666.728L661.426 662.95L653.44 665.725L654.753 669.503ZM662.739 666.728L658.742 666.883L660.857 721.582L664.854 721.428L668.851 721.273L666.736 666.574L662.739 666.728ZM664.854 721.428L663.541 717.649L656.07 720.245L657.383 724.024L658.696 727.802L666.167 725.206L664.854 721.428ZM657.383 724.024L660.658 721.726L636.635 687.487L633.36 689.784L630.086 692.082L654.109 726.321L657.383 724.024ZM633.36 689.784L632.048 686.006L631.275 686.274L632.588 690.053L633.9 693.831L634.673 693.563L633.36 689.784ZM632.588 690.053L628.594 690.281L630.977 732.039L634.97 731.811L638.964 731.583L636.581 689.825L632.588 690.053ZM634.97 731.811L633.658 728.033L626.187 730.629L627.499 734.407L628.812 738.185L636.283 735.59L634.97 731.811ZM693.179 719.021L695.309 715.635L695.299 715.629L693.179 719.021ZM682.773 689.073L686.532 690.441L686.536 690.43L682.773 689.073ZM706.903 680.617L704.824 684.034L704.83 684.038L704.836 684.042L706.903 680.617ZM717.353 710.694L713.6 709.31L713.598 709.317L713.595 709.323L717.353 710.694ZM710.704 708.384L706.853 707.304L706.85 707.312L706.848 707.32L710.704 708.384ZM703.096 686.487L700.73 689.713L700.737 689.717L700.744 689.722L703.096 686.487ZM689.442 691.231L693.293 692.311L693.295 692.303L693.298 692.295L689.442 691.231ZM696.975 713.119L694.559 716.307L694.568 716.314L694.578 716.321L696.975 713.119ZM707.189 720.288L705.876 716.51C701.738 717.948 698.354 717.551 695.309 715.635L693.179 719.021L691.048 722.406C696.379 725.761 702.336 726.209 708.502 724.067L707.189 720.288ZM693.179 719.021L695.299 715.629C692.135 713.651 689.389 710.054 687.364 704.223L683.585 705.536L679.807 706.849C682.212 713.771 685.862 719.164 691.058 722.413L693.179 719.021ZM683.585 705.536L687.364 704.223C685.337 698.39 685.273 693.899 686.532 690.441L682.773 689.073L679.014 687.705C676.925 693.446 677.403 699.93 679.807 706.849L683.585 705.536ZM682.773 689.073L686.536 690.43C687.744 687.079 690.159 684.678 694.314 683.234L693.001 679.456L691.689 675.677C685.539 677.814 681.135 681.824 679.01 687.716L682.773 689.073ZM693.001 679.456L694.314 683.234C698.404 681.813 701.776 682.18 704.824 684.034L706.903 680.617L708.981 677.199C703.67 673.969 697.775 673.563 691.689 675.677L693.001 679.456ZM706.903 680.617L704.836 684.042C707.975 685.935 710.732 689.493 712.782 695.392L716.561 694.079L720.339 692.766C717.913 685.784 714.232 680.367 708.969 677.192L706.903 680.617ZM716.561 694.079L712.782 695.392C714.83 701.287 714.886 705.822 713.6 709.31L717.353 710.694L721.106 712.078C723.239 706.294 722.766 699.752 720.339 692.766L716.561 694.079ZM717.353 710.694L713.595 709.323C712.361 712.708 709.949 715.095 705.876 716.51L707.189 720.288L708.502 724.067C714.605 721.946 718.969 717.937 721.111 712.064L717.353 710.694ZM705.175 714.492L706.488 718.27C710.66 716.821 713.386 713.702 714.56 709.449L710.704 708.384L706.848 707.32C706.318 709.241 705.358 710.194 703.862 710.714L705.175 714.492ZM710.704 708.384L714.555 709.464C715.733 705.266 715.052 700.401 713.254 695.228L709.476 696.54L705.698 697.853C707.257 702.341 707.395 705.371 706.853 707.304L710.704 708.384ZM709.476 696.54L713.254 695.228C711.457 690.054 708.974 685.815 705.448 683.251L703.096 686.487L700.744 689.722C702.368 690.903 704.138 693.366 705.698 697.853L709.476 696.54ZM703.096 686.487L705.461 683.261C701.902 680.652 697.83 679.895 693.658 681.345L694.971 685.123L696.284 688.902C697.779 688.382 699.124 688.535 700.73 689.713L703.096 686.487ZM694.971 685.123L693.658 681.345C689.486 682.794 686.76 685.913 685.586 690.166L689.442 691.231L693.298 692.295C693.828 690.375 694.788 689.421 696.284 688.902L694.971 685.123ZM689.442 691.231L685.59 690.151C684.413 694.349 685.094 699.214 686.891 704.388L690.67 703.075L694.448 701.762C692.889 697.274 692.751 694.244 693.293 692.311L689.442 691.231ZM690.67 703.075L686.891 704.388C688.669 709.503 691.115 713.697 694.559 716.307L696.975 713.119L699.39 709.93C697.74 708.68 695.983 706.179 694.448 701.762L690.67 703.075ZM696.975 713.119L694.578 716.321C698.152 718.996 702.267 719.737 706.488 718.27L705.175 714.492L703.862 710.714C702.286 711.261 700.934 711.086 699.371 709.916L696.975 713.119Z" fill="#FEBC2F" mask="url(#path-12-outside-2_18_50)"/>
<mask id="path-14-outside-3_18_50" maskUnits="userSpaceOnUse" x="758.55" y="800.537" width="152.889" height="168.375" fill="black">
<rect fill="white" x="758.55" y="800.537" width="152.889" height="168.375"/>
<path d="M819.326 942.329C817.709 944.553 815.691 946.191 813.27 947.242C810.831 948.279 808.291 948.681 805.651 948.448C803.024 948.197 800.598 947.264 798.374 945.647C796.13 944.017 794.493 941.999 793.461 939.591C792.423 937.152 792.03 934.619 792.281 931.993C792.514 929.352 793.439 926.92 795.055 924.695C796.685 922.452 798.713 920.821 801.138 919.802C803.559 918.752 806.083 918.352 808.71 918.603C811.331 918.822 813.764 919.747 816.007 921.377C818.232 922.993 819.863 925.021 820.9 927.46C821.951 929.881 822.359 932.411 822.127 935.051C821.889 937.66 820.955 940.085 819.326 942.329ZM876.986 884.774L820.502 843.736L825.231 837.227L846.081 852.376L846.482 851.824C846.094 850.812 845.637 849.469 845.112 847.794C844.581 846.089 844.446 844.109 844.708 841.854C844.964 839.569 846.094 837.047 848.098 834.289C850.689 830.721 853.865 828.225 857.626 826.8C861.387 825.374 865.458 825.088 869.839 825.939C874.221 826.791 878.637 828.833 883.086 832.066C887.573 835.326 890.907 838.914 893.089 842.831C895.253 846.735 896.255 850.693 896.093 854.705C895.913 858.704 894.54 862.468 891.975 865.999C889.998 868.72 887.965 870.572 885.875 871.553C883.766 872.522 881.812 873.027 880.013 873.068C878.195 873.095 876.726 873.067 875.607 872.984L875.045 873.757L881.554 878.486L876.986 884.774ZM860.453 862.986C863.652 865.31 866.815 866.892 869.942 867.731C873.05 868.557 875.949 868.57 878.637 867.77C881.307 866.956 883.59 865.244 885.487 862.633C887.464 859.912 888.397 857.12 888.285 854.258C888.168 851.364 887.221 848.569 885.444 845.873C883.661 843.145 881.262 840.686 878.247 838.495C875.268 836.331 872.25 834.84 869.192 834.023C866.128 833.174 863.23 833.161 860.497 833.984C857.759 834.776 855.387 836.551 853.384 839.309C851.46 841.957 850.515 844.669 850.548 847.446C850.562 850.21 851.431 852.92 853.153 855.576C854.857 858.218 857.29 860.688 860.453 862.986Z"/>
</mask>
<path d="M819.326 942.329C817.709 944.553 815.691 946.191 813.27 947.242C810.831 948.279 808.291 948.681 805.651 948.448C803.024 948.197 800.598 947.264 798.374 945.647C796.13 944.017 794.493 941.999 793.461 939.591C792.423 937.152 792.03 934.619 792.281 931.993C792.514 929.352 793.439 926.92 795.055 924.695C796.685 922.452 798.713 920.821 801.138 919.802C803.559 918.752 806.083 918.352 808.71 918.603C811.331 918.822 813.764 919.747 816.007 921.377C818.232 922.993 819.863 925.021 820.9 927.46C821.951 929.881 822.359 932.411 822.127 935.051C821.889 937.66 820.955 940.085 819.326 942.329ZM876.986 884.774L820.502 843.736L825.231 837.227L846.081 852.376L846.482 851.824C846.094 850.812 845.637 849.469 845.112 847.794C844.581 846.089 844.446 844.109 844.708 841.854C844.964 839.569 846.094 837.047 848.098 834.289C850.689 830.721 853.865 828.225 857.626 826.8C861.387 825.374 865.458 825.088 869.839 825.939C874.221 826.791 878.637 828.833 883.086 832.066C887.573 835.326 890.907 838.914 893.089 842.831C895.253 846.735 896.255 850.693 896.093 854.705C895.913 858.704 894.54 862.468 891.975 865.999C889.998 868.72 887.965 870.572 885.875 871.553C883.766 872.522 881.812 873.027 880.013 873.068C878.195 873.095 876.726 873.067 875.607 872.984L875.045 873.757L881.554 878.486L876.986 884.774ZM860.453 862.986C863.652 865.31 866.815 866.892 869.942 867.731C873.05 868.557 875.949 868.57 878.637 867.77C881.307 866.956 883.59 865.244 885.487 862.633C887.464 859.912 888.397 857.12 888.285 854.258C888.168 851.364 887.221 848.569 885.444 845.873C883.661 843.145 881.262 840.686 878.247 838.495C875.268 836.331 872.25 834.84 869.192 834.023C866.128 833.174 863.23 833.161 860.497 833.984C857.759 834.776 855.387 836.551 853.384 839.309C851.46 841.957 850.515 844.669 850.548 847.446C850.562 850.21 851.431 852.92 853.153 855.576C854.857 858.218 857.29 860.688 860.453 862.986Z" fill="#FEBC2F"/>
<path d="M813.27 947.242L814.835 950.923L814.849 950.917L814.862 950.911L813.27 947.242ZM805.651 948.448L805.27 952.43L805.285 952.432L805.3 952.433L805.651 948.448ZM793.461 939.591L789.78 941.157L789.784 941.168L793.461 939.591ZM792.281 931.993L796.263 932.373L796.265 932.358L796.266 932.344L792.281 931.993ZM801.138 919.802L802.687 923.49L802.709 923.481L802.731 923.472L801.138 919.802ZM808.71 918.603L808.329 922.585L808.353 922.587L808.376 922.589L808.71 918.603ZM820.9 927.46L817.219 929.025L817.225 929.039L817.231 929.052L820.9 927.46ZM822.127 935.051L826.11 935.414L826.111 935.402L822.127 935.051ZM819.326 942.329L816.09 939.978C814.875 941.649 813.414 942.819 811.678 943.572L813.27 947.242L814.862 950.911C817.967 949.564 820.544 947.458 822.562 944.68L819.326 942.329ZM813.27 947.242L811.705 943.561C809.87 944.341 807.988 944.639 806.002 944.464L805.651 948.448L805.3 952.433C808.594 952.723 811.792 952.217 814.835 950.923L813.27 947.242ZM805.651 948.448L806.032 944.466C804.147 944.286 802.397 943.626 800.725 942.411L798.374 945.647L796.022 948.883C798.8 950.901 801.901 952.108 805.27 952.43L805.651 948.448ZM798.374 945.647L800.725 942.411C799.029 941.179 797.868 939.721 797.137 938.015L793.461 939.591L789.784 941.168C791.117 944.277 793.232 946.856 796.022 948.883L798.374 945.647ZM793.461 939.591L797.142 938.026C796.364 936.198 796.076 934.333 796.263 932.373L792.281 931.993L788.3 931.612C787.985 934.905 788.483 938.107 789.78 941.157L793.461 939.591ZM792.281 931.993L796.266 932.344C796.433 930.454 797.084 928.708 798.291 927.046L795.055 924.695L791.819 922.344C789.793 925.132 788.596 928.251 788.297 931.641L792.281 931.993ZM795.055 924.695L798.291 927.046C799.515 925.361 800.972 924.21 802.687 923.49L801.138 919.802L799.589 916.114C796.453 917.432 793.854 919.543 791.819 922.344L795.055 924.695ZM801.138 919.802L802.731 923.472C804.531 922.69 806.376 922.398 808.329 922.585L808.71 918.603L809.09 914.621C805.79 914.306 802.587 914.813 799.546 916.133L801.138 919.802ZM808.71 918.603L808.376 922.589C810.23 922.744 811.971 923.388 813.656 924.613L816.007 921.377L818.358 918.141C815.557 916.105 812.433 914.901 809.043 914.617L808.71 918.603ZM816.007 921.377L813.656 924.613C815.317 925.82 816.477 927.279 817.219 929.025L820.9 927.46L824.581 925.895C823.249 922.763 821.146 920.166 818.358 918.141L816.007 921.377ZM820.9 927.46L817.231 929.052C818.015 930.859 818.317 932.721 818.142 934.7L822.127 935.051L826.111 935.402C826.402 932.101 825.886 928.902 824.569 925.867L820.9 927.46ZM822.127 935.051L818.143 934.688C817.975 936.536 817.321 938.282 816.09 939.978L819.326 942.329L822.562 944.68C824.589 941.889 825.803 938.783 826.11 935.414L822.127 935.051ZM876.986 884.774L874.635 888.01L877.871 890.361L880.222 887.125L876.986 884.774ZM820.502 843.736L817.266 841.385L814.914 844.621L818.15 846.972L820.502 843.736ZM825.231 837.227L827.582 833.991L824.346 831.64L821.995 834.876L825.231 837.227ZM846.081 852.376L843.73 855.612L846.966 857.963L849.317 854.727L846.081 852.376ZM846.482 851.824L849.718 854.175L850.994 852.419L850.217 850.392L846.482 851.824ZM845.112 847.794L841.292 848.982L841.295 848.992L845.112 847.794ZM844.708 841.854L848.681 842.315L848.682 842.308L848.683 842.3L844.708 841.854ZM857.626 826.8L856.208 823.059L856.208 823.059L857.626 826.8ZM893.089 842.831L896.588 840.892L896.584 840.885L893.089 842.831ZM896.093 854.705L900.089 854.885L900.089 854.876L900.09 854.867L896.093 854.705ZM885.875 871.553L887.544 875.188L887.56 875.181L887.576 875.174L885.875 871.553ZM880.013 873.068L880.074 877.067L880.089 877.067L880.104 877.066L880.013 873.068ZM875.607 872.984L875.902 868.995L873.68 868.831L872.37 870.633L875.607 872.984ZM875.045 873.757L871.809 871.406L869.458 874.642L872.694 876.993L875.045 873.757ZM881.554 878.486L884.79 880.837L887.142 877.601L883.906 875.25L881.554 878.486ZM869.942 867.731L868.905 871.595L868.915 871.597L869.942 867.731ZM878.637 867.77L879.778 871.603L879.79 871.6L879.803 871.596L878.637 867.77ZM888.285 854.258L892.282 854.102L892.282 854.097L888.285 854.258ZM885.444 845.873L882.095 848.061L882.1 848.068L882.104 848.075L885.444 845.873ZM869.192 834.023L868.123 837.877L868.141 837.882L868.159 837.887L869.192 834.023ZM860.497 833.984L861.608 837.827L861.629 837.821L861.651 837.814L860.497 833.984ZM850.548 847.446L854.548 847.425L854.548 847.412L854.547 847.398L850.548 847.446ZM853.153 855.576L856.515 853.408L856.509 853.399L853.153 855.576ZM876.986 884.774L879.337 881.538L822.853 840.5L820.502 843.736L818.15 846.972L874.635 888.01L876.986 884.774ZM820.502 843.736L823.738 846.087L828.467 839.578L825.231 837.227L821.995 834.876L817.266 841.385L820.502 843.736ZM825.231 837.227L822.879 840.463L843.73 855.612L846.081 852.376L848.432 849.14L827.582 833.991L825.231 837.227ZM846.081 852.376L849.317 854.727L849.718 854.175L846.482 851.824L843.246 849.473L842.845 850.025L846.081 852.376ZM846.482 851.824L850.217 850.392C849.871 849.489 849.442 848.233 848.928 846.597L845.112 847.794L841.295 848.992C841.832 850.704 842.317 852.134 842.747 853.256L846.482 851.824ZM845.112 847.794L848.931 846.607C848.605 845.557 848.467 844.16 848.681 842.315L844.708 841.854L840.734 841.394C840.426 844.058 840.557 846.621 841.292 848.982L845.112 847.794ZM844.708 841.854L848.683 842.3C848.833 840.956 849.555 839.088 851.334 836.64L848.098 834.289L844.862 831.937C842.633 835.005 841.094 838.181 840.733 841.409L844.708 841.854ZM848.098 834.289L851.334 836.64C853.513 833.64 856.081 831.663 859.044 830.54L857.626 826.8L856.208 823.059C851.649 824.787 847.865 827.803 844.862 831.937L848.098 834.289ZM857.626 826.8L859.044 830.54C862.034 829.407 865.342 829.14 869.076 829.866L869.839 825.939L870.603 822.013C865.574 821.035 860.739 821.342 856.208 823.059L857.626 826.8ZM869.839 825.939L869.076 829.866C872.767 830.583 876.651 832.335 880.735 835.302L883.086 832.066L885.437 828.83C880.622 825.332 875.675 822.999 870.603 822.013L869.839 825.939ZM883.086 832.066L880.735 835.302C884.86 838.299 887.754 841.474 889.595 844.778L893.089 842.831L896.584 840.885C894.06 836.354 890.285 832.352 885.437 828.83L883.086 832.066ZM893.089 842.831L889.591 844.771C891.44 848.107 892.225 851.345 892.096 854.544L896.093 854.705L900.09 854.867C900.284 850.042 899.067 845.364 896.588 840.892L893.089 842.831ZM896.093 854.705L892.097 854.525C891.955 857.671 890.887 860.691 888.739 863.648L891.975 865.999L895.211 868.35C898.193 864.246 899.87 859.737 900.089 854.885L896.093 854.705ZM891.975 865.999L888.739 863.648C886.99 866.056 885.437 867.339 884.174 867.933L885.875 871.553L887.576 875.174C890.492 873.804 893.006 871.384 895.211 868.35L891.975 865.999ZM885.875 871.553L884.205 867.919C882.455 868.722 881.043 869.043 879.922 869.069L880.013 873.068L880.104 877.066C882.582 877.01 885.078 876.321 887.544 875.188L885.875 871.553ZM880.013 873.068L879.952 869.068C878.19 869.095 876.854 869.066 875.902 868.995L875.607 872.984L875.311 876.973C876.599 877.069 878.2 877.096 880.074 877.067L880.013 873.068ZM875.607 872.984L872.37 870.633L871.809 871.406L875.045 873.757L878.282 876.108L878.843 875.336L875.607 872.984ZM875.045 873.757L872.694 876.993L879.203 881.722L881.554 878.486L883.906 875.25L877.397 870.521L875.045 873.757ZM881.554 878.486L878.318 876.135L873.75 882.423L876.986 884.774L880.222 887.125L884.79 880.837L881.554 878.486ZM860.453 862.986L858.102 866.222C861.612 868.773 865.214 870.604 868.905 871.595L869.942 867.731L870.979 863.868C868.417 863.18 865.692 861.848 862.804 859.75L860.453 862.986ZM869.942 867.731L868.915 871.597C872.629 872.584 876.285 872.643 879.778 871.603L878.637 867.77L877.496 863.936C875.612 864.496 873.472 864.53 870.969 863.865L869.942 867.731ZM878.637 867.77L879.803 871.596C883.43 870.491 886.398 868.185 888.723 864.984L885.487 862.633L882.251 860.282C880.782 862.304 879.183 863.422 877.471 863.943L878.637 867.77ZM885.487 862.633L888.723 864.984C891.132 861.668 892.435 858.012 892.282 854.102L888.285 854.258L884.288 854.414C884.359 856.228 883.796 858.156 882.251 860.282L885.487 862.633ZM888.285 854.258L892.282 854.097C892.133 850.394 890.914 846.903 888.783 843.671L885.444 845.873L882.104 848.075C883.528 850.235 884.204 852.334 884.288 854.419L888.285 854.258ZM885.444 845.873L888.792 843.685C886.708 840.496 883.951 837.695 880.598 835.259L878.247 838.495L875.896 841.731C878.574 843.677 880.614 845.794 882.095 848.061L885.444 845.873ZM878.247 838.495L880.598 835.259C877.286 832.852 873.827 831.121 870.224 830.158L869.192 834.023L868.159 837.887C870.672 838.559 873.251 839.809 875.896 841.731L878.247 838.495ZM869.192 834.023L870.26 830.168C866.554 829.141 862.88 829.089 859.343 830.154L860.497 833.984L861.651 837.814C863.58 837.233 865.703 837.207 868.123 837.877L869.192 834.023ZM860.497 833.984L859.386 830.142C855.635 831.226 852.568 833.626 850.148 836.958L853.384 839.309L856.62 841.66C858.207 839.476 859.882 838.326 861.608 837.827L860.497 833.984ZM853.384 839.309L850.148 836.958C847.811 840.174 846.503 843.709 846.548 847.494L850.548 847.446L854.547 847.398C854.526 845.628 855.109 843.74 856.62 841.66L853.384 839.309ZM850.548 847.446L846.548 847.467C846.567 851.103 847.721 854.55 849.797 857.752L853.153 855.576L856.509 853.399C855.141 851.29 854.558 849.317 854.548 847.425L850.548 847.446ZM853.153 855.576L849.792 857.743C851.82 860.889 854.633 863.702 858.102 866.222L860.453 862.986L862.804 859.75C859.948 857.675 857.895 855.548 856.515 853.408L853.153 855.576Z" fill="#FEBC2F" mask="url(#path-14-outside-3_18_50)"/>
<mask id="path-16-outside-4_18_50" maskUnits="userSpaceOnUse" x="512" y="458" width="196" height="73" fill="black">
<rect fill="white" x="512" y="458" width="196" height="73"/>
<path d="M531.453 502.182C528.703 502.182 526.192 501.511 523.919 500.17C521.646 498.807 519.828 496.989 518.464 494.716C517.124 492.443 516.453 489.932 516.453 487.182C516.453 484.409 517.124 481.898 518.464 479.648C519.828 477.375 521.646 475.568 523.919 474.227C526.192 472.864 528.703 472.182 531.453 472.182C534.226 472.182 536.737 472.864 538.987 474.227C541.26 475.568 543.067 477.375 544.408 479.648C545.771 481.898 546.453 484.409 546.453 487.182C546.453 489.932 545.771 492.443 544.408 494.716C543.067 496.989 541.26 498.807 538.987 500.17C536.737 501.511 534.226 502.182 531.453 502.182ZM622.68 515L606.726 462.636H615.18L626.499 502.727H627.044L638.226 462.636H646.817L657.862 502.591H658.408L669.726 462.636H678.18L662.226 515H654.317L642.862 474.773H642.044L630.589 515H622.68ZM696.385 527V492.568H696.044L685.271 499.727V492.5L696.385 485.136H703.476V527H696.385Z"/>
</mask>
<path d="M531.453 502.182C528.703 502.182 526.192 501.511 523.919 500.17C521.646 498.807 519.828 496.989 518.464 494.716C517.124 492.443 516.453 489.932 516.453 487.182C516.453 484.409 517.124 481.898 518.464 479.648C519.828 477.375 521.646 475.568 523.919 474.227C526.192 472.864 528.703 472.182 531.453 472.182C534.226 472.182 536.737 472.864 538.987 474.227C541.26 475.568 543.067 477.375 544.408 479.648C545.771 481.898 546.453 484.409 546.453 487.182C546.453 489.932 545.771 492.443 544.408 494.716C543.067 496.989 541.26 498.807 538.987 500.17C536.737 501.511 534.226 502.182 531.453 502.182ZM622.68 515L606.726 462.636H615.18L626.499 502.727H627.044L638.226 462.636H646.817L657.862 502.591H658.408L669.726 462.636H678.18L662.226 515H654.317L642.862 474.773H642.044L630.589 515H622.68ZM696.385 527V492.568H696.044L685.271 499.727V492.5L696.385 485.136H703.476V527H696.385Z" fill="#FEBC2F"/>
<path d="M523.919 500.17L521.861 503.6L521.874 503.608L521.886 503.616L523.919 500.17ZM518.464 494.716L515.019 496.749L515.027 496.761L515.035 496.774L518.464 494.716ZM518.464 479.648L515.035 477.59L515.028 477.6L518.464 479.648ZM523.919 474.227L525.952 477.672L525.964 477.665L525.977 477.657L523.919 474.227ZM538.987 474.227L536.914 477.648L536.934 477.66L536.955 477.672L538.987 474.227ZM544.408 479.648L540.963 481.68L540.975 481.701L540.987 481.721L544.408 479.648ZM544.408 494.716L540.978 492.658L540.97 492.671L540.963 492.683L544.408 494.716ZM538.987 500.17L541.035 503.607L541.045 503.6L538.987 500.17ZM531.453 502.182V498.182C529.387 498.182 527.582 497.687 525.952 496.725L523.919 500.17L521.886 503.616C524.801 505.335 528.02 506.182 531.453 506.182V502.182ZM523.919 500.17L525.977 496.74C524.267 495.715 522.92 494.368 521.894 492.658L518.464 494.716L515.035 496.774C516.736 499.61 519.025 501.899 521.861 503.6L523.919 500.17ZM518.464 494.716L521.91 492.683C520.948 491.053 520.453 489.248 520.453 487.182H516.453H512.453C512.453 490.615 513.3 493.833 515.019 496.749L518.464 494.716ZM516.453 487.182H520.453C520.453 485.086 520.951 483.289 521.901 481.695L518.464 479.648L515.028 477.6C513.297 480.506 512.453 483.732 512.453 487.182H516.453ZM518.464 479.648L521.894 481.706C522.917 480.002 524.256 478.673 525.952 477.672L523.919 474.227L521.886 470.782C519.037 472.463 516.74 474.748 515.035 477.59L518.464 479.648ZM523.919 474.227L525.977 477.657C527.604 476.681 529.4 476.182 531.453 476.182V472.182V468.182C528.007 468.182 524.779 469.046 521.861 470.797L523.919 474.227ZM531.453 472.182V476.182C533.536 476.182 535.323 476.684 536.914 477.648L538.987 474.227L541.06 470.806C538.151 469.043 534.916 468.182 531.453 468.182V472.182ZM538.987 474.227L536.955 477.672C538.645 478.669 539.965 479.99 540.963 481.68L544.408 479.648L547.853 477.615C546.168 474.76 543.875 472.467 541.02 470.782L538.987 474.227ZM544.408 479.648L540.987 481.721C541.951 483.312 542.453 485.099 542.453 487.182H546.453H550.453C550.453 483.719 549.592 480.484 547.828 477.575L544.408 479.648ZM546.453 487.182H542.453C542.453 489.235 541.954 491.031 540.978 492.658L544.408 494.716L547.838 496.774C549.589 493.855 550.453 490.628 550.453 487.182H546.453ZM544.408 494.716L540.963 492.683C539.962 494.379 538.633 495.718 536.929 496.74L538.987 500.17L541.045 503.6C543.887 501.895 546.172 499.598 547.853 496.749L544.408 494.716ZM538.987 500.17L536.939 496.734C535.345 497.684 533.549 498.182 531.453 498.182V502.182V506.182C534.903 506.182 538.129 505.338 541.035 503.607L538.987 500.17ZM622.68 515L618.854 516.166L619.718 519H622.68V515ZM606.726 462.636V458.636H601.326L602.9 463.802L606.726 462.636ZM615.18 462.636L619.03 461.55L618.207 458.636H615.18V462.636ZM626.499 502.727L622.649 503.814L623.471 506.727H626.499V502.727ZM627.044 502.727V506.727H630.081L630.897 503.802L627.044 502.727ZM638.226 462.636V458.636H635.189L634.373 461.562L638.226 462.636ZM646.817 462.636L650.672 461.571L649.861 458.636H646.817V462.636ZM657.862 502.591L654.007 503.657L654.818 506.591H657.862V502.591ZM658.408 502.591V506.591H661.432L662.256 503.681L658.408 502.591ZM669.726 462.636V458.636H666.702L665.877 461.546L669.726 462.636ZM678.18 462.636L682.007 463.802L683.581 458.636H678.18V462.636ZM662.226 515V519H665.189L666.052 516.166L662.226 515ZM654.317 515L650.47 516.095L651.297 519H654.317V515ZM642.862 474.773L646.709 473.677L645.882 470.773H642.862V474.773ZM642.044 474.773V470.773H639.024L638.197 473.677L642.044 474.773ZM630.589 515V519H633.61L634.437 516.095L630.589 515ZM622.68 515L626.507 513.834L610.552 461.471L606.726 462.636L602.9 463.802L618.854 516.166L622.68 515ZM606.726 462.636V466.636H615.18V462.636V458.636H606.726V462.636ZM615.18 462.636L611.331 463.723L622.649 503.814L626.499 502.727L630.348 501.64L619.03 461.55L615.18 462.636ZM626.499 502.727V506.727H627.044V502.727V498.727H626.499V502.727ZM627.044 502.727L630.897 503.802L642.079 463.711L638.226 462.636L634.373 461.562L623.191 501.653L627.044 502.727ZM638.226 462.636V466.636H646.817V462.636V458.636H638.226V462.636ZM646.817 462.636L642.961 463.702L654.007 503.657L657.862 502.591L661.718 501.525L650.672 461.571L646.817 462.636ZM657.862 502.591V506.591H658.408V502.591V498.591H657.862V502.591ZM658.408 502.591L662.256 503.681L673.574 463.727L669.726 462.636L665.877 461.546L654.559 501.501L658.408 502.591ZM669.726 462.636V466.636H678.18V462.636V458.636H669.726V462.636ZM678.18 462.636L674.354 461.471L658.4 513.834L662.226 515L666.052 516.166L682.007 463.802L678.18 462.636ZM662.226 515V511H654.317V515V519H662.226V515ZM654.317 515L658.164 513.905L646.709 473.677L642.862 474.773L639.015 475.868L650.47 516.095L654.317 515ZM642.862 474.773V470.773H642.044V474.773V478.773H642.862V474.773ZM642.044 474.773L638.197 473.677L626.742 513.905L630.589 515L634.437 516.095L645.891 475.868L642.044 474.773ZM630.589 515V511H622.68V515V519H630.589V515ZM696.385 527H692.385V531H696.385V527ZM696.385 492.568H700.385V488.568H696.385V492.568ZM696.044 492.568V488.568H694.836L693.83 489.237L696.044 492.568ZM685.271 499.727H681.271V507.188L687.485 503.059L685.271 499.727ZM685.271 492.5L683.062 489.166L681.271 490.352V492.5H685.271ZM696.385 485.136V481.136H695.18L694.176 481.802L696.385 485.136ZM703.476 485.136H707.476V481.136H703.476V485.136ZM703.476 527V531H707.476V527H703.476ZM696.385 527H700.385V492.568H696.385H692.385V527H696.385ZM696.385 492.568V488.568H696.044V492.568V496.568H696.385V492.568ZM696.044 492.568L693.83 489.237L683.057 496.396L685.271 499.727L687.485 503.059L698.258 495.9L696.044 492.568ZM685.271 499.727H689.271V492.5H685.271H681.271V499.727H685.271ZM685.271 492.5L687.481 495.834L698.594 488.471L696.385 485.136L694.176 481.802L683.062 489.166L685.271 492.5ZM696.385 485.136V489.136H703.476V485.136V481.136H696.385V485.136ZM703.476 485.136H699.476V527H703.476H707.476V485.136H703.476ZM703.476 527V523H696.385V527V531H703.476V527Z" fill="#FEBC2F" mask="url(#path-16-outside-4_18_50)"/>
<rect x="2636" y="414" width="268" height="268" rx="134" fill="#D9D9D9"/>
<rect x="2633" y="411" width="274" height="274" rx="137" stroke="#404040" stroke-opacity="0.352941" stroke-width="6"/>
<path d="M2755.83 602.636C2754.46 602.636 2753.25 602.523 2752.18 602.295C2751.11 602.091 2750.37 601.886 2749.96 601.682L2752.01 594.591C2753.96 595.091 2755.69 595.273 2757.19 595.136C2758.69 595 2760.02 594.33 2761.18 593.125C2762.36 591.943 2763.44 590.023 2764.42 587.364L2765.92 583.273L2746.55 530.636H2755.28L2769.74 572.364H2770.28L2784.74 530.636H2793.46L2771.24 590.636C2770.24 593.341 2769 595.58 2767.52 597.352C2766.04 599.148 2764.33 600.477 2762.37 601.341C2760.44 602.205 2758.26 602.636 2755.83 602.636Z" fill="#2B2A2B"/>
<rect x="547" y="1056" width="268" height="268" rx="134" fill="#55A49F"/>
<rect x="544" y="1053" width="274" height="274" rx="137" stroke="#404040" stroke-opacity="0.352941" stroke-width="6"/>
<path d="M690.46 1155.18V1225H682.006V1164.05H681.597L664.551 1175.36V1166.77L682.006 1155.18H690.46Z" fill="#2B2A2B"/>
<rect x="911" y="368" width="360" height="360" rx="180" fill="#BF85FC"/>
<rect x="908" y="365" width="366" height="366" rx="183" stroke="#404040" stroke-opacity="0.352941" stroke-width="6"/>
<path d="M1143.78 498.099V483.757H1050.56L1105.41 542.755C1108.84 546.453 1108.8 552.201 1105.3 555.836L1051.07 612.244H1143.77V603.582C1143.77 598.334 1148.04 594.064 1153.29 594.064C1158.54 594.064 1162.82 598.334 1162.82 603.582V621.761C1162.82 627.011 1158.54 631.284 1153.29 631.284H1028.7C1024.88 631.284 1021.44 629.012 1019.95 625.493C1018.45 621.975 1019.19 617.921 1021.84 615.164L1085.34 549.129L1021.73 480.72C1019.15 477.944 1018.47 473.909 1019.98 470.434C1021.49 466.961 1024.92 464.716 1028.7 464.716H1153.3C1158.54 464.716 1162.82 468.986 1162.82 474.238V498.099C1162.82 503.348 1158.55 507.62 1153.3 507.62C1148.05 507.62 1143.78 503.35 1143.78 498.099Z" fill="#2B2A2B"/>
<rect x="1763" y="368" width="360" height="360" rx="180" fill="#D97192"/>
<rect x="1760" y="365" width="366" height="366" rx="183" stroke="#404040" stroke-opacity="0.352941" stroke-width="6"/>
<line x1="1817" y1="599.5" x2="1947" y2="599.5" stroke="#2B2A2B" stroke-width="8"/>
<line x1="1939" y1="496.5" x2="2069" y2="496.5" stroke="#2B2A2B" stroke-width="8"/>
<line x1="1943" y1="492.5" x2="1943" y2="603.5" stroke="#2B2A2B" stroke-width="8"/>
<path d="M1014 743L961.249 766.467L1007.95 800.417L1014 743ZM777 1069L781.044 1071.94L991.583 782.338L987.539 779.398L983.495 776.458L772.956 1066.06L777 1069Z" fill="#FEBC2F"/>
<path d="M924.508 668.575L867.803 657.716L886.752 712.253L924.508 668.575ZM274.492 894.425L276.133 899.149L883.642 688.067L882.001 683.344L880.36 678.621L272.851 889.702L274.492 894.425Z" fill="#FEBC2F"/>
<path d="M924.816 440.084L887.058 396.408L868.112 450.946L924.816 440.084ZM274 214L272.359 218.723L880.667 430.04L882.308 425.317L883.949 420.594L275.641 209.277L274 214Z" fill="#FEBC2F"/>
<path d="M893 548L843 519.132V576.868L893 548ZM307 548V553H848V548V543H307V548Z" fill="#FEBC2F"/>
<path d="M1743 548L1693 519.132V576.868L1743 548ZM1291 548V553H1698V548V543H1291V548Z" fill="#2B2A2B"/>
<path d="M2603 548L2553 519.132V576.868L2603 548ZM2151 548V553H2558V548V543H2151V548Z" fill="#2B2A2B"/>
<rect x="1401" y="1011" width="116" height="79" fill="#FEBC2F"/>
<path d="M1575.52 1014.18V1084H1567.47V1014.18H1575.52ZM1612.21 1085.09C1607.16 1085.09 1602.81 1083.98 1599.15 1081.75C1595.52 1079.5 1592.71 1076.36 1590.73 1072.34C1588.78 1068.3 1587.8 1063.59 1587.8 1058.23C1587.8 1052.86 1588.78 1048.14 1590.73 1044.05C1592.71 1039.93 1595.46 1036.73 1598.98 1034.43C1602.53 1032.11 1606.66 1030.95 1611.39 1030.95C1614.12 1030.95 1616.81 1031.41 1619.47 1032.32C1622.13 1033.23 1624.55 1034.7 1626.73 1036.75C1628.91 1038.77 1630.65 1041.45 1631.95 1044.8C1633.24 1048.14 1633.89 1052.25 1633.89 1057.14V1060.55H1593.53V1053.59H1625.71C1625.71 1050.64 1625.12 1048 1623.94 1045.68C1622.78 1043.36 1621.12 1041.53 1618.96 1040.19C1616.82 1038.85 1614.3 1038.18 1611.39 1038.18C1608.19 1038.18 1605.41 1038.98 1603.07 1040.57C1600.75 1042.14 1598.97 1044.18 1597.72 1046.7C1596.47 1049.23 1595.85 1051.93 1595.85 1054.82V1059.45C1595.85 1063.41 1596.53 1066.76 1597.89 1069.51C1599.28 1072.24 1601.2 1074.32 1603.65 1075.75C1606.11 1077.16 1608.96 1077.86 1612.21 1077.86C1614.32 1077.86 1616.23 1077.57 1617.94 1076.98C1619.66 1076.36 1621.15 1075.45 1622.4 1074.25C1623.65 1073.02 1624.62 1071.5 1625.3 1069.68L1633.07 1071.86C1632.25 1074.5 1630.88 1076.82 1628.95 1078.82C1627.02 1080.8 1624.63 1082.34 1621.79 1083.45C1618.95 1084.55 1615.75 1085.09 1612.21 1085.09ZM1661.54 1085.23C1658.22 1085.23 1655.21 1084.6 1652.5 1083.35C1649.8 1082.08 1647.65 1080.25 1646.06 1077.86C1644.47 1075.45 1643.67 1072.55 1643.67 1069.14C1643.67 1066.14 1644.27 1063.7 1645.45 1061.84C1646.63 1059.95 1648.21 1058.48 1650.19 1057.41C1652.16 1056.34 1654.35 1055.55 1656.73 1055.02C1659.14 1054.48 1661.56 1054.05 1663.99 1053.73C1667.17 1053.32 1669.75 1053.01 1671.73 1052.81C1673.73 1052.58 1675.19 1052.2 1676.1 1051.68C1677.03 1051.16 1677.49 1050.25 1677.49 1048.95V1048.68C1677.49 1045.32 1676.57 1042.7 1674.73 1040.84C1672.91 1038.98 1670.15 1038.05 1666.45 1038.05C1662.61 1038.05 1659.6 1038.89 1657.41 1040.57C1655.23 1042.25 1653.7 1044.05 1652.81 1045.95L1645.17 1043.23C1646.54 1040.05 1648.36 1037.57 1650.63 1035.8C1652.92 1034 1655.42 1032.75 1658.13 1032.05C1660.86 1031.32 1663.54 1030.95 1666.17 1030.95C1667.86 1030.95 1669.79 1031.16 1671.97 1031.57C1674.17 1031.95 1676.3 1032.76 1678.35 1033.99C1680.41 1035.22 1682.13 1037.07 1683.49 1039.55C1684.86 1042.02 1685.54 1045.34 1685.54 1049.5V1084H1677.49V1076.91H1677.08C1676.54 1078.05 1675.63 1079.26 1674.36 1080.56C1673.08 1081.85 1671.39 1082.95 1669.28 1083.86C1667.16 1084.77 1664.58 1085.23 1661.54 1085.23ZM1662.77 1078C1665.95 1078 1668.63 1077.38 1670.81 1076.12C1673.02 1074.88 1674.67 1073.26 1675.79 1071.28C1676.92 1069.31 1677.49 1067.23 1677.49 1065.05V1057.68C1677.15 1058.09 1676.4 1058.47 1675.24 1058.81C1674.11 1059.12 1672.79 1059.41 1671.29 1059.66C1669.81 1059.89 1668.37 1060.09 1666.96 1060.27C1665.57 1060.43 1664.45 1060.57 1663.58 1060.68C1661.49 1060.95 1659.54 1061.4 1657.72 1062.01C1655.92 1062.6 1654.47 1063.5 1653.36 1064.7C1652.27 1065.89 1651.72 1067.5 1651.72 1069.55C1651.72 1072.34 1652.75 1074.45 1654.82 1075.89C1656.91 1077.3 1659.56 1078 1662.77 1078ZM1700.22 1084V1031.64H1708V1039.55H1708.54C1709.5 1036.95 1711.22 1034.85 1713.72 1033.24C1716.22 1031.62 1719.04 1030.82 1722.18 1030.82C1722.77 1030.82 1723.51 1030.83 1724.39 1030.85C1725.28 1030.87 1725.95 1030.91 1726.4 1030.95V1039.14C1726.13 1039.07 1725.51 1038.97 1724.53 1038.83C1723.58 1038.67 1722.56 1038.59 1721.5 1038.59C1718.95 1038.59 1716.68 1039.12 1714.68 1040.19C1712.7 1041.24 1711.13 1042.69 1709.97 1044.56C1708.84 1046.4 1708.27 1048.5 1708.27 1050.86V1084H1700.22ZM1743.99 1052.5V1084H1735.94V1031.64H1743.71V1039.82H1744.4C1745.62 1037.16 1747.49 1035.02 1749.99 1033.41C1752.49 1031.77 1755.71 1030.95 1759.67 1030.95C1763.21 1030.95 1766.32 1031.68 1768.98 1033.14C1771.63 1034.57 1773.7 1036.75 1775.18 1039.68C1776.66 1042.59 1777.4 1046.27 1777.4 1050.73V1084H1769.35V1051.27C1769.35 1047.16 1768.28 1043.95 1766.15 1041.66C1764.01 1039.34 1761.08 1038.18 1757.35 1038.18C1754.78 1038.18 1752.49 1038.74 1750.46 1039.85C1748.46 1040.97 1746.88 1042.59 1745.73 1044.73C1744.57 1046.86 1743.99 1049.45 1743.99 1052.5ZM1807.51 1085.23C1804.19 1085.23 1801.18 1084.6 1798.47 1083.35C1795.77 1082.08 1793.62 1080.25 1792.03 1077.86C1790.44 1075.45 1789.64 1072.55 1789.64 1069.14C1789.64 1066.14 1790.23 1063.7 1791.42 1061.84C1792.6 1059.95 1794.18 1058.48 1796.15 1057.41C1798.13 1056.34 1800.31 1055.55 1802.7 1055.02C1805.11 1054.48 1807.53 1054.05 1809.96 1053.73C1813.14 1053.32 1815.72 1053.01 1817.7 1052.81C1819.7 1052.58 1821.15 1052.2 1822.06 1051.68C1823 1051.16 1823.46 1050.25 1823.46 1048.95V1048.68C1823.46 1045.32 1822.54 1042.7 1820.7 1040.84C1818.88 1038.98 1816.12 1038.05 1812.42 1038.05C1808.58 1038.05 1805.56 1038.89 1803.38 1040.57C1801.2 1042.25 1799.67 1044.05 1798.78 1045.95L1791.14 1043.23C1792.51 1040.05 1794.33 1037.57 1796.6 1035.8C1798.89 1034 1801.39 1032.75 1804.1 1032.05C1806.83 1031.32 1809.51 1030.95 1812.14 1030.95C1813.83 1030.95 1815.76 1031.16 1817.94 1031.57C1820.14 1031.95 1822.27 1032.76 1824.31 1033.99C1826.38 1035.22 1828.1 1037.07 1829.46 1039.55C1830.83 1042.02 1831.51 1045.34 1831.51 1049.5V1084H1823.46V1076.91H1823.05C1822.51 1078.05 1821.6 1079.26 1820.33 1080.56C1819.05 1081.85 1817.36 1082.95 1815.25 1083.86C1813.13 1084.77 1810.55 1085.23 1807.51 1085.23ZM1808.73 1078C1811.92 1078 1814.6 1077.38 1816.78 1076.12C1818.98 1074.88 1820.64 1073.26 1821.76 1071.28C1822.89 1069.31 1823.46 1067.23 1823.46 1065.05V1057.68C1823.12 1058.09 1822.37 1058.47 1821.21 1058.81C1820.08 1059.12 1818.76 1059.41 1817.26 1059.66C1815.78 1059.89 1814.34 1060.09 1812.93 1060.27C1811.54 1060.43 1810.42 1060.57 1809.55 1060.68C1807.46 1060.95 1805.51 1061.4 1803.69 1062.01C1801.89 1062.6 1800.44 1063.5 1799.33 1064.7C1798.23 1065.89 1797.69 1067.5 1797.69 1069.55C1797.69 1072.34 1798.72 1074.45 1800.79 1075.89C1802.88 1077.3 1805.53 1078 1808.73 1078ZM1847.28 1084V1014.18H1855.33V1039.95H1856.01C1856.6 1039.05 1857.42 1037.89 1858.46 1036.48C1859.53 1035.05 1861.06 1033.77 1863.03 1032.66C1865.03 1031.52 1867.74 1030.95 1871.15 1030.95C1875.56 1030.95 1879.44 1032.06 1882.81 1034.26C1886.17 1036.47 1888.79 1039.59 1890.68 1043.64C1892.57 1047.68 1893.51 1052.45 1893.51 1057.95C1893.51 1063.5 1892.57 1068.31 1890.68 1072.38C1888.79 1076.42 1886.18 1079.56 1882.84 1081.78C1879.5 1083.99 1875.65 1085.09 1871.28 1085.09C1867.92 1085.09 1865.23 1084.53 1863.2 1083.42C1861.18 1082.28 1859.62 1081 1858.53 1079.57C1857.44 1078.11 1856.6 1076.91 1856.01 1075.95H1855.06V1084H1847.28ZM1855.19 1057.82C1855.19 1061.77 1855.77 1065.26 1856.93 1068.28C1858.09 1071.28 1859.78 1073.64 1862.01 1075.34C1864.24 1077.02 1866.96 1077.86 1870.19 1077.86C1873.56 1077.86 1876.36 1076.98 1878.61 1075.2C1880.88 1073.41 1882.59 1071 1883.73 1067.98C1884.88 1064.93 1885.46 1061.55 1885.46 1057.82C1885.46 1054.14 1884.9 1050.82 1883.76 1047.86C1882.65 1044.89 1880.95 1042.53 1878.68 1040.81C1876.43 1039.06 1873.6 1038.18 1870.19 1038.18C1866.92 1038.18 1864.17 1039.01 1861.94 1040.67C1859.71 1042.31 1858.03 1044.6 1856.9 1047.56C1855.76 1050.49 1855.19 1053.91 1855.19 1057.82ZM1913.86 1014.18V1084H1905.82V1014.18H1913.86ZM1950.55 1085.09C1945.51 1085.09 1941.15 1083.98 1937.5 1081.75C1933.86 1079.5 1931.05 1076.36 1929.08 1072.34C1927.12 1068.3 1926.14 1063.59 1926.14 1058.23C1926.14 1052.86 1927.12 1048.14 1929.08 1044.05C1931.05 1039.93 1933.8 1036.73 1937.33 1034.43C1940.87 1032.11 1945.01 1030.95 1949.73 1030.95C1952.46 1030.95 1955.15 1031.41 1957.81 1032.32C1960.47 1033.23 1962.89 1034.7 1965.08 1036.75C1967.26 1038.77 1969 1041.45 1970.29 1044.8C1971.59 1048.14 1972.23 1052.25 1972.23 1057.14V1060.55H1931.87V1053.59H1964.05C1964.05 1050.64 1963.46 1048 1962.28 1045.68C1961.12 1043.36 1959.46 1041.53 1957.3 1040.19C1955.17 1038.85 1952.64 1038.18 1949.73 1038.18C1946.53 1038.18 1943.76 1038.98 1941.42 1040.57C1939.1 1042.14 1937.31 1044.18 1936.06 1046.7C1934.81 1049.23 1934.19 1051.93 1934.19 1054.82V1059.45C1934.19 1063.41 1934.87 1066.76 1936.23 1069.51C1937.62 1072.24 1939.54 1074.32 1942 1075.75C1944.45 1077.16 1947.3 1077.86 1950.55 1077.86C1952.67 1077.86 1954.58 1077.57 1956.28 1076.98C1958.01 1076.36 1959.5 1075.45 1960.75 1074.25C1962 1073.02 1962.96 1071.5 1963.64 1069.68L1971.42 1071.86C1970.6 1074.5 1969.22 1076.82 1967.29 1078.82C1965.36 1080.8 1962.97 1082.34 1960.13 1083.45C1957.29 1084.55 1954.1 1085.09 1950.55 1085.09ZM2011.47 1103.64V1031.64H2019.25V1039.95H2020.2C2020.79 1039.05 2021.61 1037.89 2022.65 1036.48C2023.72 1035.05 2025.25 1033.77 2027.22 1032.66C2029.22 1031.52 2031.93 1030.95 2035.34 1030.95C2039.75 1030.95 2043.63 1032.06 2047 1034.26C2050.36 1036.47 2052.98 1039.59 2054.87 1043.64C2056.76 1047.68 2057.7 1052.45 2057.7 1057.95C2057.7 1063.5 2056.76 1068.31 2054.87 1072.38C2052.98 1076.42 2050.37 1079.56 2047.03 1081.78C2043.69 1083.99 2039.84 1085.09 2035.47 1085.09C2032.11 1085.09 2029.42 1084.53 2027.39 1083.42C2025.37 1082.28 2023.81 1081 2022.72 1079.57C2021.63 1078.11 2020.79 1076.91 2020.2 1075.95H2019.52V1103.64H2011.47ZM2019.38 1057.82C2019.38 1061.77 2019.96 1065.26 2021.12 1068.28C2022.28 1071.28 2023.97 1073.64 2026.2 1075.34C2028.43 1077.02 2031.15 1077.86 2034.38 1077.86C2037.75 1077.86 2040.55 1076.98 2042.8 1075.2C2045.08 1073.41 2046.78 1071 2047.92 1067.98C2049.08 1064.93 2049.65 1061.55 2049.65 1057.82C2049.65 1054.14 2049.09 1050.82 2047.95 1047.86C2046.84 1044.89 2045.14 1042.53 2042.87 1040.81C2040.62 1039.06 2037.79 1038.18 2034.38 1038.18C2031.11 1038.18 2028.36 1039.01 2026.13 1040.67C2023.9 1042.31 2022.22 1044.6 2021.09 1047.56C2019.95 1050.49 2019.38 1053.91 2019.38 1057.82ZM2085.38 1085.23C2082.06 1085.23 2079.05 1084.6 2076.35 1083.35C2073.64 1082.08 2071.5 1080.25 2069.9 1077.86C2068.31 1075.45 2067.52 1072.55 2067.52 1069.14C2067.52 1066.14 2068.11 1063.7 2069.29 1061.84C2070.47 1059.95 2072.05 1058.48 2074.03 1057.41C2076.01 1056.34 2078.19 1055.55 2080.58 1055.02C2082.98 1054.48 2085.4 1054.05 2087.84 1053.73C2091.02 1053.32 2093.6 1053.01 2095.58 1052.81C2097.58 1052.58 2099.03 1052.2 2099.94 1051.68C2100.87 1051.16 2101.34 1050.25 2101.34 1048.95V1048.68C2101.34 1045.32 2100.42 1042.7 2098.58 1040.84C2096.76 1038.98 2094 1038.05 2090.29 1038.05C2086.45 1038.05 2083.44 1038.89 2081.26 1040.57C2079.08 1042.25 2077.54 1044.05 2076.65 1045.95L2069.02 1043.23C2070.38 1040.05 2072.2 1037.57 2074.47 1035.8C2076.77 1034 2079.27 1032.75 2081.97 1032.05C2084.7 1031.32 2087.38 1030.95 2090.02 1030.95C2091.7 1030.95 2093.63 1031.16 2095.81 1031.57C2098.02 1031.95 2100.14 1032.76 2102.19 1033.99C2104.26 1035.22 2105.97 1037.07 2107.34 1039.55C2108.7 1042.02 2109.38 1045.34 2109.38 1049.5V1084H2101.34V1076.91H2100.93C2100.38 1078.05 2099.47 1079.26 2098.2 1080.56C2096.93 1081.85 2095.23 1082.95 2093.12 1083.86C2091.01 1084.77 2088.43 1085.23 2085.38 1085.23ZM2086.61 1078C2089.79 1078 2092.47 1077.38 2094.65 1076.12C2096.86 1074.88 2098.52 1073.26 2099.63 1071.28C2100.77 1069.31 2101.34 1067.23 2101.34 1065.05V1057.68C2101 1058.09 2100.25 1058.47 2099.09 1058.81C2097.95 1059.12 2096.63 1059.41 2095.13 1059.66C2093.65 1059.89 2092.21 1060.09 2090.8 1060.27C2089.42 1060.43 2088.29 1060.57 2087.43 1060.68C2085.34 1060.95 2083.38 1061.4 2081.56 1062.01C2079.77 1062.6 2078.31 1063.5 2077.2 1064.7C2076.11 1065.89 2075.56 1067.5 2075.56 1069.55C2075.56 1072.34 2076.6 1074.45 2078.67 1075.89C2080.76 1077.3 2083.4 1078 2086.61 1078ZM2124.07 1084V1031.64H2131.84V1039.55H2132.38C2133.34 1036.95 2135.07 1034.85 2137.57 1033.24C2140.07 1031.62 2142.88 1030.82 2146.02 1030.82C2146.61 1030.82 2147.35 1030.83 2148.24 1030.85C2149.12 1030.87 2149.79 1030.91 2150.25 1030.95V1039.14C2149.98 1039.07 2149.35 1038.97 2148.37 1038.83C2147.42 1038.67 2146.41 1038.59 2145.34 1038.59C2142.79 1038.59 2140.52 1039.12 2138.52 1040.19C2136.54 1041.24 2134.98 1042.69 2133.82 1044.56C2132.68 1046.4 2132.11 1048.5 2132.11 1050.86V1084H2124.07ZM2175.19 1085.23C2171.88 1085.23 2168.87 1084.6 2166.16 1083.35C2163.46 1082.08 2161.31 1080.25 2159.72 1077.86C2158.13 1075.45 2157.33 1072.55 2157.33 1069.14C2157.33 1066.14 2157.92 1063.7 2159.1 1061.84C2160.29 1059.95 2161.87 1058.48 2163.84 1057.41C2165.82 1056.34 2168 1055.55 2170.39 1055.02C2172.8 1054.48 2175.22 1054.05 2177.65 1053.73C2180.83 1053.32 2183.41 1053.01 2185.39 1052.81C2187.39 1052.58 2188.84 1052.2 2189.75 1051.68C2190.68 1051.16 2191.15 1050.25 2191.15 1048.95V1048.68C2191.15 1045.32 2190.23 1042.7 2188.39 1040.84C2186.57 1038.98 2183.81 1038.05 2180.1 1038.05C2176.26 1038.05 2173.25 1038.89 2171.07 1040.57C2168.89 1042.25 2167.35 1044.05 2166.47 1045.95L2158.83 1043.23C2160.19 1040.05 2162.01 1037.57 2164.29 1035.8C2166.58 1034 2169.08 1032.75 2171.79 1032.05C2174.51 1031.32 2177.19 1030.95 2179.83 1030.95C2181.51 1030.95 2183.44 1031.16 2185.63 1031.57C2187.83 1031.95 2189.96 1032.76 2192 1033.99C2194.07 1035.22 2195.79 1037.07 2197.15 1039.55C2198.51 1042.02 2199.19 1045.34 2199.19 1049.5V1084H2191.15V1076.91H2190.74C2190.19 1078.05 2189.29 1079.26 2188.01 1080.56C2186.74 1081.85 2185.05 1082.95 2182.93 1083.86C2180.82 1084.77 2178.24 1085.23 2175.19 1085.23ZM2176.42 1078C2179.6 1078 2182.29 1077.38 2184.47 1076.12C2186.67 1074.88 2188.33 1073.26 2189.44 1071.28C2190.58 1069.31 2191.15 1067.23 2191.15 1065.05V1057.68C2190.81 1058.09 2190.06 1058.47 2188.9 1058.81C2187.76 1059.12 2186.44 1059.41 2184.94 1059.66C2183.47 1059.89 2182.02 1060.09 2180.62 1060.27C2179.23 1060.43 2178.1 1060.57 2177.24 1060.68C2175.15 1060.95 2173.19 1061.4 2171.38 1062.01C2169.58 1062.6 2168.13 1063.5 2167.01 1064.7C2165.92 1065.89 2165.38 1067.5 2165.38 1069.55C2165.38 1072.34 2166.41 1074.45 2168.48 1075.89C2170.57 1077.3 2173.22 1078 2176.42 1078ZM2213.88 1084V1031.64H2221.65V1039.82H2222.33C2223.42 1037.02 2225.19 1034.85 2227.62 1033.31C2230.05 1031.74 2232.97 1030.95 2236.38 1030.95C2239.83 1030.95 2242.71 1031.74 2245 1033.31C2247.32 1034.85 2249.13 1037.02 2250.42 1039.82H2250.97C2252.31 1037.11 2254.32 1034.97 2257 1033.38C2259.69 1031.76 2262.9 1030.95 2266.65 1030.95C2271.33 1030.95 2275.16 1032.42 2278.14 1035.35C2281.12 1038.26 2282.61 1042.8 2282.61 1048.95V1084H2274.56V1048.95C2274.56 1045.09 2273.5 1042.33 2271.39 1040.67C2269.28 1039.01 2266.79 1038.18 2263.92 1038.18C2260.24 1038.18 2257.39 1039.3 2255.37 1041.52C2253.35 1043.73 2252.33 1046.52 2252.33 1049.91V1084H2244.15V1048.14C2244.15 1045.16 2243.19 1042.76 2241.25 1040.94C2239.32 1039.1 2236.83 1038.18 2233.79 1038.18C2231.7 1038.18 2229.74 1038.74 2227.92 1039.85C2226.13 1040.97 2224.67 1042.51 2223.56 1044.49C2222.47 1046.44 2221.92 1048.7 2221.92 1051.27V1084H2213.88ZM2319.27 1085.09C2314.23 1085.09 2309.87 1083.98 2306.21 1081.75C2302.58 1079.5 2299.77 1076.36 2297.79 1072.34C2295.84 1068.3 2294.86 1063.59 2294.86 1058.23C2294.86 1052.86 2295.84 1048.14 2297.79 1044.05C2299.77 1039.93 2302.52 1036.73 2306.04 1034.43C2309.59 1032.11 2313.73 1030.95 2318.45 1030.95C2321.18 1030.95 2323.87 1031.41 2326.53 1032.32C2329.19 1033.23 2331.61 1034.7 2333.79 1036.75C2335.98 1038.77 2337.71 1041.45 2339.01 1044.8C2340.31 1048.14 2340.95 1052.25 2340.95 1057.14V1060.55H2300.59V1053.59H2332.77C2332.77 1050.64 2332.18 1048 2331 1045.68C2329.84 1043.36 2328.18 1041.53 2326.02 1040.19C2323.88 1038.85 2321.36 1038.18 2318.45 1038.18C2315.25 1038.18 2312.48 1038.98 2310.13 1040.57C2307.82 1042.14 2306.03 1044.18 2304.78 1046.7C2303.53 1049.23 2302.91 1051.93 2302.91 1054.82V1059.45C2302.91 1063.41 2303.59 1066.76 2304.95 1069.51C2306.34 1072.24 2308.26 1074.32 2310.71 1075.75C2313.17 1077.16 2316.02 1077.86 2319.27 1077.86C2321.38 1077.86 2323.29 1077.57 2325 1076.98C2326.73 1076.36 2328.21 1075.45 2329.46 1074.25C2330.71 1073.02 2331.68 1071.5 2332.36 1069.68L2340.13 1071.86C2339.32 1074.5 2337.94 1076.82 2336.01 1078.82C2334.08 1080.8 2331.69 1082.34 2328.85 1083.45C2326.01 1084.55 2322.82 1085.09 2319.27 1085.09ZM2375.96 1031.64V1038.45H2348.83V1031.64H2375.96ZM2356.74 1019.09H2364.78V1069C2364.78 1071.27 2365.11 1072.98 2365.77 1074.11C2366.45 1075.23 2367.32 1075.98 2368.36 1076.36C2369.43 1076.73 2370.56 1076.91 2371.74 1076.91C2372.62 1076.91 2373.35 1076.86 2373.92 1076.77C2374.49 1076.66 2374.94 1076.57 2375.28 1076.5L2376.92 1083.73C2376.37 1083.93 2375.61 1084.14 2374.63 1084.34C2373.66 1084.57 2372.42 1084.68 2370.92 1084.68C2368.65 1084.68 2366.42 1084.19 2364.24 1083.22C2362.08 1082.24 2360.28 1080.75 2358.85 1078.75C2357.44 1076.75 2356.74 1074.23 2356.74 1071.18V1019.09ZM2409.46 1085.09C2404.41 1085.09 2400.06 1083.98 2396.4 1081.75C2392.77 1079.5 2389.96 1076.36 2387.98 1072.34C2386.03 1068.3 2385.05 1063.59 2385.05 1058.23C2385.05 1052.86 2386.03 1048.14 2387.98 1044.05C2389.96 1039.93 2392.71 1036.73 2396.23 1034.43C2399.78 1032.11 2403.91 1030.95 2408.64 1030.95C2411.37 1030.95 2414.06 1031.41 2416.72 1032.32C2419.38 1033.23 2421.8 1034.7 2423.98 1036.75C2426.16 1038.77 2427.9 1041.45 2429.2 1044.8C2430.49 1048.14 2431.14 1052.25 2431.14 1057.14V1060.55H2390.78V1053.59H2422.96C2422.96 1050.64 2422.37 1048 2421.19 1045.68C2420.03 1043.36 2418.37 1041.53 2416.21 1040.19C2414.07 1038.85 2411.55 1038.18 2408.64 1038.18C2405.44 1038.18 2402.66 1038.98 2400.32 1040.57C2398 1042.14 2396.22 1044.18 2394.97 1046.7C2393.72 1049.23 2393.1 1051.93 2393.1 1054.82V1059.45C2393.1 1063.41 2393.78 1066.76 2395.14 1069.51C2396.53 1072.24 2398.45 1074.32 2400.9 1075.75C2403.36 1077.16 2406.21 1077.86 2409.46 1077.86C2411.57 1077.86 2413.48 1077.57 2415.19 1076.98C2416.91 1076.36 2418.4 1075.45 2419.65 1074.25C2420.9 1073.02 2421.87 1071.5 2422.55 1069.68L2430.32 1071.86C2429.5 1074.5 2428.13 1076.82 2426.2 1078.82C2424.27 1080.8 2421.88 1082.34 2419.04 1083.45C2416.2 1084.55 2413 1085.09 2409.46 1085.09ZM2443.38 1084V1031.64H2451.15V1039.55H2451.7C2452.65 1036.95 2454.38 1034.85 2456.88 1033.24C2459.38 1031.62 2462.2 1030.82 2465.33 1030.82C2465.92 1030.82 2466.66 1030.83 2467.55 1030.85C2468.44 1030.87 2469.11 1030.91 2469.56 1030.95V1039.14C2469.29 1039.07 2468.66 1038.97 2467.69 1038.83C2466.73 1038.67 2465.72 1038.59 2464.65 1038.59C2462.11 1038.59 2459.83 1039.12 2457.83 1040.19C2455.86 1041.24 2454.29 1042.69 2453.13 1044.56C2451.99 1046.4 2451.42 1048.5 2451.42 1050.86V1084H2443.38ZM2516.19 1043.36L2508.96 1045.41C2508.51 1044.2 2507.84 1043.03 2506.95 1041.9C2506.09 1040.74 2504.9 1039.78 2503.4 1039.03C2501.9 1038.28 2499.98 1037.91 2497.64 1037.91C2494.44 1037.91 2491.77 1038.65 2489.63 1040.12C2487.52 1041.58 2486.46 1043.43 2486.46 1045.68C2486.46 1047.68 2487.19 1049.26 2488.64 1050.42C2490.1 1051.58 2492.37 1052.55 2495.46 1053.32L2503.23 1055.23C2507.92 1056.36 2511.4 1058.1 2513.7 1060.44C2516 1062.76 2517.14 1065.75 2517.14 1069.41C2517.14 1072.41 2516.28 1075.09 2514.55 1077.45C2512.85 1079.82 2510.46 1081.68 2507.39 1083.05C2504.33 1084.41 2500.76 1085.09 2496.69 1085.09C2491.35 1085.09 2486.93 1083.93 2483.43 1081.61C2479.93 1079.3 2477.71 1075.91 2476.78 1071.45L2484.42 1069.55C2485.14 1072.36 2486.52 1074.48 2488.54 1075.89C2490.59 1077.3 2493.26 1078 2496.55 1078C2500.3 1078 2503.28 1077.2 2505.48 1075.61C2507.71 1074 2508.83 1072.07 2508.83 1069.82C2508.83 1068 2508.19 1066.48 2506.92 1065.25C2505.64 1064 2503.69 1063.07 2501.05 1062.45L2492.33 1060.41C2487.53 1059.27 2484.01 1057.51 2481.76 1055.12C2479.53 1052.72 2478.42 1049.7 2478.42 1046.09C2478.42 1043.14 2479.25 1040.52 2480.9 1038.25C2482.59 1035.98 2484.87 1034.19 2487.76 1032.9C2490.67 1031.6 2493.96 1030.95 2497.64 1030.95C2502.83 1030.95 2506.89 1032.09 2509.85 1034.36C2512.83 1036.64 2514.94 1039.64 2516.19 1043.36Z" fill="#FEBC2F"/>
</svg>
