<svg width="2910" height="1330" viewBox="0 0 2910 1330" fill="none" xmlns="http://www.w3.org/2000/svg">
<rect x="6" y="6" width="268" height="268" rx="134" fill="#D9D9D9"/>
<rect x="3" y="3" width="274" height="274" rx="137" stroke="#404040" stroke-opacity="0.352941" stroke-width="6"/>
<path d="M112.395 122.636L124.94 144.045L137.486 122.636H146.759L129.849 148.818L146.759 175H137.486L124.94 154.682L112.395 175H103.122L119.759 148.818L103.122 122.636H112.395ZM165.807 187V152.568H165.466L154.693 159.727V152.5L165.807 145.136H172.898V187H165.807Z" fill="#2B2A2B"/>
<rect x="6" y="414" width="268" height="268" rx="134" fill="#D9D9D9"/>
<rect x="3" y="411" width="274" height="274" rx="137" stroke="#404040" stroke-opacity="0.352941" stroke-width="6"/>
<path d="M107.239 530.636L119.784 552.045L132.33 530.636H141.602L124.693 556.818L141.602 583H132.33L119.784 562.682L107.239 583H97.9659L114.602 556.818L97.9659 530.636H107.239ZM150.491 595V589.682L166.446 575.5C168.037 574.091 169.366 572.83 170.435 571.716C171.503 570.602 172.31 569.523 172.855 568.477C173.401 567.432 173.673 566.318 173.673 565.136C173.673 563.091 172.889 561.466 171.321 560.261C169.753 559.057 167.81 558.455 165.491 558.455C163.037 558.455 161.06 559.114 159.56 560.432C158.06 561.727 157.31 563.432 157.31 565.545H150.219C150.219 561.659 151.662 558.534 154.548 556.17C157.435 553.784 161.128 552.591 165.628 552.591C168.628 552.591 171.264 553.136 173.537 554.227C175.81 555.295 177.582 556.773 178.855 558.659C180.128 560.523 180.764 562.636 180.764 565C180.764 566.864 180.389 568.591 179.639 570.182C178.889 571.773 177.719 573.42 176.128 575.125C174.537 576.83 172.491 578.773 169.991 580.955L161.128 588.727V589H181.991V595H150.491Z" fill="#2B2A2B"/>
<rect x="6" y="822" width="268" height="268" rx="134" fill="#D9D9D9"/>
<rect x="3" y="819" width="274" height="274" rx="137" stroke="#404040" stroke-opacity="0.352941" stroke-width="6"/>
<path d="M105.926 938.636L118.472 960.045L131.017 938.636H140.29L123.381 964.818L140.29 991H131.017L118.472 970.682L105.926 991H96.6534L113.29 964.818L96.6534 938.636H105.926ZM182.82 968.109V1010H177.011L155.718 979.277H155.329V1010H149.009V968.109H154.859L176.172 998.873H176.561V968.109H182.82Z" fill="#2B2A2B"/>
<mask id="path-10-outside-1_18_50" maskUnits="userSpaceOnUse" x="500.201" y="202.377" width="209.102" height="133.285" fill="black">
<rect fill="white" x="500.201" y="202.377" width="209.102" height="133.285"/>
<path d="M528.034 250.496C525.437 249.594 523.285 248.136 521.578 246.124C519.879 244.09 518.758 241.776 518.216 239.181C517.695 236.594 517.886 234.002 518.788 231.404C519.699 228.785 521.156 226.633 523.161 224.948C525.195 223.248 527.506 222.138 530.093 221.618C532.687 221.075 535.283 221.256 537.881 222.158C540.5 223.068 542.648 224.537 544.326 226.563C546.033 228.576 547.147 230.875 547.667 233.462C548.217 236.035 548.037 238.631 547.127 241.25C546.224 243.848 544.756 245.997 542.722 247.696C540.709 249.403 538.406 250.527 535.811 251.069C533.246 251.597 530.654 251.406 528.034 250.496ZM610.001 292.546L612.117 237.847L620.103 240.621L617.636 282.206L618.151 282.385L641.872 248.185L649.987 251.005L647.307 292.371L647.822 292.55L671.627 258.524L679.613 261.299L647.356 305.525L639.885 302.929L642.268 261.171L641.495 260.902L617.472 295.142L610.001 292.546ZM675.684 328.072L686.985 295.547L686.663 295.435L674.138 298.662L676.51 291.835L689.424 288.527L696.123 290.854L682.383 330.399L675.684 328.072Z"/>
</mask>
<path d="M528.034 250.496C525.437 249.594 523.285 248.136 521.578 246.124C519.879 244.09 518.758 241.776 518.216 239.181C517.695 236.594 517.886 234.002 518.788 231.404C519.699 228.785 521.156 226.633 523.161 224.948C525.195 223.248 527.506 222.138 530.093 221.618C532.687 221.075 535.283 221.256 537.881 222.158C540.5 223.068 542.648 224.537 544.326 226.563C546.033 228.576 547.147 230.875 547.667 233.462C548.217 236.035 548.037 238.631 547.127 241.25C546.224 243.848 544.756 245.997 542.722 247.696C540.709 249.403 538.406 250.527 535.811 251.069C533.246 251.597 530.654 251.406 528.034 250.496ZM610.001 292.546L612.117 237.847L620.103 240.621L617.636 282.206L618.151 282.385L641.872 248.185L649.987 251.005L647.307 292.371L647.822 292.55L671.627 258.524L679.613 261.299L647.356 305.525L639.885 302.929L642.268 261.171L641.495 260.902L617.472 295.142L610.001 292.546ZM675.684 328.072L686.985 295.547L686.663 295.435L674.138 298.662L676.51 291.835L689.424 288.527L696.123 290.854L682.383 330.399L675.684 328.072Z" fill="#FEBC2F"/>
<path d="M521.578 246.124L518.508 248.688L518.518 248.7L518.527 248.711L521.578 246.124ZM518.216 239.181L514.294 239.97L514.297 239.985L514.3 239.999L518.216 239.181ZM523.161 224.948L520.597 221.878L520.588 221.886L523.161 224.948ZM530.093 221.618L530.882 225.539L530.896 225.536L530.911 225.533L530.093 221.618ZM544.326 226.563L541.245 229.114L541.26 229.132L541.275 229.15L544.326 226.563ZM547.667 233.462L543.746 234.252L543.751 234.275L543.756 234.298L547.667 233.462ZM542.722 247.696L540.157 244.626L540.146 244.636L540.135 244.645L542.722 247.696ZM535.811 251.069L536.618 254.987L536.63 254.985L535.811 251.069ZM528.034 250.496L529.347 246.718C527.395 246.04 525.853 244.98 524.629 243.537L521.578 246.124L518.527 248.711C520.716 251.292 523.478 253.148 526.722 254.275L528.034 250.496ZM521.578 246.124L524.648 243.559C523.369 242.029 522.539 240.315 522.131 238.363L518.216 239.181L514.3 239.999C514.977 243.236 516.388 246.15 518.508 248.688L521.578 246.124ZM518.216 239.181L522.137 238.392C521.763 236.536 521.889 234.669 522.567 232.717L518.788 231.404L515.01 230.091C513.883 233.335 513.626 236.652 514.294 239.97L518.216 239.181ZM518.788 231.404L522.567 232.717C523.255 230.737 524.314 229.204 525.735 228.01L523.161 224.948L520.588 221.886C517.998 224.062 516.142 226.833 515.01 230.091L518.788 231.404ZM523.161 224.948L525.726 228.017C527.251 226.743 528.951 225.928 530.882 225.539L530.093 221.618L529.303 217.696C526.06 218.349 523.14 219.753 520.597 221.878L523.161 224.948ZM530.093 221.618L530.911 225.533C532.768 225.145 534.628 225.263 536.568 225.937L537.881 222.158L539.193 218.38C535.938 217.249 532.606 217.006 529.274 217.702L530.093 221.618ZM537.881 222.158L536.568 225.937C538.535 226.62 540.059 227.681 541.245 229.114L544.326 226.563L547.407 224.012C545.238 221.392 542.464 219.516 539.193 218.38L537.881 222.158ZM544.326 226.563L541.275 229.15C542.545 230.647 543.359 232.328 543.746 234.252L547.667 233.462L551.589 232.673C550.934 229.423 549.521 226.505 547.377 223.976L544.326 226.563ZM547.667 233.462L543.756 234.298C544.144 236.117 544.032 237.97 543.348 239.938L547.127 241.25L550.905 242.563C552.042 239.292 552.29 235.954 551.579 232.627L547.667 233.462ZM547.127 241.25L543.348 239.938C542.674 241.877 541.613 243.41 540.157 244.626L542.722 247.696L545.286 250.766C547.898 248.584 549.774 245.819 550.905 242.563L547.127 241.25ZM542.722 247.696L540.135 244.645C538.633 245.919 536.938 246.747 534.993 247.154L535.811 251.069L536.63 254.985C539.873 254.307 542.786 252.886 545.309 250.747L542.722 247.696ZM535.811 251.069L535.005 247.151C533.187 247.526 531.327 247.406 529.347 246.718L528.034 250.496L526.722 254.275C529.98 255.407 533.304 255.669 536.618 254.987L535.811 251.069ZM610.001 292.546L606.004 292.391L605.89 295.352L608.688 296.324L610.001 292.546ZM612.117 237.847L613.429 234.068L608.328 232.296L608.12 237.692L612.117 237.847ZM620.103 240.621L624.096 240.858L624.275 237.837L621.416 236.843L620.103 240.621ZM617.636 282.206L613.643 281.969L613.464 284.991L616.323 285.985L617.636 282.206ZM618.151 282.385L616.838 286.164L619.707 287.16L621.438 284.665L618.151 282.385ZM641.872 248.185L643.185 244.407L640.316 243.41L638.585 245.905L641.872 248.185ZM649.987 251.005L653.978 251.263L654.175 248.225L651.3 247.226L649.987 251.005ZM647.307 292.371L643.315 292.113L643.119 295.151L645.994 296.15L647.307 292.371ZM647.822 292.55L646.509 296.329L649.366 297.321L651.1 294.843L647.822 292.55ZM671.627 258.524L672.94 254.745L670.083 253.753L668.349 256.231L671.627 258.524ZM679.613 261.299L682.845 263.656L686.027 259.293L680.926 257.52L679.613 261.299ZM647.356 305.525L646.043 309.304L648.842 310.276L650.588 307.882L647.356 305.525ZM639.885 302.929L635.892 302.701L635.72 305.717L638.572 306.708L639.885 302.929ZM642.268 261.171L646.261 261.399L646.434 258.384L643.581 257.392L642.268 261.171ZM641.495 260.902L642.808 257.124L639.955 256.133L638.221 258.605L641.495 260.902ZM617.472 295.142L616.159 298.92L619.012 299.911L620.747 297.439L617.472 295.142ZM610.001 292.546L613.998 292.701L616.114 238.001L612.117 237.847L608.12 237.692L606.004 292.391L610.001 292.546ZM612.117 237.847L610.804 241.625L618.79 244.4L620.103 240.621L621.416 236.843L613.429 234.068L612.117 237.847ZM620.103 240.621L616.11 240.385L613.643 281.969L617.636 282.206L621.629 282.443L624.096 240.858L620.103 240.621ZM617.636 282.206L616.323 285.985L616.838 286.164L618.151 282.385L619.464 278.607L618.949 278.428L617.636 282.206ZM618.151 282.385L621.438 284.665L645.158 250.465L641.872 248.185L638.585 245.905L614.864 280.106L618.151 282.385ZM641.872 248.185L640.559 251.964L648.674 254.783L649.987 251.005L651.3 247.226L643.185 244.407L641.872 248.185ZM649.987 251.005L645.995 250.746L643.315 292.113L647.307 292.371L651.299 292.63L653.978 251.263L649.987 251.005ZM647.307 292.371L645.994 296.15L646.509 296.329L647.822 292.55L649.135 288.772L648.62 288.593L647.307 292.371ZM647.822 292.55L651.1 294.843L674.904 260.817L671.627 258.524L668.349 256.231L644.545 290.257L647.822 292.55ZM671.627 258.524L670.314 262.302L678.3 265.077L679.613 261.299L680.926 257.52L672.94 254.745L671.627 258.524ZM679.613 261.299L676.381 258.941L644.124 303.168L647.356 305.525L650.588 307.882L682.845 263.656L679.613 261.299ZM647.356 305.525L648.669 301.747L641.198 299.151L639.885 302.929L638.572 306.708L646.043 309.304L647.356 305.525ZM639.885 302.929L643.879 303.157L646.261 261.399L642.268 261.171L638.274 260.943L635.892 302.701L639.885 302.929ZM642.268 261.171L643.581 257.392L642.808 257.124L641.495 260.902L640.182 264.681L640.955 264.949L642.268 261.171ZM641.495 260.902L638.221 258.605L614.198 292.844L617.472 295.142L620.747 297.439L644.77 263.2L641.495 260.902ZM617.472 295.142L618.785 291.363L611.314 288.768L610.001 292.546L608.688 296.324L616.159 298.92L617.472 295.142ZM675.684 328.072L671.906 326.759L670.593 330.537L674.372 331.85L675.684 328.072ZM686.985 295.547L690.764 296.86L692.077 293.082L688.298 291.769L686.985 295.547ZM686.663 295.435L687.976 291.657L686.835 291.26L685.665 291.562L686.663 295.435ZM674.138 298.662L670.359 297.349L667.91 304.397L675.135 302.536L674.138 298.662ZM676.51 291.835L675.517 287.96L673.436 288.493L672.731 290.522L676.51 291.835ZM689.424 288.527L690.737 284.749L689.599 284.353L688.432 284.652L689.424 288.527ZM696.123 290.854L699.901 292.167L701.214 288.389L697.435 287.076L696.123 290.854ZM682.383 330.399L681.07 334.177L684.848 335.49L686.161 331.712L682.383 330.399ZM675.684 328.072L679.463 329.384L690.764 296.86L686.985 295.547L683.207 294.234L671.906 326.759L675.684 328.072ZM686.985 295.547L688.298 291.769L687.976 291.657L686.663 295.435L685.35 299.214L685.672 299.326L686.985 295.547ZM686.663 295.435L685.665 291.562L673.14 294.789L674.138 298.662L675.135 302.536L687.661 299.309L686.663 295.435ZM674.138 298.662L677.916 299.975L680.288 293.148L676.51 291.835L672.731 290.522L670.359 297.349L674.138 298.662ZM676.51 291.835L677.502 295.71L690.417 292.402L689.424 288.527L688.432 284.652L675.517 287.96L676.51 291.835ZM689.424 288.527L688.112 292.305L694.81 294.633L696.123 290.854L697.435 287.076L690.737 284.749L689.424 288.527ZM696.123 290.854L692.344 289.541L678.604 329.086L682.383 330.399L686.161 331.712L699.901 292.167L696.123 290.854ZM682.383 330.399L683.695 326.621L676.997 324.293L675.684 328.072L674.372 331.85L681.07 334.177L682.383 330.399Z" fill="#FEBC2F" mask="url(#path-10-outside-1_18_50)"/>
<mask id="path-12-outside-2_18_50" maskUnits="userSpaceOnUse" x="503.386" y="647.608" width="226.513" height="145.148" fill="black">
<rect fill="white" x="503.386" y="647.608" width="226.513" height="145.148"/>
<path d="M536.292 752.527C533.694 753.43 531.102 753.621 528.515 753.1C525.921 752.558 523.606 751.437 521.572 749.738C519.56 748.031 518.102 745.879 517.2 743.281C516.29 740.662 516.099 738.07 516.627 735.505C517.169 732.91 518.293 730.607 520 728.594C521.699 726.56 523.848 725.092 526.446 724.189C529.065 723.279 531.661 723.099 534.234 723.649C536.821 724.169 539.12 725.283 541.133 726.99C543.159 728.668 544.628 730.816 545.538 733.435C546.44 736.033 546.621 738.629 546.078 741.223C545.558 743.81 544.448 746.121 542.748 748.155C541.063 750.16 538.911 751.617 536.292 752.527ZM626.673 734.694L594.416 690.468L602.402 687.693L626.251 721.848L626.767 721.669L624.171 680.129L632.286 677.309L655.833 711.426L656.348 711.247L653.926 669.79L661.912 667.016L664.028 721.715L656.557 724.311L632.534 690.071L631.761 690.34L634.144 732.098L626.673 734.694ZM710.962 681.174L724.711 720.744L719.224 722.651L689.027 700.619L688.66 700.746L698.743 729.767L692.773 731.842L679.024 692.271L684.55 690.351L714.78 712.415L715.147 712.288L705.05 683.228L710.962 681.174Z"/>
</mask>
<path d="M536.292 752.527C533.694 753.43 531.102 753.621 528.515 753.1C525.921 752.558 523.606 751.437 521.572 749.738C519.56 748.031 518.102 745.879 517.2 743.281C516.29 740.662 516.099 738.07 516.627 735.505C517.169 732.91 518.293 730.607 520 728.594C521.699 726.56 523.848 725.092 526.446 724.189C529.065 723.279 531.661 723.099 534.234 723.649C536.821 724.169 539.12 725.283 541.133 726.99C543.159 728.668 544.628 730.816 545.538 733.435C546.44 736.033 546.621 738.629 546.078 741.223C545.558 743.81 544.448 746.121 542.748 748.155C541.063 750.16 538.911 751.617 536.292 752.527ZM626.673 734.694L594.416 690.468L602.402 687.693L626.251 721.848L626.767 721.669L624.171 680.129L632.286 677.309L655.833 711.426L656.348 711.247L653.926 669.79L661.912 667.016L664.028 721.715L656.557 724.311L632.534 690.071L631.761 690.34L634.144 732.098L626.673 734.694ZM710.962 681.174L724.711 720.744L719.224 722.651L689.027 700.619L688.66 700.746L698.743 729.767L692.773 731.842L679.024 692.271L684.55 690.351L714.78 712.415L715.147 712.288L705.05 683.228L710.962 681.174Z" fill="#FEBC2F"/>
<path d="M528.515 753.1L527.697 757.016L527.711 757.019L527.726 757.022L528.515 753.1ZM521.572 749.738L518.985 752.789L518.996 752.798L519.008 752.808L521.572 749.738ZM516.627 735.505L512.711 734.686L512.709 734.698L516.627 735.505ZM520 728.594L523.051 731.181L523.06 731.17L523.07 731.159L520 728.594ZM534.234 723.649L533.398 727.56L533.421 727.565L533.444 727.57L534.234 723.649ZM541.133 726.99L538.546 730.041L538.564 730.056L538.582 730.071L541.133 726.99ZM546.078 741.223L542.163 740.405L542.16 740.42L542.157 740.434L546.078 741.223ZM542.748 748.155L545.811 750.728L545.818 750.719L542.748 748.155ZM536.292 752.527L534.979 748.749C533.027 749.427 531.16 749.552 529.304 749.179L528.515 753.1L527.726 757.022C531.044 757.689 534.361 757.433 537.605 756.306L536.292 752.527ZM528.515 753.1L529.333 749.185C527.381 748.777 525.667 747.947 524.137 746.668L521.572 749.738L519.008 752.808C521.546 754.928 524.46 756.339 527.697 757.016L528.515 753.1ZM521.572 749.738L524.159 746.687C522.716 745.463 521.656 743.921 520.978 741.969L517.2 743.281L513.421 744.594C514.548 747.838 516.404 750.6 518.985 752.789L521.572 749.738ZM517.2 743.281L520.978 741.969C520.29 739.989 520.17 738.129 520.545 736.311L516.627 735.505L512.709 734.698C512.027 738.011 512.289 741.336 513.421 744.594L517.2 743.281ZM516.627 735.505L520.542 736.323C520.949 734.378 521.777 732.683 523.051 731.181L520 728.594L516.949 726.007C514.81 728.53 513.389 731.443 512.711 734.686L516.627 735.505ZM520 728.594L523.07 731.159C524.286 729.703 525.819 728.642 527.758 727.968L526.446 724.189L525.133 720.411C521.877 721.542 519.112 723.418 516.93 726.03L520 728.594ZM526.446 724.189L527.758 727.968C529.726 727.284 531.579 727.172 533.398 727.56L534.234 723.649L535.069 719.737C531.742 719.026 528.404 719.274 525.133 720.411L526.446 724.189ZM534.234 723.649L533.444 727.57C535.368 727.957 537.049 728.771 538.546 730.041L541.133 726.99L543.72 723.939C541.191 721.795 538.273 720.382 535.023 719.727L534.234 723.649ZM541.133 726.99L538.582 730.071C540.015 731.257 541.076 732.781 541.759 734.748L545.538 733.435L549.316 732.122C548.18 728.852 546.304 726.078 543.684 723.909L541.133 726.99ZM545.538 733.435L541.759 734.748C542.433 736.688 542.551 738.548 542.163 740.405L546.078 741.223L549.994 742.042C550.69 738.71 550.447 735.378 549.316 732.122L545.538 733.435ZM546.078 741.223L542.157 740.434C541.768 742.365 540.953 744.065 539.679 745.59L542.748 748.155L545.818 750.719C547.943 748.176 549.347 745.256 550 742.013L546.078 741.223ZM542.748 748.155L539.686 745.581C538.492 747.002 536.959 748.061 534.979 748.749L536.292 752.527L537.605 756.306C540.863 755.174 543.634 753.318 545.81 750.728L542.748 748.155ZM626.673 734.694L623.441 737.051L625.187 739.445L627.985 738.473L626.673 734.694ZM594.416 690.468L593.103 686.689L588.002 688.462L591.184 692.825L594.416 690.468ZM602.402 687.693L605.682 685.403L603.949 682.921L601.089 683.914L602.402 687.693ZM626.251 721.848L622.972 724.138L624.705 726.62L627.564 725.627L626.251 721.848ZM626.767 721.669L628.079 725.448L630.948 724.451L630.759 721.42L626.767 721.669ZM624.171 680.129L622.858 676.351L619.989 677.347L620.179 680.378L624.171 680.129ZM632.286 677.309L635.578 675.037L633.849 672.532L630.973 673.531L632.286 677.309ZM655.833 711.426L652.541 713.698L654.27 716.203L657.146 715.204L655.833 711.426ZM656.348 711.247L657.661 715.025L660.518 714.032L660.341 711.013L656.348 711.247ZM653.926 669.79L652.613 666.012L649.756 667.005L649.933 670.024L653.926 669.79ZM661.912 667.016L665.909 666.861L665.7 661.465L660.599 663.237L661.912 667.016ZM664.028 721.715L665.34 725.493L668.139 724.521L668.025 721.56L664.028 721.715ZM656.557 724.311L653.282 726.608L655.017 729.08L657.869 728.089L656.557 724.311ZM632.534 690.071L635.808 687.774L634.074 685.302L631.221 686.293L632.534 690.071ZM631.761 690.34L630.448 686.562L627.595 687.553L627.767 690.568L631.761 690.34ZM634.144 732.098L635.456 735.877L638.309 734.886L638.137 731.87L634.144 732.098ZM626.673 734.694L629.904 732.337L597.648 688.11L594.416 690.468L591.184 692.825L623.441 737.051L626.673 734.694ZM594.416 690.468L595.729 694.246L603.715 691.471L602.402 687.693L601.089 683.914L593.103 686.689L594.416 690.468ZM602.402 687.693L599.122 689.983L622.972 724.138L626.251 721.848L629.531 719.558L605.682 685.403L602.402 687.693ZM626.251 721.848L627.564 725.627L628.079 725.448L626.767 721.669L625.454 717.891L624.938 718.07L626.251 721.848ZM626.767 721.669L630.759 721.42L628.163 679.88L624.171 680.129L620.179 680.378L622.774 721.919L626.767 721.669ZM624.171 680.129L625.484 683.907L633.599 681.088L632.286 677.309L630.973 673.531L622.858 676.351L624.171 680.129ZM632.286 677.309L628.994 679.582L652.541 713.698L655.833 711.426L659.125 709.153L635.578 675.037L632.286 677.309ZM655.833 711.426L657.146 715.204L657.661 715.025L656.348 711.247L655.035 707.468L654.52 707.647L655.833 711.426ZM656.348 711.247L660.341 711.013L657.919 669.557L653.926 669.79L649.933 670.024L652.355 711.48L656.348 711.247ZM653.926 669.79L655.239 673.569L663.225 670.794L661.912 667.016L660.599 663.237L652.613 666.012L653.926 669.79ZM661.912 667.016L657.915 667.17L660.03 721.87L664.028 721.715L668.025 721.56L665.909 666.861L661.912 667.016ZM664.028 721.715L662.715 717.937L655.244 720.532L656.557 724.311L657.869 728.089L665.34 725.493L664.028 721.715ZM656.557 724.311L659.831 722.013L635.808 687.774L632.534 690.071L629.259 692.369L653.282 726.608L656.557 724.311ZM632.534 690.071L631.221 686.293L630.448 686.562L631.761 690.34L633.074 694.118L633.846 693.85L632.534 690.071ZM631.761 690.34L627.767 690.568L630.15 732.326L634.144 732.098L638.137 731.87L635.754 690.112L631.761 690.34ZM634.144 732.098L632.831 728.32L625.36 730.916L626.673 734.694L627.985 738.473L635.456 735.877L634.144 732.098ZM710.962 681.174L714.741 679.861L713.428 676.083L709.65 677.396L710.962 681.174ZM724.711 720.744L726.024 724.523L729.803 723.21L728.49 719.432L724.711 720.744ZM719.224 722.651L716.866 725.882L718.558 727.117L720.537 726.429L719.224 722.651ZM689.027 700.619L691.385 697.387L689.693 696.153L687.714 696.84L689.027 700.619ZM688.66 700.746L687.347 696.968L683.569 698.281L684.881 702.059L688.66 700.746ZM698.743 729.767L700.056 733.546L703.835 732.233L702.522 728.454L698.743 729.767ZM692.773 731.842L688.995 733.154L690.307 736.933L694.086 735.62L692.773 731.842ZM679.024 692.271L677.711 688.493L673.933 689.806L675.246 693.584L679.024 692.271ZM684.55 690.351L686.908 687.12L685.216 685.885L683.237 686.573L684.55 690.351ZM714.78 712.415L712.422 715.646L714.114 716.881L716.093 716.194L714.78 712.415ZM715.147 712.288L716.46 716.066L720.238 714.753L718.925 710.975L715.147 712.288ZM705.05 683.228L703.737 679.45L699.959 680.763L701.272 684.541L705.05 683.228ZM710.962 681.174L707.184 682.487L720.933 722.057L724.711 720.744L728.49 719.432L714.741 679.861L710.962 681.174ZM724.711 720.744L723.399 716.966L717.911 718.873L719.224 722.651L720.537 726.429L726.024 724.523L724.711 720.744ZM719.224 722.651L721.582 719.42L691.385 697.387L689.027 700.619L686.669 703.85L716.866 725.882L719.224 722.651ZM689.027 700.619L687.714 696.84L687.347 696.968L688.66 700.746L689.973 704.525L690.34 704.397L689.027 700.619ZM688.66 700.746L684.881 702.059L694.965 731.08L698.743 729.767L702.522 728.454L692.438 699.433L688.66 700.746ZM698.743 729.767L697.43 725.989L691.46 728.063L692.773 731.842L694.086 735.62L700.056 733.546L698.743 729.767ZM692.773 731.842L696.551 730.529L682.802 690.958L679.024 692.271L675.246 693.584L688.995 733.154L692.773 731.842ZM679.024 692.271L680.337 696.05L685.863 694.13L684.55 690.351L683.237 686.573L677.711 688.493L679.024 692.271ZM684.55 690.351L682.192 693.582L712.422 715.646L714.78 712.415L717.138 709.184L686.908 687.12L684.55 690.351ZM714.78 712.415L716.093 716.194L716.46 716.066L715.147 712.288L713.834 708.509L713.467 708.637L714.78 712.415ZM715.147 712.288L718.925 710.975L708.829 681.915L705.05 683.228L701.272 684.541L711.369 713.601L715.147 712.288ZM705.05 683.228L706.363 687.007L712.275 684.952L710.962 681.174L709.65 677.396L703.737 679.45L705.05 683.228Z" fill="#FEBC2F" mask="url(#path-12-outside-2_18_50)"/>
<mask id="path-14-outside-3_18_50" maskUnits="userSpaceOnUse" x="758.55" y="800.537" width="152.889" height="168.375" fill="black">
<rect fill="white" x="758.55" y="800.537" width="152.889" height="168.375"/>
<path d="M819.326 942.329C817.709 944.553 815.691 946.191 813.27 947.242C810.831 948.279 808.291 948.681 805.651 948.448C803.024 948.197 800.598 947.264 798.374 945.647C796.13 944.017 794.493 941.999 793.461 939.591C792.423 937.152 792.03 934.619 792.281 931.993C792.514 929.352 793.439 926.92 795.055 924.695C796.685 922.452 798.713 920.821 801.138 919.802C803.559 918.752 806.083 918.352 808.71 918.603C811.331 918.822 813.764 919.747 816.007 921.377C818.232 922.993 819.863 925.021 820.9 927.46C821.951 929.881 822.359 932.411 822.127 935.051C821.889 937.66 820.955 940.085 819.326 942.329ZM876.986 884.774L820.502 843.736L825.231 837.227L846.081 852.376L846.482 851.824C846.094 850.812 845.637 849.469 845.112 847.794C844.581 846.089 844.446 844.109 844.708 841.854C844.964 839.569 846.094 837.047 848.098 834.289C850.689 830.721 853.865 828.225 857.626 826.8C861.387 825.374 865.458 825.088 869.839 825.939C874.221 826.791 878.637 828.833 883.086 832.066C887.573 835.326 890.907 838.914 893.089 842.831C895.253 846.735 896.255 850.693 896.093 854.705C895.913 858.704 894.54 862.468 891.975 865.999C889.998 868.72 887.965 870.572 885.875 871.553C883.766 872.522 881.812 873.027 880.013 873.068C878.195 873.095 876.726 873.067 875.607 872.984L875.045 873.757L881.554 878.486L876.986 884.774ZM860.453 862.986C863.652 865.31 866.815 866.892 869.942 867.731C873.05 868.557 875.949 868.57 878.637 867.77C881.307 866.956 883.59 865.244 885.487 862.633C887.464 859.912 888.397 857.12 888.285 854.258C888.168 851.364 887.221 848.569 885.444 845.873C883.661 843.145 881.262 840.686 878.247 838.495C875.268 836.331 872.25 834.84 869.192 834.023C866.128 833.174 863.23 833.161 860.497 833.984C857.759 834.776 855.387 836.551 853.384 839.309C851.46 841.957 850.515 844.669 850.548 847.446C850.562 850.21 851.431 852.92 853.153 855.576C854.857 858.218 857.29 860.688 860.453 862.986Z"/>
</mask>
<path d="M819.326 942.329C817.709 944.553 815.691 946.191 813.27 947.242C810.831 948.279 808.291 948.681 805.651 948.448C803.024 948.197 800.598 947.264 798.374 945.647C796.13 944.017 794.493 941.999 793.461 939.591C792.423 937.152 792.03 934.619 792.281 931.993C792.514 929.352 793.439 926.92 795.055 924.695C796.685 922.452 798.713 920.821 801.138 919.802C803.559 918.752 806.083 918.352 808.71 918.603C811.331 918.822 813.764 919.747 816.007 921.377C818.232 922.993 819.863 925.021 820.9 927.46C821.951 929.881 822.359 932.411 822.127 935.051C821.889 937.66 820.955 940.085 819.326 942.329ZM876.986 884.774L820.502 843.736L825.231 837.227L846.081 852.376L846.482 851.824C846.094 850.812 845.637 849.469 845.112 847.794C844.581 846.089 844.446 844.109 844.708 841.854C844.964 839.569 846.094 837.047 848.098 834.289C850.689 830.721 853.865 828.225 857.626 826.8C861.387 825.374 865.458 825.088 869.839 825.939C874.221 826.791 878.637 828.833 883.086 832.066C887.573 835.326 890.907 838.914 893.089 842.831C895.253 846.735 896.255 850.693 896.093 854.705C895.913 858.704 894.54 862.468 891.975 865.999C889.998 868.72 887.965 870.572 885.875 871.553C883.766 872.522 881.812 873.027 880.013 873.068C878.195 873.095 876.726 873.067 875.607 872.984L875.045 873.757L881.554 878.486L876.986 884.774ZM860.453 862.986C863.652 865.31 866.815 866.892 869.942 867.731C873.05 868.557 875.949 868.57 878.637 867.77C881.307 866.956 883.59 865.244 885.487 862.633C887.464 859.912 888.397 857.12 888.285 854.258C888.168 851.364 887.221 848.569 885.444 845.873C883.661 843.145 881.262 840.686 878.247 838.495C875.268 836.331 872.25 834.84 869.192 834.023C866.128 833.174 863.23 833.161 860.497 833.984C857.759 834.776 855.387 836.551 853.384 839.309C851.46 841.957 850.515 844.669 850.548 847.446C850.562 850.21 851.431 852.92 853.153 855.576C854.857 858.218 857.29 860.688 860.453 862.986Z" fill="#FEBC2F"/>
<path d="M813.27 947.242L814.835 950.923L814.849 950.917L814.862 950.911L813.27 947.242ZM805.651 948.448L805.27 952.43L805.285 952.432L805.3 952.433L805.651 948.448ZM793.461 939.591L789.78 941.157L789.784 941.168L793.461 939.591ZM792.281 931.993L796.263 932.373L796.265 932.358L796.266 932.344L792.281 931.993ZM801.138 919.802L802.687 923.49L802.709 923.481L802.731 923.472L801.138 919.802ZM808.71 918.603L808.329 922.585L808.353 922.587L808.376 922.589L808.71 918.603ZM820.9 927.46L817.219 929.025L817.225 929.039L817.231 929.052L820.9 927.46ZM822.127 935.051L826.11 935.414L826.111 935.402L822.127 935.051ZM819.326 942.329L816.09 939.978C814.875 941.649 813.414 942.819 811.678 943.572L813.27 947.242L814.862 950.911C817.967 949.564 820.544 947.458 822.562 944.68L819.326 942.329ZM813.27 947.242L811.705 943.561C809.87 944.341 807.988 944.639 806.002 944.464L805.651 948.448L805.3 952.433C808.594 952.723 811.792 952.217 814.835 950.923L813.27 947.242ZM805.651 948.448L806.032 944.466C804.147 944.286 802.397 943.626 800.725 942.411L798.374 945.647L796.022 948.883C798.8 950.901 801.901 952.108 805.27 952.43L805.651 948.448ZM798.374 945.647L800.725 942.411C799.029 941.179 797.868 939.721 797.137 938.015L793.461 939.591L789.784 941.168C791.117 944.277 793.232 946.856 796.022 948.883L798.374 945.647ZM793.461 939.591L797.142 938.026C796.364 936.198 796.076 934.333 796.263 932.373L792.281 931.993L788.3 931.612C787.985 934.905 788.483 938.107 789.78 941.157L793.461 939.591ZM792.281 931.993L796.266 932.344C796.433 930.454 797.084 928.708 798.291 927.046L795.055 924.695L791.819 922.344C789.793 925.132 788.596 928.251 788.297 931.641L792.281 931.993ZM795.055 924.695L798.291 927.046C799.515 925.361 800.972 924.21 802.687 923.49L801.138 919.802L799.589 916.114C796.453 917.432 793.854 919.543 791.819 922.344L795.055 924.695ZM801.138 919.802L802.731 923.472C804.531 922.69 806.376 922.398 808.329 922.585L808.71 918.603L809.09 914.621C805.79 914.306 802.587 914.813 799.546 916.133L801.138 919.802ZM808.71 918.603L808.376 922.589C810.23 922.744 811.971 923.388 813.656 924.613L816.007 921.377L818.358 918.141C815.557 916.105 812.433 914.901 809.043 914.617L808.71 918.603ZM816.007 921.377L813.656 924.613C815.317 925.82 816.477 927.279 817.219 929.025L820.9 927.46L824.581 925.895C823.249 922.763 821.146 920.166 818.358 918.141L816.007 921.377ZM820.9 927.46L817.231 929.052C818.015 930.859 818.317 932.721 818.142 934.7L822.127 935.051L826.111 935.402C826.402 932.101 825.886 928.902 824.569 925.867L820.9 927.46ZM822.127 935.051L818.143 934.688C817.975 936.536 817.321 938.282 816.09 939.978L819.326 942.329L822.562 944.68C824.589 941.889 825.803 938.783 826.11 935.414L822.127 935.051ZM876.986 884.774L874.635 888.01L877.871 890.361L880.222 887.125L876.986 884.774ZM820.502 843.736L817.266 841.385L814.914 844.621L818.15 846.972L820.502 843.736ZM825.231 837.227L827.582 833.991L824.346 831.64L821.995 834.876L825.231 837.227ZM846.081 852.376L843.73 855.612L846.966 857.963L849.317 854.727L846.081 852.376ZM846.482 851.824L849.718 854.175L850.994 852.419L850.217 850.392L846.482 851.824ZM845.112 847.794L841.292 848.982L841.295 848.992L845.112 847.794ZM844.708 841.854L848.681 842.315L848.682 842.308L848.683 842.3L844.708 841.854ZM857.626 826.8L856.208 823.059L856.208 823.059L857.626 826.8ZM893.089 842.831L896.588 840.892L896.584 840.885L893.089 842.831ZM896.093 854.705L900.089 854.885L900.089 854.876L900.09 854.867L896.093 854.705ZM885.875 871.553L887.544 875.188L887.56 875.181L887.576 875.174L885.875 871.553ZM880.013 873.068L880.074 877.067L880.089 877.067L880.104 877.066L880.013 873.068ZM875.607 872.984L875.902 868.995L873.68 868.831L872.37 870.633L875.607 872.984ZM875.045 873.757L871.809 871.406L869.458 874.642L872.694 876.993L875.045 873.757ZM881.554 878.486L884.79 880.837L887.142 877.601L883.906 875.25L881.554 878.486ZM869.942 867.731L868.905 871.595L868.915 871.597L869.942 867.731ZM878.637 867.77L879.778 871.603L879.79 871.6L879.803 871.596L878.637 867.77ZM888.285 854.258L892.282 854.102L892.282 854.097L888.285 854.258ZM885.444 845.873L882.095 848.061L882.1 848.068L882.104 848.075L885.444 845.873ZM869.192 834.023L868.123 837.877L868.141 837.882L868.159 837.887L869.192 834.023ZM860.497 833.984L861.608 837.827L861.629 837.821L861.651 837.814L860.497 833.984ZM850.548 847.446L854.548 847.425L854.548 847.412L854.547 847.398L850.548 847.446ZM853.153 855.576L856.515 853.408L856.509 853.399L853.153 855.576ZM876.986 884.774L879.337 881.538L822.853 840.5L820.502 843.736L818.15 846.972L874.635 888.01L876.986 884.774ZM820.502 843.736L823.738 846.087L828.467 839.578L825.231 837.227L821.995 834.876L817.266 841.385L820.502 843.736ZM825.231 837.227L822.879 840.463L843.73 855.612L846.081 852.376L848.432 849.14L827.582 833.991L825.231 837.227ZM846.081 852.376L849.317 854.727L849.718 854.175L846.482 851.824L843.246 849.473L842.845 850.025L846.081 852.376ZM846.482 851.824L850.217 850.392C849.871 849.489 849.442 848.233 848.928 846.597L845.112 847.794L841.295 848.992C841.832 850.704 842.317 852.134 842.747 853.256L846.482 851.824ZM845.112 847.794L848.931 846.607C848.605 845.557 848.467 844.16 848.681 842.315L844.708 841.854L840.734 841.394C840.426 844.058 840.557 846.621 841.292 848.982L845.112 847.794ZM844.708 841.854L848.683 842.3C848.833 840.956 849.555 839.088 851.334 836.64L848.098 834.289L844.862 831.937C842.633 835.005 841.094 838.181 840.733 841.409L844.708 841.854ZM848.098 834.289L851.334 836.64C853.513 833.64 856.081 831.663 859.044 830.54L857.626 826.8L856.208 823.059C851.649 824.787 847.865 827.803 844.862 831.937L848.098 834.289ZM857.626 826.8L859.044 830.54C862.034 829.407 865.342 829.14 869.076 829.866L869.839 825.939L870.603 822.013C865.574 821.035 860.739 821.342 856.208 823.059L857.626 826.8ZM869.839 825.939L869.076 829.866C872.767 830.583 876.651 832.335 880.735 835.302L883.086 832.066L885.437 828.83C880.622 825.332 875.675 822.999 870.603 822.013L869.839 825.939ZM883.086 832.066L880.735 835.302C884.86 838.299 887.754 841.474 889.595 844.778L893.089 842.831L896.584 840.885C894.06 836.354 890.285 832.352 885.437 828.83L883.086 832.066ZM893.089 842.831L889.591 844.771C891.44 848.107 892.225 851.345 892.096 854.544L896.093 854.705L900.09 854.867C900.284 850.042 899.067 845.364 896.588 840.892L893.089 842.831ZM896.093 854.705L892.097 854.525C891.955 857.671 890.887 860.691 888.739 863.648L891.975 865.999L895.211 868.35C898.193 864.246 899.87 859.737 900.089 854.885L896.093 854.705ZM891.975 865.999L888.739 863.648C886.99 866.056 885.437 867.339 884.174 867.933L885.875 871.553L887.576 875.174C890.492 873.804 893.006 871.384 895.211 868.35L891.975 865.999ZM885.875 871.553L884.205 867.919C882.455 868.722 881.043 869.043 879.922 869.069L880.013 873.068L880.104 877.066C882.582 877.01 885.078 876.321 887.544 875.188L885.875 871.553ZM880.013 873.068L879.952 869.068C878.19 869.095 876.854 869.066 875.902 868.995L875.607 872.984L875.311 876.973C876.599 877.069 878.2 877.096 880.074 877.067L880.013 873.068ZM875.607 872.984L872.37 870.633L871.809 871.406L875.045 873.757L878.282 876.108L878.843 875.336L875.607 872.984ZM875.045 873.757L872.694 876.993L879.203 881.722L881.554 878.486L883.906 875.25L877.397 870.521L875.045 873.757ZM881.554 878.486L878.318 876.135L873.75 882.423L876.986 884.774L880.222 887.125L884.79 880.837L881.554 878.486ZM860.453 862.986L858.102 866.222C861.612 868.773 865.214 870.604 868.905 871.595L869.942 867.731L870.979 863.868C868.417 863.18 865.692 861.848 862.804 859.75L860.453 862.986ZM869.942 867.731L868.915 871.597C872.629 872.584 876.285 872.643 879.778 871.603L878.637 867.77L877.496 863.936C875.612 864.496 873.472 864.53 870.969 863.865L869.942 867.731ZM878.637 867.77L879.803 871.596C883.43 870.491 886.398 868.185 888.723 864.984L885.487 862.633L882.251 860.282C880.782 862.304 879.183 863.422 877.471 863.943L878.637 867.77ZM885.487 862.633L888.723 864.984C891.132 861.668 892.435 858.012 892.282 854.102L888.285 854.258L884.288 854.414C884.359 856.228 883.796 858.156 882.251 860.282L885.487 862.633ZM888.285 854.258L892.282 854.097C892.133 850.394 890.914 846.903 888.783 843.671L885.444 845.873L882.104 848.075C883.528 850.235 884.204 852.334 884.288 854.419L888.285 854.258ZM885.444 845.873L888.792 843.685C886.708 840.496 883.951 837.695 880.598 835.259L878.247 838.495L875.896 841.731C878.574 843.677 880.614 845.794 882.095 848.061L885.444 845.873ZM878.247 838.495L880.598 835.259C877.286 832.852 873.827 831.121 870.224 830.158L869.192 834.023L868.159 837.887C870.672 838.559 873.251 839.809 875.896 841.731L878.247 838.495ZM869.192 834.023L870.26 830.168C866.554 829.141 862.88 829.089 859.343 830.154L860.497 833.984L861.651 837.814C863.58 837.233 865.703 837.207 868.123 837.877L869.192 834.023ZM860.497 833.984L859.386 830.142C855.635 831.226 852.568 833.626 850.148 836.958L853.384 839.309L856.62 841.66C858.207 839.476 859.882 838.326 861.608 837.827L860.497 833.984ZM853.384 839.309L850.148 836.958C847.811 840.174 846.503 843.709 846.548 847.494L850.548 847.446L854.547 847.398C854.526 845.628 855.109 843.74 856.62 841.66L853.384 839.309ZM850.548 847.446L846.548 847.467C846.567 851.103 847.721 854.55 849.797 857.752L853.153 855.576L856.509 853.399C855.141 851.29 854.558 849.317 854.548 847.425L850.548 847.446ZM853.153 855.576L849.792 857.743C851.82 860.889 854.633 863.702 858.102 866.222L860.453 862.986L862.804 859.75C859.948 857.675 857.895 855.548 856.515 853.408L853.153 855.576Z" fill="#FEBC2F" mask="url(#path-14-outside-3_18_50)"/>
<mask id="path-16-outside-4_18_50" maskUnits="userSpaceOnUse" x="507" y="458" width="210" height="73" fill="black">
<rect fill="white" x="507" y="458" width="210" height="73"/>
<path d="M526.297 502.182C523.547 502.182 521.036 501.511 518.763 500.17C516.49 498.807 514.672 496.989 513.308 494.716C511.967 492.443 511.297 489.932 511.297 487.182C511.297 484.409 511.967 481.898 513.308 479.648C514.672 477.375 516.49 475.568 518.763 474.227C521.036 472.864 523.547 472.182 526.297 472.182C529.07 472.182 531.581 472.864 533.831 474.227C536.104 475.568 537.911 477.375 539.251 479.648C540.615 481.898 541.297 484.409 541.297 487.182C541.297 489.932 540.615 492.443 539.251 494.716C537.911 496.989 536.104 498.807 533.831 500.17C531.581 501.511 529.07 502.182 526.297 502.182ZM617.524 515L601.57 462.636H610.024L621.342 502.727H621.888L633.07 462.636H641.661L652.706 502.591H653.251L664.57 462.636H673.024L657.07 515H649.161L637.706 474.773H636.888L625.433 515H617.524ZM681.07 527V521.682L697.024 507.5C698.615 506.091 699.945 504.83 701.013 503.716C702.081 502.602 702.888 501.523 703.433 500.477C703.979 499.432 704.251 498.318 704.251 497.136C704.251 495.091 703.467 493.466 701.899 492.261C700.331 491.057 698.388 490.455 696.07 490.455C693.615 490.455 691.638 491.114 690.138 492.432C688.638 493.727 687.888 495.432 687.888 497.545H680.797C680.797 493.659 682.24 490.534 685.126 488.17C688.013 485.784 691.706 484.591 696.206 484.591C699.206 484.591 701.842 485.136 704.115 486.227C706.388 487.295 708.161 488.773 709.433 490.659C710.706 492.523 711.342 494.636 711.342 497C711.342 498.864 710.967 500.591 710.217 502.182C709.467 503.773 708.297 505.42 706.706 507.125C705.115 508.83 703.07 510.773 700.57 512.955L691.706 520.727V521H712.57V527H681.07Z"/>
</mask>
<path d="M526.297 502.182C523.547 502.182 521.036 501.511 518.763 500.17C516.49 498.807 514.672 496.989 513.308 494.716C511.967 492.443 511.297 489.932 511.297 487.182C511.297 484.409 511.967 481.898 513.308 479.648C514.672 477.375 516.49 475.568 518.763 474.227C521.036 472.864 523.547 472.182 526.297 472.182C529.07 472.182 531.581 472.864 533.831 474.227C536.104 475.568 537.911 477.375 539.251 479.648C540.615 481.898 541.297 484.409 541.297 487.182C541.297 489.932 540.615 492.443 539.251 494.716C537.911 496.989 536.104 498.807 533.831 500.17C531.581 501.511 529.07 502.182 526.297 502.182ZM617.524 515L601.57 462.636H610.024L621.342 502.727H621.888L633.07 462.636H641.661L652.706 502.591H653.251L664.57 462.636H673.024L657.07 515H649.161L637.706 474.773H636.888L625.433 515H617.524ZM681.07 527V521.682L697.024 507.5C698.615 506.091 699.945 504.83 701.013 503.716C702.081 502.602 702.888 501.523 703.433 500.477C703.979 499.432 704.251 498.318 704.251 497.136C704.251 495.091 703.467 493.466 701.899 492.261C700.331 491.057 698.388 490.455 696.07 490.455C693.615 490.455 691.638 491.114 690.138 492.432C688.638 493.727 687.888 495.432 687.888 497.545H680.797C680.797 493.659 682.24 490.534 685.126 488.17C688.013 485.784 691.706 484.591 696.206 484.591C699.206 484.591 701.842 485.136 704.115 486.227C706.388 487.295 708.161 488.773 709.433 490.659C710.706 492.523 711.342 494.636 711.342 497C711.342 498.864 710.967 500.591 710.217 502.182C709.467 503.773 708.297 505.42 706.706 507.125C705.115 508.83 703.07 510.773 700.57 512.955L691.706 520.727V521H712.57V527H681.07Z" fill="#FEBC2F"/>
<path d="M518.763 500.17L516.705 503.6L516.717 503.608L516.73 503.616L518.763 500.17ZM513.308 494.716L509.863 496.749L509.871 496.761L509.878 496.774L513.308 494.716ZM513.308 479.648L509.878 477.59L509.872 477.6L513.308 479.648ZM518.763 474.227L520.795 477.672L520.808 477.665L520.821 477.657L518.763 474.227ZM533.831 474.227L531.758 477.648L531.778 477.66L531.798 477.672L533.831 474.227ZM539.251 479.648L535.806 481.68L535.818 481.701L535.831 481.721L539.251 479.648ZM539.251 494.716L535.821 492.658L535.814 492.671L535.806 492.683L539.251 494.716ZM533.831 500.17L535.879 503.607L535.889 503.6L533.831 500.17ZM526.297 502.182V498.182C524.23 498.182 522.426 497.687 520.795 496.725L518.763 500.17L516.73 503.616C519.645 505.335 522.863 506.182 526.297 506.182V502.182ZM518.763 500.17L520.821 496.74C519.111 495.715 517.764 494.368 516.738 492.658L513.308 494.716L509.878 496.774C511.58 499.61 513.869 501.899 516.705 503.6L518.763 500.17ZM513.308 494.716L516.753 492.683C515.791 491.053 515.297 489.248 515.297 487.182H511.297H507.297C507.297 490.615 508.143 493.833 509.863 496.749L513.308 494.716ZM511.297 487.182H515.297C515.297 485.086 515.794 483.289 516.744 481.695L513.308 479.648L509.872 477.6C508.14 480.506 507.297 483.732 507.297 487.182H511.297ZM513.308 479.648L516.738 481.706C517.76 480.002 519.099 478.673 520.795 477.672L518.763 474.227L516.73 470.782C513.881 472.463 511.583 474.748 509.878 477.59L513.308 479.648ZM518.763 474.227L520.821 477.657C522.448 476.681 524.243 476.182 526.297 476.182V472.182V468.182C522.85 468.182 519.623 469.046 516.705 470.797L518.763 474.227ZM526.297 472.182V476.182C528.38 476.182 530.167 476.684 531.758 477.648L533.831 474.227L535.904 470.806C532.995 469.043 529.759 468.182 526.297 468.182V472.182ZM533.831 474.227L531.798 477.672C533.488 478.669 534.809 479.99 535.806 481.68L539.251 479.648L542.696 477.615C541.012 474.76 538.719 472.467 535.864 470.782L533.831 474.227ZM539.251 479.648L535.831 481.721C536.795 483.312 537.297 485.099 537.297 487.182H541.297H545.297C545.297 483.719 544.435 480.484 542.672 477.575L539.251 479.648ZM541.297 487.182H537.297C537.297 489.235 536.798 491.031 535.821 492.658L539.251 494.716L542.681 496.774C544.432 493.855 545.297 490.628 545.297 487.182H541.297ZM539.251 494.716L535.806 492.683C534.806 494.379 533.477 495.718 531.773 496.74L533.831 500.17L535.889 503.6C538.731 501.895 541.015 499.598 542.696 496.749L539.251 494.716ZM533.831 500.17L531.783 496.734C530.189 497.684 528.393 498.182 526.297 498.182V502.182V506.182C529.747 506.182 532.973 505.338 535.879 503.607L533.831 500.17ZM617.524 515L613.698 516.166L614.561 519H617.524V515ZM601.57 462.636V458.636H596.169L597.743 463.802L601.57 462.636ZM610.024 462.636L613.874 461.55L613.051 458.636H610.024V462.636ZM621.342 502.727L617.493 503.814L618.315 506.727H621.342V502.727ZM621.888 502.727V506.727H624.925L625.741 503.802L621.888 502.727ZM633.07 462.636V458.636H630.033L629.217 461.562L633.07 462.636ZM641.661 462.636L645.516 461.571L644.705 458.636H641.661V462.636ZM652.706 502.591L648.851 503.657L649.662 506.591H652.706V502.591ZM653.251 502.591V506.591H656.276L657.1 503.681L653.251 502.591ZM664.57 462.636V458.636H661.545L660.721 461.546L664.57 462.636ZM673.024 462.636L676.85 463.802L678.424 458.636H673.024V462.636ZM657.07 515V519H660.032L660.896 516.166L657.07 515ZM649.161 515L645.313 516.095L646.14 519H649.161V515ZM637.706 474.773L641.553 473.677L640.726 470.773H637.706V474.773ZM636.888 474.773V470.773H633.868L633.041 473.677L636.888 474.773ZM625.433 515V519H628.453L629.28 516.095L625.433 515ZM617.524 515L621.35 513.834L605.396 461.471L601.57 462.636L597.743 463.802L613.698 516.166L617.524 515ZM601.57 462.636V466.636H610.024V462.636V458.636H601.57V462.636ZM610.024 462.636L606.175 463.723L617.493 503.814L621.342 502.727L625.192 501.64L613.874 461.55L610.024 462.636ZM621.342 502.727V506.727H621.888V502.727V498.727H621.342V502.727ZM621.888 502.727L625.741 503.802L636.923 463.711L633.07 462.636L629.217 461.562L618.035 501.653L621.888 502.727ZM633.07 462.636V466.636H641.661V462.636V458.636H633.07V462.636ZM641.661 462.636L637.805 463.702L648.851 503.657L652.706 502.591L656.561 501.525L645.516 461.571L641.661 462.636ZM652.706 502.591V506.591H653.251V502.591V498.591H652.706V502.591ZM653.251 502.591L657.1 503.681L668.418 463.727L664.57 462.636L660.721 461.546L649.403 501.501L653.251 502.591ZM664.57 462.636V466.636H673.024V462.636V458.636H664.57V462.636ZM673.024 462.636L669.198 461.471L653.243 513.834L657.07 515L660.896 516.166L676.85 463.802L673.024 462.636ZM657.07 515V511H649.161V515V519H657.07V515ZM649.161 515L653.008 513.905L641.553 473.677L637.706 474.773L633.859 475.868L645.313 516.095L649.161 515ZM637.706 474.773V470.773H636.888V474.773V478.773H637.706V474.773ZM636.888 474.773L633.041 473.677L621.586 513.905L625.433 515L629.28 516.095L640.735 475.868L636.888 474.773ZM625.433 515V511H617.524V515V519H625.433V515ZM681.07 527H677.07V531H681.07V527ZM681.07 521.682L678.412 518.692L677.07 519.886V521.682H681.07ZM697.024 507.5L694.372 504.506L694.367 504.51L697.024 507.5ZM701.013 503.716L703.9 506.485L703.9 506.485L701.013 503.716ZM703.433 500.477L706.98 502.328L706.98 502.328L703.433 500.477ZM690.138 492.432L692.752 495.459L692.765 495.448L692.778 495.436L690.138 492.432ZM687.888 497.545V501.545H691.888V497.545H687.888ZM680.797 497.545H676.797V501.545H680.797V497.545ZM685.126 488.17L687.661 491.265L687.668 491.259L687.675 491.253L685.126 488.17ZM704.115 486.227L702.384 489.833L702.399 489.84L702.414 489.847L704.115 486.227ZM709.433 490.659L706.117 492.896L706.124 492.906L706.13 492.915L709.433 490.659ZM710.217 502.182L706.599 500.476L706.599 500.476L710.217 502.182ZM706.706 507.125L709.63 509.854L709.63 509.854L706.706 507.125ZM700.57 512.955L697.939 509.941L697.932 509.947L700.57 512.955ZM691.706 520.727L689.069 517.72L687.706 518.915V520.727H691.706ZM691.706 521H687.706V525H691.706V521ZM712.57 521H716.57V517H712.57V521ZM712.57 527V531H716.57V527H712.57ZM681.07 527H685.07V521.682H681.07H677.07V527H681.07ZM681.07 521.682L683.727 524.671L699.682 510.49L697.024 507.5L694.367 504.51L678.412 518.692L681.07 521.682ZM697.024 507.5L699.676 510.494C701.321 509.038 702.734 507.7 703.9 506.485L701.013 503.716L698.126 500.947C697.155 501.959 695.91 503.144 694.372 504.506L697.024 507.5ZM701.013 503.716L703.9 506.485C705.154 505.177 706.214 503.794 706.98 502.328L703.433 500.477L699.887 498.627C699.561 499.251 699.008 500.028 698.126 500.947L701.013 503.716ZM703.433 500.477L706.98 502.328C707.824 500.71 708.251 498.961 708.251 497.136H704.251H700.251C700.251 497.675 700.134 498.154 699.887 498.627L703.433 500.477ZM704.251 497.136H708.251C708.251 493.898 706.929 491.081 704.336 489.089L701.899 492.261L699.463 495.434C700.006 495.851 700.251 496.284 700.251 497.136H704.251ZM701.899 492.261L704.336 489.089C701.953 487.259 699.111 486.455 696.07 486.455V490.455V494.455C697.664 494.455 698.709 494.855 699.463 495.434L701.899 492.261ZM696.07 490.455V486.455C692.875 486.455 689.885 487.329 687.497 489.427L690.138 492.432L692.778 495.436C693.391 494.898 694.355 494.455 696.07 494.455V490.455ZM690.138 492.432L687.523 489.405C685.079 491.515 683.888 494.357 683.888 497.545H687.888H691.888C691.888 496.507 692.196 495.939 692.752 495.459L690.138 492.432ZM687.888 497.545V493.545H680.797V497.545V501.545H687.888V497.545ZM680.797 497.545H684.797C684.797 494.801 685.746 492.833 687.661 491.265L685.126 488.17L682.592 485.076C678.734 488.235 676.797 492.518 676.797 497.545H680.797ZM685.126 488.17L687.675 491.253C689.707 489.573 692.441 488.591 696.206 488.591V484.591V480.591C690.971 480.591 686.318 481.995 682.578 485.088L685.126 488.17ZM696.206 484.591V488.591C698.719 488.591 700.745 489.046 702.384 489.833L704.115 486.227L705.846 482.621C702.94 481.226 699.693 480.591 696.206 480.591V484.591ZM704.115 486.227L702.414 489.847C704.103 490.641 705.289 491.669 706.117 492.896L709.433 490.659L712.749 488.422C711.032 485.877 708.673 483.95 705.817 482.607L704.115 486.227ZM709.433 490.659L706.13 492.915C706.927 494.081 707.342 495.401 707.342 497H711.342H715.342C715.342 493.872 714.485 490.964 712.736 488.403L709.433 490.659ZM711.342 497H707.342C707.342 498.31 707.083 499.45 706.599 500.476L710.217 502.182L713.835 503.887C714.852 501.732 715.342 499.417 715.342 497H711.342ZM710.217 502.182L706.599 500.476C706.073 501.592 705.176 502.902 703.782 504.396L706.706 507.125L709.63 509.854C711.418 507.939 712.862 505.953 713.835 503.887L710.217 502.182ZM706.706 507.125L703.782 504.396C702.314 505.969 700.376 507.815 697.939 509.941L700.57 512.955L703.2 515.968C705.763 513.731 707.916 511.69 709.63 509.854L706.706 507.125ZM700.57 512.955L697.932 509.947L689.069 517.72L691.706 520.727L694.343 523.735L703.207 515.962L700.57 512.955ZM691.706 520.727H687.706V521H691.706H695.706V520.727H691.706ZM691.706 521V525H712.57V521V517H691.706V521ZM712.57 521H708.57V527H712.57H716.57V521H712.57ZM712.57 527V523H681.07V527V531H712.57V527Z" fill="#FEBC2F" mask="url(#path-16-outside-4_18_50)"/>
<rect x="2636" y="414" width="268" height="268" rx="134" fill="#D9D9D9"/>
<rect x="2633" y="411" width="274" height="274" rx="137" stroke="#404040" stroke-opacity="0.352941" stroke-width="6"/>
<path d="M2755.83 602.636C2754.46 602.636 2753.25 602.523 2752.18 602.295C2751.11 602.091 2750.37 601.886 2749.96 601.682L2752.01 594.591C2753.96 595.091 2755.69 595.273 2757.19 595.136C2758.69 595 2760.02 594.33 2761.18 593.125C2762.36 591.943 2763.44 590.023 2764.42 587.364L2765.92 583.273L2746.55 530.636H2755.28L2769.74 572.364H2770.28L2784.74 530.636H2793.46L2771.24 590.636C2770.24 593.341 2769 595.58 2767.52 597.352C2766.04 599.148 2764.33 600.477 2762.37 601.341C2760.44 602.205 2758.26 602.636 2755.83 602.636Z" fill="#2B2A2B"/>
<rect x="547" y="1056" width="268" height="268" rx="134" fill="#55A49F"/>
<rect x="544" y="1053" width="274" height="274" rx="137" stroke="#404040" stroke-opacity="0.352941" stroke-width="6"/>
<path d="M690.46 1155.18V1225H682.006V1164.05H681.597L664.551 1175.36V1166.77L682.006 1155.18H690.46Z" fill="#2B2A2B"/>
<rect x="911" y="368" width="360" height="360" rx="180" fill="#BF85FC"/>
<rect x="908" y="365" width="366" height="366" rx="183" stroke="#404040" stroke-opacity="0.352941" stroke-width="6"/>
<path d="M1143.78 498.099V483.757H1050.56L1105.41 542.755C1108.84 546.453 1108.8 552.201 1105.3 555.836L1051.07 612.244H1143.77V603.582C1143.77 598.334 1148.04 594.064 1153.29 594.064C1158.54 594.064 1162.82 598.334 1162.82 603.582V621.761C1162.82 627.011 1158.54 631.284 1153.29 631.284H1028.7C1024.88 631.284 1021.44 629.012 1019.95 625.493C1018.45 621.975 1019.19 617.921 1021.84 615.164L1085.34 549.129L1021.73 480.72C1019.15 477.944 1018.47 473.909 1019.98 470.434C1021.49 466.961 1024.92 464.716 1028.7 464.716H1153.3C1158.54 464.716 1162.82 468.986 1162.82 474.238V498.099C1162.82 503.348 1158.55 507.62 1153.3 507.62C1148.05 507.62 1143.78 503.35 1143.78 498.099Z" fill="#2B2A2B"/>
<rect x="1763" y="368" width="360" height="360" rx="180" fill="#D97192"/>
<rect x="1760" y="365" width="366" height="366" rx="183" stroke="#404040" stroke-opacity="0.352941" stroke-width="6"/>
<line x1="1817" y1="599.5" x2="1947" y2="599.5" stroke="#2B2A2B" stroke-width="8"/>
<line x1="1939" y1="496.5" x2="2069" y2="496.5" stroke="#2B2A2B" stroke-width="8"/>
<line x1="1943" y1="492.5" x2="1943" y2="603.5" stroke="#2B2A2B" stroke-width="8"/>
<path d="M1014 743L961.249 766.467L1007.95 800.417L1014 743ZM777 1069L781.044 1071.94L991.583 782.338L987.539 779.398L983.495 776.458L772.956 1066.06L777 1069Z" fill="#FEBC2F"/>
<path d="M924.508 668.575L867.803 657.716L886.752 712.253L924.508 668.575ZM274.492 894.425L276.133 899.149L883.642 688.067L882.001 683.344L880.36 678.621L272.851 889.702L274.492 894.425Z" fill="#FEBC2F"/>
<path d="M924.816 440.084L887.058 396.408L868.112 450.946L924.816 440.084ZM274 214L272.359 218.723L880.667 430.04L882.308 425.317L883.949 420.594L275.641 209.277L274 214Z" fill="#FEBC2F"/>
<path d="M893 548L843 519.132V576.868L893 548ZM307 548V553H848V548V543H307V548Z" fill="#FEBC2F"/>
<path d="M1743 548L1693 519.132V576.868L1743 548ZM1291 548V553H1698V548V543H1291V548Z" fill="#2B2A2B"/>
<path d="M2603 548L2553 519.132V576.868L2603 548ZM2151 548V553H2558V548V543H2151V548Z" fill="#2B2A2B"/>
<rect x="1401" y="1011" width="116" height="79" fill="#FEBC2F"/>
<path d="M1575.52 1014.18V1084H1567.47V1014.18H1575.52ZM1612.21 1085.09C1607.16 1085.09 1602.81 1083.98 1599.15 1081.75C1595.52 1079.5 1592.71 1076.36 1590.73 1072.34C1588.78 1068.3 1587.8 1063.59 1587.8 1058.23C1587.8 1052.86 1588.78 1048.14 1590.73 1044.05C1592.71 1039.93 1595.46 1036.73 1598.98 1034.43C1602.53 1032.11 1606.66 1030.95 1611.39 1030.95C1614.12 1030.95 1616.81 1031.41 1619.47 1032.32C1622.13 1033.23 1624.55 1034.7 1626.73 1036.75C1628.91 1038.77 1630.65 1041.45 1631.95 1044.8C1633.24 1048.14 1633.89 1052.25 1633.89 1057.14V1060.55H1593.53V1053.59H1625.71C1625.71 1050.64 1625.12 1048 1623.94 1045.68C1622.78 1043.36 1621.12 1041.53 1618.96 1040.19C1616.82 1038.85 1614.3 1038.18 1611.39 1038.18C1608.19 1038.18 1605.41 1038.98 1603.07 1040.57C1600.75 1042.14 1598.97 1044.18 1597.72 1046.7C1596.47 1049.23 1595.85 1051.93 1595.85 1054.82V1059.45C1595.85 1063.41 1596.53 1066.76 1597.89 1069.51C1599.28 1072.24 1601.2 1074.32 1603.65 1075.75C1606.11 1077.16 1608.96 1077.86 1612.21 1077.86C1614.32 1077.86 1616.23 1077.57 1617.94 1076.98C1619.66 1076.36 1621.15 1075.45 1622.4 1074.25C1623.65 1073.02 1624.62 1071.5 1625.3 1069.68L1633.07 1071.86C1632.25 1074.5 1630.88 1076.82 1628.95 1078.82C1627.02 1080.8 1624.63 1082.34 1621.79 1083.45C1618.95 1084.55 1615.75 1085.09 1612.21 1085.09ZM1661.54 1085.23C1658.22 1085.23 1655.21 1084.6 1652.5 1083.35C1649.8 1082.08 1647.65 1080.25 1646.06 1077.86C1644.47 1075.45 1643.67 1072.55 1643.67 1069.14C1643.67 1066.14 1644.27 1063.7 1645.45 1061.84C1646.63 1059.95 1648.21 1058.48 1650.19 1057.41C1652.16 1056.34 1654.35 1055.55 1656.73 1055.02C1659.14 1054.48 1661.56 1054.05 1663.99 1053.73C1667.17 1053.32 1669.75 1053.01 1671.73 1052.81C1673.73 1052.58 1675.19 1052.2 1676.1 1051.68C1677.03 1051.16 1677.49 1050.25 1677.49 1048.95V1048.68C1677.49 1045.32 1676.57 1042.7 1674.73 1040.84C1672.91 1038.98 1670.15 1038.05 1666.45 1038.05C1662.61 1038.05 1659.6 1038.89 1657.41 1040.57C1655.23 1042.25 1653.7 1044.05 1652.81 1045.95L1645.17 1043.23C1646.54 1040.05 1648.36 1037.57 1650.63 1035.8C1652.92 1034 1655.42 1032.75 1658.13 1032.05C1660.86 1031.32 1663.54 1030.95 1666.17 1030.95C1667.86 1030.95 1669.79 1031.16 1671.97 1031.57C1674.17 1031.95 1676.3 1032.76 1678.35 1033.99C1680.41 1035.22 1682.13 1037.07 1683.49 1039.55C1684.86 1042.02 1685.54 1045.34 1685.54 1049.5V1084H1677.49V1076.91H1677.08C1676.54 1078.05 1675.63 1079.26 1674.36 1080.56C1673.08 1081.85 1671.39 1082.95 1669.28 1083.86C1667.16 1084.77 1664.58 1085.23 1661.54 1085.23ZM1662.77 1078C1665.95 1078 1668.63 1077.38 1670.81 1076.12C1673.02 1074.88 1674.67 1073.26 1675.79 1071.28C1676.92 1069.31 1677.49 1067.23 1677.49 1065.05V1057.68C1677.15 1058.09 1676.4 1058.47 1675.24 1058.81C1674.11 1059.12 1672.79 1059.41 1671.29 1059.66C1669.81 1059.89 1668.37 1060.09 1666.96 1060.27C1665.57 1060.43 1664.45 1060.57 1663.58 1060.68C1661.49 1060.95 1659.54 1061.4 1657.72 1062.01C1655.92 1062.6 1654.47 1063.5 1653.36 1064.7C1652.27 1065.89 1651.72 1067.5 1651.72 1069.55C1651.72 1072.34 1652.75 1074.45 1654.82 1075.89C1656.91 1077.3 1659.56 1078 1662.77 1078ZM1700.22 1084V1031.64H1708V1039.55H1708.54C1709.5 1036.95 1711.22 1034.85 1713.72 1033.24C1716.22 1031.62 1719.04 1030.82 1722.18 1030.82C1722.77 1030.82 1723.51 1030.83 1724.39 1030.85C1725.28 1030.87 1725.95 1030.91 1726.4 1030.95V1039.14C1726.13 1039.07 1725.51 1038.97 1724.53 1038.83C1723.58 1038.67 1722.56 1038.59 1721.5 1038.59C1718.95 1038.59 1716.68 1039.12 1714.68 1040.19C1712.7 1041.24 1711.13 1042.69 1709.97 1044.56C1708.84 1046.4 1708.27 1048.5 1708.27 1050.86V1084H1700.22ZM1743.99 1052.5V1084H1735.94V1031.64H1743.71V1039.82H1744.4C1745.62 1037.16 1747.49 1035.02 1749.99 1033.41C1752.49 1031.77 1755.71 1030.95 1759.67 1030.95C1763.21 1030.95 1766.32 1031.68 1768.98 1033.14C1771.63 1034.57 1773.7 1036.75 1775.18 1039.68C1776.66 1042.59 1777.4 1046.27 1777.4 1050.73V1084H1769.35V1051.27C1769.35 1047.16 1768.28 1043.95 1766.15 1041.66C1764.01 1039.34 1761.08 1038.18 1757.35 1038.18C1754.78 1038.18 1752.49 1038.74 1750.46 1039.85C1748.46 1040.97 1746.88 1042.59 1745.73 1044.73C1744.57 1046.86 1743.99 1049.45 1743.99 1052.5ZM1807.51 1085.23C1804.19 1085.23 1801.18 1084.6 1798.47 1083.35C1795.77 1082.08 1793.62 1080.25 1792.03 1077.86C1790.44 1075.45 1789.64 1072.55 1789.64 1069.14C1789.64 1066.14 1790.23 1063.7 1791.42 1061.84C1792.6 1059.95 1794.18 1058.48 1796.15 1057.41C1798.13 1056.34 1800.31 1055.55 1802.7 1055.02C1805.11 1054.48 1807.53 1054.05 1809.96 1053.73C1813.14 1053.32 1815.72 1053.01 1817.7 1052.81C1819.7 1052.58 1821.15 1052.2 1822.06 1051.68C1823 1051.16 1823.46 1050.25 1823.46 1048.95V1048.68C1823.46 1045.32 1822.54 1042.7 1820.7 1040.84C1818.88 1038.98 1816.12 1038.05 1812.42 1038.05C1808.58 1038.05 1805.56 1038.89 1803.38 1040.57C1801.2 1042.25 1799.67 1044.05 1798.78 1045.95L1791.14 1043.23C1792.51 1040.05 1794.33 1037.57 1796.6 1035.8C1798.89 1034 1801.39 1032.75 1804.1 1032.05C1806.83 1031.32 1809.51 1030.95 1812.14 1030.95C1813.83 1030.95 1815.76 1031.16 1817.94 1031.57C1820.14 1031.95 1822.27 1032.76 1824.31 1033.99C1826.38 1035.22 1828.1 1037.07 1829.46 1039.55C1830.83 1042.02 1831.51 1045.34 1831.51 1049.5V1084H1823.46V1076.91H1823.05C1822.51 1078.05 1821.6 1079.26 1820.33 1080.56C1819.05 1081.85 1817.36 1082.95 1815.25 1083.86C1813.13 1084.77 1810.55 1085.23 1807.51 1085.23ZM1808.73 1078C1811.92 1078 1814.6 1077.38 1816.78 1076.12C1818.98 1074.88 1820.64 1073.26 1821.76 1071.28C1822.89 1069.31 1823.46 1067.23 1823.46 1065.05V1057.68C1823.12 1058.09 1822.37 1058.47 1821.21 1058.81C1820.08 1059.12 1818.76 1059.41 1817.26 1059.66C1815.78 1059.89 1814.34 1060.09 1812.93 1060.27C1811.54 1060.43 1810.42 1060.57 1809.55 1060.68C1807.46 1060.95 1805.51 1061.4 1803.69 1062.01C1801.89 1062.6 1800.44 1063.5 1799.33 1064.7C1798.23 1065.89 1797.69 1067.5 1797.69 1069.55C1797.69 1072.34 1798.72 1074.45 1800.79 1075.89C1802.88 1077.3 1805.53 1078 1808.73 1078ZM1847.28 1084V1014.18H1855.33V1039.95H1856.01C1856.6 1039.05 1857.42 1037.89 1858.46 1036.48C1859.53 1035.05 1861.06 1033.77 1863.03 1032.66C1865.03 1031.52 1867.74 1030.95 1871.15 1030.95C1875.56 1030.95 1879.44 1032.06 1882.81 1034.26C1886.17 1036.47 1888.79 1039.59 1890.68 1043.64C1892.57 1047.68 1893.51 1052.45 1893.51 1057.95C1893.51 1063.5 1892.57 1068.31 1890.68 1072.38C1888.79 1076.42 1886.18 1079.56 1882.84 1081.78C1879.5 1083.99 1875.65 1085.09 1871.28 1085.09C1867.92 1085.09 1865.23 1084.53 1863.2 1083.42C1861.18 1082.28 1859.62 1081 1858.53 1079.57C1857.44 1078.11 1856.6 1076.91 1856.01 1075.95H1855.06V1084H1847.28ZM1855.19 1057.82C1855.19 1061.77 1855.77 1065.26 1856.93 1068.28C1858.09 1071.28 1859.78 1073.64 1862.01 1075.34C1864.24 1077.02 1866.96 1077.86 1870.19 1077.86C1873.56 1077.86 1876.36 1076.98 1878.61 1075.2C1880.88 1073.41 1882.59 1071 1883.73 1067.98C1884.88 1064.93 1885.46 1061.55 1885.46 1057.82C1885.46 1054.14 1884.9 1050.82 1883.76 1047.86C1882.65 1044.89 1880.95 1042.53 1878.68 1040.81C1876.43 1039.06 1873.6 1038.18 1870.19 1038.18C1866.92 1038.18 1864.17 1039.01 1861.94 1040.67C1859.71 1042.31 1858.03 1044.6 1856.9 1047.56C1855.76 1050.49 1855.19 1053.91 1855.19 1057.82ZM1913.86 1014.18V1084H1905.82V1014.18H1913.86ZM1950.55 1085.09C1945.51 1085.09 1941.15 1083.98 1937.5 1081.75C1933.86 1079.5 1931.05 1076.36 1929.08 1072.34C1927.12 1068.3 1926.14 1063.59 1926.14 1058.23C1926.14 1052.86 1927.12 1048.14 1929.08 1044.05C1931.05 1039.93 1933.8 1036.73 1937.33 1034.43C1940.87 1032.11 1945.01 1030.95 1949.73 1030.95C1952.46 1030.95 1955.15 1031.41 1957.81 1032.32C1960.47 1033.23 1962.89 1034.7 1965.08 1036.75C1967.26 1038.77 1969 1041.45 1970.29 1044.8C1971.59 1048.14 1972.23 1052.25 1972.23 1057.14V1060.55H1931.87V1053.59H1964.05C1964.05 1050.64 1963.46 1048 1962.28 1045.68C1961.12 1043.36 1959.46 1041.53 1957.3 1040.19C1955.17 1038.85 1952.64 1038.18 1949.73 1038.18C1946.53 1038.18 1943.76 1038.98 1941.42 1040.57C1939.1 1042.14 1937.31 1044.18 1936.06 1046.7C1934.81 1049.23 1934.19 1051.93 1934.19 1054.82V1059.45C1934.19 1063.41 1934.87 1066.76 1936.23 1069.51C1937.62 1072.24 1939.54 1074.32 1942 1075.75C1944.45 1077.16 1947.3 1077.86 1950.55 1077.86C1952.67 1077.86 1954.58 1077.57 1956.28 1076.98C1958.01 1076.36 1959.5 1075.45 1960.75 1074.25C1962 1073.02 1962.96 1071.5 1963.64 1069.68L1971.42 1071.86C1970.6 1074.5 1969.22 1076.82 1967.29 1078.82C1965.36 1080.8 1962.97 1082.34 1960.13 1083.45C1957.29 1084.55 1954.1 1085.09 1950.55 1085.09ZM2011.47 1103.64V1031.64H2019.25V1039.95H2020.2C2020.79 1039.05 2021.61 1037.89 2022.65 1036.48C2023.72 1035.05 2025.25 1033.77 2027.22 1032.66C2029.22 1031.52 2031.93 1030.95 2035.34 1030.95C2039.75 1030.95 2043.63 1032.06 2047 1034.26C2050.36 1036.47 2052.98 1039.59 2054.87 1043.64C2056.76 1047.68 2057.7 1052.45 2057.7 1057.95C2057.7 1063.5 2056.76 1068.31 2054.87 1072.38C2052.98 1076.42 2050.37 1079.56 2047.03 1081.78C2043.69 1083.99 2039.84 1085.09 2035.47 1085.09C2032.11 1085.09 2029.42 1084.53 2027.39 1083.42C2025.37 1082.28 2023.81 1081 2022.72 1079.57C2021.63 1078.11 2020.79 1076.91 2020.2 1075.95H2019.52V1103.64H2011.47ZM2019.38 1057.82C2019.38 1061.77 2019.96 1065.26 2021.12 1068.28C2022.28 1071.28 2023.97 1073.64 2026.2 1075.34C2028.43 1077.02 2031.15 1077.86 2034.38 1077.86C2037.75 1077.86 2040.55 1076.98 2042.8 1075.2C2045.08 1073.41 2046.78 1071 2047.92 1067.98C2049.08 1064.93 2049.65 1061.55 2049.65 1057.82C2049.65 1054.14 2049.09 1050.82 2047.95 1047.86C2046.84 1044.89 2045.14 1042.53 2042.87 1040.81C2040.62 1039.06 2037.79 1038.18 2034.38 1038.18C2031.11 1038.18 2028.36 1039.01 2026.13 1040.67C2023.9 1042.31 2022.22 1044.6 2021.09 1047.56C2019.95 1050.49 2019.38 1053.91 2019.38 1057.82ZM2085.38 1085.23C2082.06 1085.23 2079.05 1084.6 2076.35 1083.35C2073.64 1082.08 2071.5 1080.25 2069.9 1077.86C2068.31 1075.45 2067.52 1072.55 2067.52 1069.14C2067.52 1066.14 2068.11 1063.7 2069.29 1061.84C2070.47 1059.95 2072.05 1058.48 2074.03 1057.41C2076.01 1056.34 2078.19 1055.55 2080.58 1055.02C2082.98 1054.48 2085.4 1054.05 2087.84 1053.73C2091.02 1053.32 2093.6 1053.01 2095.58 1052.81C2097.58 1052.58 2099.03 1052.2 2099.94 1051.68C2100.87 1051.16 2101.34 1050.25 2101.34 1048.95V1048.68C2101.34 1045.32 2100.42 1042.7 2098.58 1040.84C2096.76 1038.98 2094 1038.05 2090.29 1038.05C2086.45 1038.05 2083.44 1038.89 2081.26 1040.57C2079.08 1042.25 2077.54 1044.05 2076.65 1045.95L2069.02 1043.23C2070.38 1040.05 2072.2 1037.57 2074.47 1035.8C2076.77 1034 2079.27 1032.75 2081.97 1032.05C2084.7 1031.32 2087.38 1030.95 2090.02 1030.95C2091.7 1030.95 2093.63 1031.16 2095.81 1031.57C2098.02 1031.95 2100.14 1032.76 2102.19 1033.99C2104.26 1035.22 2105.97 1037.07 2107.34 1039.55C2108.7 1042.02 2109.38 1045.34 2109.38 1049.5V1084H2101.34V1076.91H2100.93C2100.38 1078.05 2099.47 1079.26 2098.2 1080.56C2096.93 1081.85 2095.23 1082.95 2093.12 1083.86C2091.01 1084.77 2088.43 1085.23 2085.38 1085.23ZM2086.61 1078C2089.79 1078 2092.47 1077.38 2094.65 1076.12C2096.86 1074.88 2098.52 1073.26 2099.63 1071.28C2100.77 1069.31 2101.34 1067.23 2101.34 1065.05V1057.68C2101 1058.09 2100.25 1058.47 2099.09 1058.81C2097.95 1059.12 2096.63 1059.41 2095.13 1059.66C2093.65 1059.89 2092.21 1060.09 2090.8 1060.27C2089.42 1060.43 2088.29 1060.57 2087.43 1060.68C2085.34 1060.95 2083.38 1061.4 2081.56 1062.01C2079.77 1062.6 2078.31 1063.5 2077.2 1064.7C2076.11 1065.89 2075.56 1067.5 2075.56 1069.55C2075.56 1072.34 2076.6 1074.45 2078.67 1075.89C2080.76 1077.3 2083.4 1078 2086.61 1078ZM2124.07 1084V1031.64H2131.84V1039.55H2132.38C2133.34 1036.95 2135.07 1034.85 2137.57 1033.24C2140.07 1031.62 2142.88 1030.82 2146.02 1030.82C2146.61 1030.82 2147.35 1030.83 2148.24 1030.85C2149.12 1030.87 2149.79 1030.91 2150.25 1030.95V1039.14C2149.98 1039.07 2149.35 1038.97 2148.37 1038.83C2147.42 1038.67 2146.41 1038.59 2145.34 1038.59C2142.79 1038.59 2140.52 1039.12 2138.52 1040.19C2136.54 1041.24 2134.98 1042.69 2133.82 1044.56C2132.68 1046.4 2132.11 1048.5 2132.11 1050.86V1084H2124.07ZM2175.19 1085.23C2171.88 1085.23 2168.87 1084.6 2166.16 1083.35C2163.46 1082.08 2161.31 1080.25 2159.72 1077.86C2158.13 1075.45 2157.33 1072.55 2157.33 1069.14C2157.33 1066.14 2157.92 1063.7 2159.1 1061.84C2160.29 1059.95 2161.87 1058.48 2163.84 1057.41C2165.82 1056.34 2168 1055.55 2170.39 1055.02C2172.8 1054.48 2175.22 1054.05 2177.65 1053.73C2180.83 1053.32 2183.41 1053.01 2185.39 1052.81C2187.39 1052.58 2188.84 1052.2 2189.75 1051.68C2190.68 1051.16 2191.15 1050.25 2191.15 1048.95V1048.68C2191.15 1045.32 2190.23 1042.7 2188.39 1040.84C2186.57 1038.98 2183.81 1038.05 2180.1 1038.05C2176.26 1038.05 2173.25 1038.89 2171.07 1040.57C2168.89 1042.25 2167.35 1044.05 2166.47 1045.95L2158.83 1043.23C2160.19 1040.05 2162.01 1037.57 2164.29 1035.8C2166.58 1034 2169.08 1032.75 2171.79 1032.05C2174.51 1031.32 2177.19 1030.95 2179.83 1030.95C2181.51 1030.95 2183.44 1031.16 2185.63 1031.57C2187.83 1031.95 2189.96 1032.76 2192 1033.99C2194.07 1035.22 2195.79 1037.07 2197.15 1039.55C2198.51 1042.02 2199.19 1045.34 2199.19 1049.5V1084H2191.15V1076.91H2190.74C2190.19 1078.05 2189.29 1079.26 2188.01 1080.56C2186.74 1081.85 2185.05 1082.95 2182.93 1083.86C2180.82 1084.77 2178.24 1085.23 2175.19 1085.23ZM2176.42 1078C2179.6 1078 2182.29 1077.38 2184.47 1076.12C2186.67 1074.88 2188.33 1073.26 2189.44 1071.28C2190.58 1069.31 2191.15 1067.23 2191.15 1065.05V1057.68C2190.81 1058.09 2190.06 1058.47 2188.9 1058.81C2187.76 1059.12 2186.44 1059.41 2184.94 1059.66C2183.47 1059.89 2182.02 1060.09 2180.62 1060.27C2179.23 1060.43 2178.1 1060.57 2177.24 1060.68C2175.15 1060.95 2173.19 1061.4 2171.38 1062.01C2169.58 1062.6 2168.13 1063.5 2167.01 1064.7C2165.92 1065.89 2165.38 1067.5 2165.38 1069.55C2165.38 1072.34 2166.41 1074.45 2168.48 1075.89C2170.57 1077.3 2173.22 1078 2176.42 1078ZM2213.88 1084V1031.64H2221.65V1039.82H2222.33C2223.42 1037.02 2225.19 1034.85 2227.62 1033.31C2230.05 1031.74 2232.97 1030.95 2236.38 1030.95C2239.83 1030.95 2242.71 1031.74 2245 1033.31C2247.32 1034.85 2249.13 1037.02 2250.42 1039.82H2250.97C2252.31 1037.11 2254.32 1034.97 2257 1033.38C2259.69 1031.76 2262.9 1030.95 2266.65 1030.95C2271.33 1030.95 2275.16 1032.42 2278.14 1035.35C2281.12 1038.26 2282.61 1042.8 2282.61 1048.95V1084H2274.56V1048.95C2274.56 1045.09 2273.5 1042.33 2271.39 1040.67C2269.28 1039.01 2266.79 1038.18 2263.92 1038.18C2260.24 1038.18 2257.39 1039.3 2255.37 1041.52C2253.35 1043.73 2252.33 1046.52 2252.33 1049.91V1084H2244.15V1048.14C2244.15 1045.16 2243.19 1042.76 2241.25 1040.94C2239.32 1039.1 2236.83 1038.18 2233.79 1038.18C2231.7 1038.18 2229.74 1038.74 2227.92 1039.85C2226.13 1040.97 2224.67 1042.51 2223.56 1044.49C2222.47 1046.44 2221.92 1048.7 2221.92 1051.27V1084H2213.88ZM2319.27 1085.09C2314.23 1085.09 2309.87 1083.98 2306.21 1081.75C2302.58 1079.5 2299.77 1076.36 2297.79 1072.34C2295.84 1068.3 2294.86 1063.59 2294.86 1058.23C2294.86 1052.86 2295.84 1048.14 2297.79 1044.05C2299.77 1039.93 2302.52 1036.73 2306.04 1034.43C2309.59 1032.11 2313.73 1030.95 2318.45 1030.95C2321.18 1030.95 2323.87 1031.41 2326.53 1032.32C2329.19 1033.23 2331.61 1034.7 2333.79 1036.75C2335.98 1038.77 2337.71 1041.45 2339.01 1044.8C2340.31 1048.14 2340.95 1052.25 2340.95 1057.14V1060.55H2300.59V1053.59H2332.77C2332.77 1050.64 2332.18 1048 2331 1045.68C2329.84 1043.36 2328.18 1041.53 2326.02 1040.19C2323.88 1038.85 2321.36 1038.18 2318.45 1038.18C2315.25 1038.18 2312.48 1038.98 2310.13 1040.57C2307.82 1042.14 2306.03 1044.18 2304.78 1046.7C2303.53 1049.23 2302.91 1051.93 2302.91 1054.82V1059.45C2302.91 1063.41 2303.59 1066.76 2304.95 1069.51C2306.34 1072.24 2308.26 1074.32 2310.71 1075.75C2313.17 1077.16 2316.02 1077.86 2319.27 1077.86C2321.38 1077.86 2323.29 1077.57 2325 1076.98C2326.73 1076.36 2328.21 1075.45 2329.46 1074.25C2330.71 1073.02 2331.68 1071.5 2332.36 1069.68L2340.13 1071.86C2339.32 1074.5 2337.94 1076.82 2336.01 1078.82C2334.08 1080.8 2331.69 1082.34 2328.85 1083.45C2326.01 1084.55 2322.82 1085.09 2319.27 1085.09ZM2375.96 1031.64V1038.45H2348.83V1031.64H2375.96ZM2356.74 1019.09H2364.78V1069C2364.78 1071.27 2365.11 1072.98 2365.77 1074.11C2366.45 1075.23 2367.32 1075.98 2368.36 1076.36C2369.43 1076.73 2370.56 1076.91 2371.74 1076.91C2372.62 1076.91 2373.35 1076.86 2373.92 1076.77C2374.49 1076.66 2374.94 1076.57 2375.28 1076.5L2376.92 1083.73C2376.37 1083.93 2375.61 1084.14 2374.63 1084.34C2373.66 1084.57 2372.42 1084.68 2370.92 1084.68C2368.65 1084.68 2366.42 1084.19 2364.24 1083.22C2362.08 1082.24 2360.28 1080.75 2358.85 1078.75C2357.44 1076.75 2356.74 1074.23 2356.74 1071.18V1019.09ZM2409.46 1085.09C2404.41 1085.09 2400.06 1083.98 2396.4 1081.75C2392.77 1079.5 2389.96 1076.36 2387.98 1072.34C2386.03 1068.3 2385.05 1063.59 2385.05 1058.23C2385.05 1052.86 2386.03 1048.14 2387.98 1044.05C2389.96 1039.93 2392.71 1036.73 2396.23 1034.43C2399.78 1032.11 2403.91 1030.95 2408.64 1030.95C2411.37 1030.95 2414.06 1031.41 2416.72 1032.32C2419.38 1033.23 2421.8 1034.7 2423.98 1036.75C2426.16 1038.77 2427.9 1041.45 2429.2 1044.8C2430.49 1048.14 2431.14 1052.25 2431.14 1057.14V1060.55H2390.78V1053.59H2422.96C2422.96 1050.64 2422.37 1048 2421.19 1045.68C2420.03 1043.36 2418.37 1041.53 2416.21 1040.19C2414.07 1038.85 2411.55 1038.18 2408.64 1038.18C2405.44 1038.18 2402.66 1038.98 2400.32 1040.57C2398 1042.14 2396.22 1044.18 2394.97 1046.7C2393.72 1049.23 2393.1 1051.93 2393.1 1054.82V1059.45C2393.1 1063.41 2393.78 1066.76 2395.14 1069.51C2396.53 1072.24 2398.45 1074.32 2400.9 1075.75C2403.36 1077.16 2406.21 1077.86 2409.46 1077.86C2411.57 1077.86 2413.48 1077.57 2415.19 1076.98C2416.91 1076.36 2418.4 1075.45 2419.65 1074.25C2420.9 1073.02 2421.87 1071.5 2422.55 1069.68L2430.32 1071.86C2429.5 1074.5 2428.13 1076.82 2426.2 1078.82C2424.27 1080.8 2421.88 1082.34 2419.04 1083.45C2416.2 1084.55 2413 1085.09 2409.46 1085.09ZM2443.38 1084V1031.64H2451.15V1039.55H2451.7C2452.65 1036.95 2454.38 1034.85 2456.88 1033.24C2459.38 1031.62 2462.2 1030.82 2465.33 1030.82C2465.92 1030.82 2466.66 1030.83 2467.55 1030.85C2468.44 1030.87 2469.11 1030.91 2469.56 1030.95V1039.14C2469.29 1039.07 2468.66 1038.97 2467.69 1038.83C2466.73 1038.67 2465.72 1038.59 2464.65 1038.59C2462.11 1038.59 2459.83 1039.12 2457.83 1040.19C2455.86 1041.24 2454.29 1042.69 2453.13 1044.56C2451.99 1046.4 2451.42 1048.5 2451.42 1050.86V1084H2443.38ZM2516.19 1043.36L2508.96 1045.41C2508.51 1044.2 2507.84 1043.03 2506.95 1041.9C2506.09 1040.74 2504.9 1039.78 2503.4 1039.03C2501.9 1038.28 2499.98 1037.91 2497.64 1037.91C2494.44 1037.91 2491.77 1038.65 2489.63 1040.12C2487.52 1041.58 2486.46 1043.43 2486.46 1045.68C2486.46 1047.68 2487.19 1049.26 2488.64 1050.42C2490.1 1051.58 2492.37 1052.55 2495.46 1053.32L2503.23 1055.23C2507.92 1056.36 2511.4 1058.1 2513.7 1060.44C2516 1062.76 2517.14 1065.75 2517.14 1069.41C2517.14 1072.41 2516.28 1075.09 2514.55 1077.45C2512.85 1079.82 2510.46 1081.68 2507.39 1083.05C2504.33 1084.41 2500.76 1085.09 2496.69 1085.09C2491.35 1085.09 2486.93 1083.93 2483.43 1081.61C2479.93 1079.3 2477.71 1075.91 2476.78 1071.45L2484.42 1069.55C2485.14 1072.36 2486.52 1074.48 2488.54 1075.89C2490.59 1077.3 2493.26 1078 2496.55 1078C2500.3 1078 2503.28 1077.2 2505.48 1075.61C2507.71 1074 2508.83 1072.07 2508.83 1069.82C2508.83 1068 2508.19 1066.48 2506.92 1065.25C2505.64 1064 2503.69 1063.07 2501.05 1062.45L2492.33 1060.41C2487.53 1059.27 2484.01 1057.51 2481.76 1055.12C2479.53 1052.72 2478.42 1049.7 2478.42 1046.09C2478.42 1043.14 2479.25 1040.52 2480.9 1038.25C2482.59 1035.98 2484.87 1034.19 2487.76 1032.9C2490.67 1031.6 2493.96 1030.95 2497.64 1030.95C2502.83 1030.95 2506.89 1032.09 2509.85 1034.36C2512.83 1036.64 2514.94 1039.64 2516.19 1043.36Z" fill="#FEBC2F"/>
</svg>
