<svg width="254" height="189" viewBox="0 0 254 189" fill="none" xmlns="http://www.w3.org/2000/svg">
<path d="M16.5 16.5L237.5 94.5" stroke="#505050" stroke-opacity="0.356988" stroke-width="0.713976"/>
<path d="M16.5 68.5L237.5 94.5" stroke="#505050" stroke-opacity="0.870753" stroke-width="1.74151"/>
<path d="M16.5 120.5L237.5 94.5" stroke="#505050" stroke-opacity="0.67398" stroke-width="1.34796"/>
<path d="M16.5 172.5L237.5 94.5" stroke="#505050" stroke-opacity="0.966899" stroke-width="1.9338"/>
<path d="M16.5 32.5C25.3366 32.5 32.5 25.3366 32.5 16.5C32.5 7.66344 25.3366 0.5 16.5 0.5C7.66344 0.5 0.5 7.66344 0.5 16.5C0.5 25.3366 7.66344 32.5 16.5 32.5Z" fill="#55A49F" stroke="#333333"/>
<path d="M16.5 84.5C25.3366 84.5 32.5 77.3366 32.5 68.5C32.5 59.6634 25.3366 52.5 16.5 52.5C7.66344 52.5 0.5 59.6634 0.5 68.5C0.5 77.3366 7.66344 84.5 16.5 84.5Z" fill="#D9D9D9" stroke="#333333"/>
<path d="M16.5 136.5C25.3366 136.5 32.5 129.337 32.5 120.5C32.5 111.663 25.3366 104.5 16.5 104.5C7.66344 104.5 0.5 111.663 0.5 120.5C0.5 129.337 7.66344 136.5 16.5 136.5Z" fill="#D9D9D9" stroke="#333333"/>
<path d="M16.5 188.5C25.3366 188.5 32.5 181.337 32.5 172.5C32.5 163.663 25.3366 156.5 16.5 156.5C7.66344 156.5 0.5 163.663 0.5 172.5C0.5 181.337 7.66344 188.5 16.5 188.5Z" fill="#D9D9D9" stroke="#333333"/>
<path d="M237.5 110.5C246.337 110.5 253.5 103.337 253.5 94.5C253.5 85.6634 246.337 78.5 237.5 78.5C228.663 78.5 221.5 85.6634 221.5 94.5C221.5 103.337 228.663 110.5 237.5 110.5Z" fill="#D97192" stroke="#333333"/>
</svg>
