<svg width="2910" height="1330" viewBox="0 0 2910 1330" fill="none" xmlns="http://www.w3.org/2000/svg">
<rect x="6" y="6" width="268" height="268" rx="134" fill="#D9D9D9"/>
<rect x="3" y="3" width="274" height="274" rx="137" stroke="#404040" stroke-opacity="0.352941" stroke-width="6"/>
<path d="M106.301 122.636L118.847 144.045L131.392 122.636H140.665L123.756 148.818L140.665 175H131.392L118.847 154.682L106.301 175H97.0284L113.665 148.818L97.0284 122.636H106.301ZM165.918 187.818C160.463 187.818 156.19 185.886 153.099 182.023C150.009 178.182 148.463 172.886 148.463 166.136C148.463 159.386 150.009 154.114 153.099 150.318C156.19 146.5 160.463 144.591 165.918 144.591C171.304 144.591 175.554 146.477 178.668 150.25C181.804 154.023 183.372 159.318 183.372 166.136C183.372 172.955 181.804 178.273 178.668 182.091C175.554 185.909 171.304 187.818 165.918 187.818ZM165.918 181.682C168.918 181.682 171.327 180.364 173.145 177.727C174.963 175.114 175.872 171.25 175.872 166.136C175.872 161.023 174.963 157.159 173.145 154.545C171.327 151.909 168.918 150.591 165.918 150.591C162.918 150.591 160.509 151.909 158.69 154.545C156.872 157.159 155.963 161.023 155.963 166.136C155.963 171.182 156.849 175.034 158.622 177.693C160.418 180.352 162.849 181.682 165.918 181.682Z" fill="#2B2A2B"/>
<rect x="6" y="414" width="268" height="268" rx="134" fill="#D9D9D9"/>
<rect x="3" y="411" width="274" height="274" rx="137" stroke="#404040" stroke-opacity="0.352941" stroke-width="6"/>
<path d="M112.395 530.636L124.94 552.045L137.486 530.636H146.759L129.849 556.818L146.759 583H137.486L124.94 562.682L112.395 583H103.122L119.759 556.818L103.122 530.636H112.395ZM165.807 595V560.568H165.466L154.693 567.727V560.5L165.807 553.136H172.898V595H165.807Z" fill="#2B2A2B"/>
<rect x="6" y="822" width="268" height="268" rx="134" fill="#D9D9D9"/>
<rect x="3" y="819" width="274" height="274" rx="137" stroke="#404040" stroke-opacity="0.352941" stroke-width="6"/>
<path d="M107.239 938.636L119.784 960.045L132.33 938.636H141.602L124.693 964.818L141.602 991H132.33L119.784 970.682L107.239 991H97.9659L114.602 964.818L97.9659 938.636H107.239ZM150.491 1003V997.682L166.446 983.5C168.037 982.091 169.366 980.83 170.435 979.716C171.503 978.602 172.31 977.523 172.855 976.477C173.401 975.432 173.673 974.318 173.673 973.136C173.673 971.091 172.889 969.466 171.321 968.261C169.753 967.057 167.81 966.455 165.491 966.455C163.037 966.455 161.06 967.114 159.56 968.432C158.06 969.727 157.31 971.432 157.31 973.545H150.219C150.219 969.659 151.662 966.534 154.548 964.17C157.435 961.784 161.128 960.591 165.628 960.591C168.628 960.591 171.264 961.136 173.537 962.227C175.81 963.295 177.582 964.773 178.855 966.659C180.128 968.523 180.764 970.636 180.764 973C180.764 974.864 180.389 976.591 179.639 978.182C178.889 979.773 177.719 981.42 176.128 983.125C174.537 984.83 172.491 986.773 169.991 988.955L161.128 996.727V997H181.991V1003H150.491Z" fill="#2B2A2B"/>
<path d="M522.278 248.496C519.681 247.594 517.528 246.136 515.822 244.124C514.122 242.09 513.002 239.776 512.459 237.181C511.939 234.594 512.13 232.002 513.032 229.404C513.942 226.785 515.4 224.633 517.405 222.948C519.439 221.248 521.749 220.138 524.336 219.618C526.931 219.076 529.527 219.256 532.124 220.158C534.744 221.068 536.892 222.537 538.57 224.563C540.277 226.576 541.39 228.875 541.911 231.462C542.461 234.035 542.28 236.631 541.37 239.25C540.468 241.848 538.999 243.997 536.965 245.696C534.953 247.403 532.649 248.527 530.055 249.069C527.49 249.597 524.897 249.406 522.278 248.496ZM604.245 290.546L606.36 235.847L614.347 238.621L611.88 280.206L612.395 280.385L636.115 246.185L644.23 249.005L641.551 290.371L642.066 290.55L665.87 256.524L673.857 259.299L641.6 303.525L634.129 300.929L636.512 259.171L635.739 258.902L611.716 293.142L604.245 290.546ZM675.521 328.881C670.368 327.091 666.966 323.864 665.314 319.199C663.655 314.557 663.934 309.048 666.149 302.671C668.364 296.295 671.555 291.822 675.72 289.251C679.893 286.659 684.556 286.258 689.708 288.048C694.796 289.816 698.191 292.993 699.894 297.578C701.619 302.172 701.362 307.688 699.124 314.129C696.887 320.569 693.66 325.078 689.444 327.656C685.25 330.24 680.609 330.649 675.521 328.881ZM677.535 323.084C680.368 324.069 683.077 323.615 685.659 321.721C688.235 319.849 690.361 316.498 692.04 311.667C693.718 306.837 694.127 302.889 693.268 299.823C692.416 296.736 690.573 294.7 687.739 293.716C684.905 292.731 682.197 293.186 679.614 295.079C677.039 296.951 674.912 300.303 673.234 305.133C671.578 309.899 671.15 313.829 671.952 316.922C672.776 320.023 674.636 322.077 677.535 323.084Z" fill="#2B2A2B"/>
<path d="M537.119 752.24C534.521 753.143 531.929 753.334 529.342 752.813C526.747 752.271 524.433 751.15 522.399 749.451C520.387 747.744 518.929 745.592 518.026 742.994C517.116 740.375 516.925 737.783 517.454 735.217C517.996 732.623 519.12 730.32 520.827 728.307C522.526 726.273 524.675 724.805 527.272 723.902C529.891 722.992 532.488 722.812 535.06 723.362C537.647 723.882 539.947 724.996 541.96 726.703C543.986 728.381 545.455 730.529 546.365 733.148C547.267 735.746 547.447 738.342 546.905 740.936C546.384 743.523 545.274 745.834 543.575 747.868C541.89 749.873 539.738 751.33 537.119 752.24ZM627.499 734.407L595.243 690.18L603.229 687.406L627.078 721.561L627.593 721.382L624.998 679.842L633.113 677.022L656.66 711.138L657.175 710.959L654.753 669.503L662.739 666.728L664.854 721.428L657.383 724.024L633.36 689.784L632.588 690.053L634.97 731.811L627.499 734.407ZM707.189 720.288C702.037 722.079 697.367 721.656 693.179 719.021C688.998 716.407 685.801 711.912 683.585 705.536C681.37 699.16 681.099 693.672 682.773 689.073C684.44 684.452 687.849 681.246 693.001 679.456C698.089 677.688 702.723 678.075 706.903 680.617C711.103 683.151 714.323 687.638 716.561 694.079C718.798 700.519 719.062 706.058 717.353 710.694C715.665 715.322 712.277 718.521 707.189 720.288ZM705.175 714.492C708.009 713.507 709.852 711.471 710.704 708.384C711.564 705.319 711.154 701.371 709.476 696.54C707.798 691.71 705.671 688.359 703.096 686.487C700.513 684.593 697.805 684.139 694.971 685.123C692.137 686.108 690.294 688.144 689.442 691.231C688.582 694.296 688.991 698.244 690.67 703.075C692.326 707.841 694.427 711.189 696.975 713.119C699.543 715.041 702.277 715.499 705.175 714.492Z" fill="#2B2A2B"/>
<path d="M819.325 942.329C817.709 944.553 815.69 946.191 813.27 947.242C810.831 948.279 808.291 948.681 805.651 948.448C803.024 948.197 800.598 947.264 798.373 945.647C796.13 944.017 794.492 941.999 793.46 939.591C792.423 937.152 792.03 934.619 792.281 931.993C792.514 929.352 793.438 926.92 795.055 924.695C796.685 922.452 798.712 920.821 801.138 919.802C803.559 918.752 806.083 918.352 808.709 918.603C811.331 918.822 813.764 919.747 816.007 921.377C818.232 922.993 819.863 925.021 820.9 927.46C821.95 929.881 822.359 932.411 822.127 935.051C821.889 937.66 820.955 940.085 819.325 942.329ZM876.985 884.774L820.501 843.736L825.23 837.227L846.081 852.376L846.482 851.824C846.094 850.812 845.637 849.469 845.111 847.794C844.581 846.089 844.446 844.109 844.707 841.854C844.964 839.569 846.094 837.047 848.097 834.289C850.689 830.721 853.865 828.225 857.626 826.8C861.386 825.374 865.458 825.088 869.839 825.939C874.221 826.791 878.636 828.833 883.086 832.066C887.572 835.326 890.907 838.914 893.089 842.831C895.253 846.735 896.254 850.693 896.093 854.705C895.912 858.704 894.54 862.468 891.975 865.999C889.998 868.72 887.964 870.572 885.874 871.553C883.766 872.522 881.812 873.027 880.013 873.068C878.195 873.095 876.726 873.067 875.606 872.984L875.045 873.757L881.554 878.486L876.985 884.774ZM860.453 862.986C863.652 865.31 866.815 866.892 869.942 867.731C873.05 868.557 875.948 868.57 878.637 867.77C881.306 866.956 883.59 865.244 885.487 862.633C887.464 859.912 888.396 857.12 888.285 854.258C888.168 851.364 887.221 848.569 885.444 845.873C883.661 843.145 881.262 840.686 878.247 838.495C875.268 836.331 872.25 834.84 869.191 834.023C866.128 833.174 863.23 833.161 860.497 833.984C857.758 834.776 855.387 836.551 853.383 839.309C851.46 841.957 850.514 844.669 850.548 847.446C850.562 850.21 851.431 852.92 853.153 855.576C854.857 858.218 857.29 860.688 860.453 862.986Z" fill="#2B2A2B"/>
<path d="M531.453 502.182C528.703 502.182 526.192 501.511 523.919 500.17C521.646 498.807 519.828 496.989 518.464 494.716C517.124 492.443 516.453 489.932 516.453 487.182C516.453 484.409 517.124 481.898 518.464 479.648C519.828 477.375 521.646 475.568 523.919 474.227C526.192 472.864 528.703 472.182 531.453 472.182C534.226 472.182 536.737 472.864 538.987 474.227C541.26 475.568 543.067 477.375 544.408 479.648C545.771 481.898 546.453 484.409 546.453 487.182C546.453 489.932 545.771 492.443 544.408 494.716C543.067 496.989 541.26 498.807 538.987 500.17C536.737 501.511 534.226 502.182 531.453 502.182ZM622.68 515L606.726 462.636H615.18L626.499 502.727H627.044L638.226 462.636H646.817L657.862 502.591H658.408L669.726 462.636H678.18L662.226 515H654.317L642.862 474.773H642.044L630.589 515H622.68ZM696.385 527V492.568H696.044L685.271 499.727V492.5L696.385 485.136H703.476V527H696.385Z" fill="#2B2A2B"/>
<rect x="2636" y="414" width="268" height="268" rx="134" fill="#D9D9D9"/>
<rect x="2633" y="411" width="274" height="274" rx="137" stroke="#404040" stroke-opacity="0.352941" stroke-width="6"/>
<path d="M2755.83 602.636C2754.46 602.636 2753.25 602.523 2752.18 602.295C2751.11 602.091 2750.37 601.886 2749.96 601.682L2752.01 594.591C2753.96 595.091 2755.69 595.273 2757.19 595.136C2758.69 595 2760.02 594.33 2761.18 593.125C2762.36 591.943 2763.44 590.023 2764.42 587.364L2765.92 583.273L2746.55 530.636H2755.28L2769.74 572.364H2770.28L2784.74 530.636H2793.46L2771.24 590.636C2770.24 593.341 2769 595.58 2767.52 597.352C2766.04 599.148 2764.33 600.477 2762.37 601.341C2760.44 602.205 2758.26 602.636 2755.83 602.636Z" fill="#2B2A2B"/>
<rect x="547" y="1056" width="268" height="268" rx="134" fill="#55A49F"/>
<rect x="544" y="1053" width="274" height="274" rx="137" stroke="#404040" stroke-opacity="0.352941" stroke-width="6"/>
<path d="M690.46 1155.18V1225H682.006V1164.05H681.597L664.551 1175.36V1166.77L682.006 1155.18H690.46Z" fill="#2B2A2B"/>
<rect x="911" y="368" width="360" height="360" rx="180" fill="#BF85FC"/>
<rect x="908" y="365" width="366" height="366" rx="183" stroke="#404040" stroke-opacity="0.352941" stroke-width="6"/>
<path d="M1143.78 498.099V483.757H1050.56L1105.41 542.755C1108.84 546.453 1108.8 552.201 1105.3 555.836L1051.07 612.244H1143.77V603.582C1143.77 598.334 1148.04 594.064 1153.29 594.064C1158.54 594.064 1162.82 598.334 1162.82 603.582V621.761C1162.82 627.011 1158.54 631.284 1153.29 631.284H1028.7C1024.88 631.284 1021.44 629.012 1019.95 625.493C1018.45 621.975 1019.19 617.921 1021.84 615.164L1085.34 549.129L1021.73 480.72C1019.15 477.944 1018.47 473.909 1019.98 470.434C1021.49 466.961 1024.92 464.716 1028.7 464.716H1153.3C1158.54 464.716 1162.82 468.986 1162.82 474.238V498.099C1162.82 503.348 1158.55 507.62 1153.3 507.62C1148.05 507.62 1143.78 503.35 1143.78 498.099Z" fill="#2B2A2B"/>
<rect x="1763" y="368" width="360" height="360" rx="180" fill="#D97192"/>
<rect x="1760" y="365" width="366" height="366" rx="183" stroke="#404040" stroke-opacity="0.352941" stroke-width="6"/>
<line x1="1817" y1="599.5" x2="1947" y2="599.5" stroke="#2B2A2B" stroke-width="8"/>
<line x1="1939" y1="496.5" x2="2069" y2="496.5" stroke="#2B2A2B" stroke-width="8"/>
<line x1="1943" y1="492.5" x2="1943" y2="603.5" stroke="#2B2A2B" stroke-width="8"/>
<path d="M1014 743L961.249 766.467L1007.95 800.417L1014 743ZM777 1069L781.044 1071.94L991.583 782.338L987.539 779.398L983.495 776.458L772.956 1066.06L777 1069Z" fill="#2B2A2B"/>
<path d="M924.508 668.575L867.803 657.716L886.752 712.253L924.508 668.575ZM274.492 894.425L276.133 899.149L883.642 688.067L882.001 683.344L880.36 678.621L272.851 889.702L274.492 894.425Z" fill="#2B2A2B"/>
<path d="M924.816 440.084L887.058 396.408L868.112 450.946L924.816 440.084ZM274 214L272.359 218.723L880.667 430.04L882.308 425.317L883.949 420.594L275.641 209.277L274 214Z" fill="#2B2A2B"/>
<path d="M893 548L843 519.132V576.868L893 548ZM307 548V553H848V548V543H307V548Z" fill="#2B2A2B"/>
<path d="M1743 548L1693 519.132V576.868L1743 548ZM1291 548V553H1698V548V543H1291V548Z" fill="#2B2A2B"/>
<path d="M2603 548L2553 519.132V576.868L2603 548ZM2151 548V553H2558V548V543H2151V548Z" fill="#2B2A2B"/>
</svg>
