<svg width="2910" height="1330" viewBox="0 0 2910 1330" fill="none" xmlns="http://www.w3.org/2000/svg">
<rect x="6" y="6" width="268" height="268" rx="134" fill="#D9D9D9"/>
<rect x="3" y="3" width="274" height="274" rx="137" stroke="#404040" stroke-opacity="0.352941" stroke-width="6"/>
<path d="M112.395 122.636L124.94 144.045L137.486 122.636H146.759L129.849 148.818L146.759 175H137.486L124.94 154.682L112.395 175H103.122L119.759 148.818L103.122 122.636H112.395ZM165.807 187V152.568H165.466L154.693 159.727V152.5L165.807 145.136H172.898V187H165.807Z" fill="#2B2A2B"/>
<rect x="6" y="414" width="268" height="268" rx="134" fill="#D9D9D9"/>
<rect x="3" y="411" width="274" height="274" rx="137" stroke="#404040" stroke-opacity="0.352941" stroke-width="6"/>
<path d="M107.239 530.636L119.784 552.045L132.33 530.636H141.602L124.693 556.818L141.602 583H132.33L119.784 562.682L107.239 583H97.9659L114.602 556.818L97.9659 530.636H107.239ZM150.491 595V589.682L166.446 575.5C168.037 574.091 169.366 572.83 170.435 571.716C171.503 570.602 172.31 569.523 172.855 568.477C173.401 567.432 173.673 566.318 173.673 565.136C173.673 563.091 172.889 561.466 171.321 560.261C169.753 559.057 167.81 558.455 165.491 558.455C163.037 558.455 161.06 559.114 159.56 560.432C158.06 561.727 157.31 563.432 157.31 565.545H150.219C150.219 561.659 151.662 558.534 154.548 556.17C157.435 553.784 161.128 552.591 165.628 552.591C168.628 552.591 171.264 553.136 173.537 554.227C175.81 555.295 177.582 556.773 178.855 558.659C180.128 560.523 180.764 562.636 180.764 565C180.764 566.864 180.389 568.591 179.639 570.182C178.889 571.773 177.719 573.42 176.128 575.125C174.537 576.83 172.491 578.773 169.991 580.955L161.128 588.727V589H181.991V595H150.491Z" fill="#2B2A2B"/>
<rect x="6" y="822" width="268" height="268" rx="134" fill="#D9D9D9"/>
<rect x="3" y="819" width="274" height="274" rx="137" stroke="#404040" stroke-opacity="0.352941" stroke-width="6"/>
<path d="M105.926 938.636L118.472 960.045L131.017 938.636H140.29L123.381 964.818L140.29 991H131.017L118.472 970.682L105.926 991H96.6534L113.29 964.818L96.6534 938.636H105.926ZM182.82 968.109V1010H177.011L155.718 979.277H155.329V1010H149.009V968.109H154.859L176.172 998.873H176.561V968.109H182.82Z" fill="#2B2A2B"/>
<path d="M528.034 250.496C525.437 249.594 523.285 248.136 521.578 246.124C519.879 244.09 518.758 241.776 518.216 239.181C517.695 236.594 517.886 234.002 518.788 231.404C519.699 228.785 521.156 226.633 523.161 224.948C525.195 223.248 527.506 222.138 530.093 221.618C532.687 221.076 535.283 221.256 537.881 222.158C540.5 223.068 542.648 224.537 544.326 226.563C546.033 228.576 547.147 230.875 547.667 233.462C548.217 236.035 548.037 238.631 547.127 241.25C546.224 243.848 544.756 245.997 542.722 247.696C540.709 249.403 538.406 250.527 535.811 251.069C533.246 251.597 530.654 251.406 528.034 250.496ZM610.001 292.546L612.117 237.847L620.103 240.621L617.636 282.206L618.151 282.385L641.872 248.185L649.987 251.005L647.307 292.371L647.822 292.55L671.627 258.524L679.613 261.299L647.356 305.525L639.885 302.929L642.268 261.171L641.495 260.902L617.472 295.142L610.001 292.546ZM675.684 328.072L686.985 295.547L686.663 295.435L674.138 298.662L676.51 291.835L689.424 288.527L696.123 290.854L682.383 330.399L675.684 328.072Z" fill="#2B2A2B"/>
<path d="M536.292 752.527C533.694 753.43 531.102 753.621 528.515 753.1C525.921 752.558 523.607 751.437 521.573 749.738C519.56 748.031 518.102 745.879 517.2 743.281C516.29 740.662 516.099 738.07 516.627 735.505C517.169 732.91 518.294 730.607 520 728.594C521.7 726.56 523.848 725.092 526.446 724.189C529.065 723.279 531.661 723.099 534.234 723.649C536.821 724.169 539.121 725.283 541.133 726.99C543.16 728.668 544.628 730.816 545.538 733.435C546.441 736.033 546.621 738.629 546.079 741.223C545.558 743.81 544.448 746.121 542.749 748.155C541.063 750.16 538.911 751.617 536.292 752.527ZM626.673 734.694L594.416 690.468L602.402 687.693L626.252 721.848L626.767 721.669L624.171 680.129L632.286 677.309L655.833 711.426L656.348 711.247L653.926 669.79L661.912 667.016L664.028 721.715L656.557 724.311L632.534 690.071L631.761 690.34L634.144 732.098L626.673 734.694ZM710.963 681.174L724.712 720.744L719.224 722.651L689.027 700.619L688.66 700.746L698.744 729.767L692.773 731.842L679.024 692.271L684.55 690.351L714.78 712.415L715.147 712.288L705.05 683.228L710.963 681.174Z" fill="#2B2A2B"/>
<path d="M819.325 942.329C817.709 944.553 815.69 946.191 813.27 947.242C810.831 948.279 808.291 948.681 805.651 948.448C803.024 948.197 800.598 947.264 798.373 945.647C796.13 944.017 794.492 941.999 793.46 939.591C792.423 937.152 792.03 934.619 792.281 931.993C792.514 929.352 793.438 926.92 795.055 924.695C796.685 922.452 798.712 920.821 801.138 919.802C803.559 918.752 806.083 918.352 808.709 918.603C811.331 918.822 813.764 919.747 816.007 921.377C818.232 922.993 819.863 925.021 820.9 927.46C821.95 929.881 822.359 932.411 822.127 935.051C821.889 937.66 820.955 940.085 819.325 942.329ZM876.985 884.774L820.501 843.736L825.23 837.227L846.081 852.376L846.482 851.824C846.094 850.812 845.637 849.469 845.111 847.794C844.581 846.089 844.446 844.109 844.707 841.854C844.964 839.569 846.094 837.047 848.097 834.289C850.689 830.721 853.865 828.225 857.626 826.8C861.386 825.374 865.458 825.088 869.839 825.939C874.221 826.791 878.636 828.833 883.086 832.066C887.572 835.326 890.907 838.914 893.089 842.831C895.253 846.735 896.254 850.693 896.093 854.705C895.912 858.704 894.54 862.468 891.975 865.999C889.998 868.72 887.964 870.572 885.874 871.553C883.766 872.522 881.812 873.027 880.013 873.068C878.195 873.095 876.726 873.067 875.606 872.984L875.045 873.757L881.554 878.486L876.985 884.774ZM860.453 862.986C863.652 865.31 866.815 866.892 869.942 867.731C873.05 868.557 875.948 868.57 878.637 867.77C881.306 866.956 883.59 865.244 885.487 862.633C887.464 859.912 888.396 857.12 888.285 854.258C888.168 851.364 887.221 848.569 885.444 845.873C883.661 843.145 881.262 840.686 878.247 838.495C875.268 836.331 872.25 834.84 869.191 834.023C866.128 833.174 863.23 833.161 860.497 833.984C857.758 834.776 855.387 836.551 853.383 839.309C851.46 841.957 850.514 844.669 850.548 847.446C850.562 850.21 851.431 852.92 853.153 855.576C854.857 858.218 857.29 860.688 860.453 862.986Z" fill="#2B2A2B"/>
<path d="M526.297 502.182C523.547 502.182 521.036 501.511 518.763 500.17C516.49 498.807 514.672 496.989 513.308 494.716C511.967 492.443 511.297 489.932 511.297 487.182C511.297 484.409 511.967 481.898 513.308 479.648C514.672 477.375 516.49 475.568 518.763 474.227C521.036 472.864 523.547 472.182 526.297 472.182C529.07 472.182 531.581 472.864 533.831 474.227C536.104 475.568 537.911 477.375 539.251 479.648C540.615 481.898 541.297 484.409 541.297 487.182C541.297 489.932 540.615 492.443 539.251 494.716C537.911 496.989 536.104 498.807 533.831 500.17C531.581 501.511 529.07 502.182 526.297 502.182ZM617.524 515L601.57 462.636H610.024L621.342 502.727H621.888L633.07 462.636H641.661L652.706 502.591H653.251L664.57 462.636H673.024L657.07 515H649.161L637.706 474.773H636.888L625.433 515H617.524ZM681.07 527V521.682L697.024 507.5C698.615 506.091 699.945 504.83 701.013 503.716C702.081 502.602 702.888 501.523 703.433 500.477C703.979 499.432 704.251 498.318 704.251 497.136C704.251 495.091 703.467 493.466 701.899 492.261C700.331 491.057 698.388 490.455 696.07 490.455C693.615 490.455 691.638 491.114 690.138 492.432C688.638 493.727 687.888 495.432 687.888 497.545H680.797C680.797 493.659 682.24 490.534 685.126 488.17C688.013 485.784 691.706 484.591 696.206 484.591C699.206 484.591 701.842 485.136 704.115 486.227C706.388 487.295 708.161 488.773 709.433 490.659C710.706 492.523 711.342 494.636 711.342 497C711.342 498.864 710.967 500.591 710.217 502.182C709.467 503.773 708.297 505.42 706.706 507.125C705.115 508.83 703.07 510.773 700.57 512.955L691.706 520.727V521H712.57V527H681.07Z" fill="#2B2A2B"/>
<rect x="2636" y="414" width="268" height="268" rx="134" fill="#D9D9D9"/>
<rect x="2633" y="411" width="274" height="274" rx="137" stroke="#404040" stroke-opacity="0.352941" stroke-width="6"/>
<path d="M2755.83 602.636C2754.46 602.636 2753.25 602.523 2752.18 602.295C2751.11 602.091 2750.37 601.886 2749.96 601.682L2752.01 594.591C2753.96 595.091 2755.69 595.273 2757.19 595.136C2758.69 595 2760.02 594.33 2761.18 593.125C2762.36 591.943 2763.44 590.023 2764.42 587.364L2765.92 583.273L2746.55 530.636H2755.28L2769.74 572.364H2770.28L2784.74 530.636H2793.46L2771.24 590.636C2770.24 593.341 2769 595.58 2767.52 597.352C2766.04 599.148 2764.33 600.477 2762.37 601.341C2760.44 602.205 2758.26 602.636 2755.83 602.636ZM2777.1 524.364L2770.01 514.818L2762.92 524.364H2755.28V523.818L2766.33 509.636H2773.69L2784.74 523.818V524.364H2777.1Z" fill="#2B2A2B"/>
<rect x="547" y="1056" width="268" height="268" rx="134" fill="#55A49F"/>
<rect x="544" y="1053" width="274" height="274" rx="137" stroke="#404040" stroke-opacity="0.352941" stroke-width="6"/>
<path d="M690.46 1155.18V1225H682.006V1164.05H681.597L664.551 1175.36V1166.77L682.006 1155.18H690.46Z" fill="#2B2A2B"/>
<rect x="911" y="368" width="360" height="360" rx="180" fill="#BF85FC"/>
<rect x="908" y="365" width="366" height="366" rx="183" stroke="#404040" stroke-opacity="0.352941" stroke-width="6"/>
<path d="M1143.78 498.099V483.757H1050.56L1105.41 542.755C1108.84 546.453 1108.8 552.201 1105.3 555.836L1051.07 612.244H1143.77V603.582C1143.77 598.334 1148.04 594.064 1153.29 594.064C1158.54 594.064 1162.82 598.334 1162.82 603.582V621.761C1162.82 627.011 1158.54 631.284 1153.29 631.284H1028.7C1024.88 631.284 1021.44 629.012 1019.95 625.493C1018.45 621.975 1019.19 617.921 1021.84 615.164L1085.34 549.129L1021.73 480.72C1019.15 477.944 1018.47 473.909 1019.98 470.434C1021.49 466.961 1024.92 464.716 1028.7 464.716H1153.3C1158.54 464.716 1162.82 468.986 1162.82 474.238V498.099C1162.82 503.348 1158.55 507.62 1153.3 507.62C1148.05 507.62 1143.78 503.35 1143.78 498.099Z" fill="#2B2A2B"/>
<rect x="1763" y="368" width="360" height="360" rx="180" fill="#D97192"/>
<rect x="1760" y="365" width="366" height="366" rx="183" stroke="#404040" stroke-opacity="0.352941" stroke-width="6"/>
<line x1="1817" y1="599.5" x2="1947" y2="599.5" stroke="#2B2A2B" stroke-width="8"/>
<line x1="1939" y1="496.5" x2="2069" y2="496.5" stroke="#2B2A2B" stroke-width="8"/>
<line x1="1943" y1="492.5" x2="1943" y2="603.5" stroke="#2B2A2B" stroke-width="8"/>
<path d="M1014 743L961.249 766.467L1007.95 800.417L1014 743ZM777 1069L781.044 1071.94L991.583 782.338L987.539 779.398L983.495 776.458L772.956 1066.06L777 1069Z" fill="#2B2A2B"/>
<path d="M924.508 668.575L867.803 657.716L886.752 712.253L924.508 668.575ZM274.492 894.425L276.133 899.149L883.642 688.067L882.001 683.344L880.36 678.621L272.851 889.702L274.492 894.425Z" fill="#2B2A2B"/>
<path d="M924.816 440.084L887.058 396.408L868.112 450.946L924.816 440.084ZM274 214L272.359 218.723L880.667 430.04L882.308 425.317L883.949 420.594L275.641 209.277L274 214Z" fill="#2B2A2B"/>
<path d="M893 548L843 519.132V576.868L893 548ZM307 548V553H848V548V543H307V548Z" fill="#2B2A2B"/>
<path d="M1743 548L1693 519.132V576.868L1743 548ZM1291 548V553H1698V548V543H1291V548Z" fill="#2B2A2B"/>
<path d="M2603 548L2553 519.132V576.868L2603 548ZM2151 548V553H2558V548V543H2151V548Z" fill="#2B2A2B"/>
</svg>
